<svg width="156" height="78" viewBox="0 0 156 78" fill="none" xmlns="http://www.w3.org/2000/svg">
<g clip-path="url(#clip0_2_8)">
<path d="M7.47478 22.5195C6.16768 24.7229 4.89792 25.4699 3.10532 25.5819C2.69452 25.6192 2.39575 25.6192 2.39575 26.2915C2.39575 26.5155 2.58248 26.6649 2.8439 26.6649C3.51613 26.6649 5.19669 26.5902 5.86891 26.5902C6.95194 26.5902 8.14701 26.6649 9.19269 26.6649C9.41677 26.6649 9.86492 26.6649 9.86492 25.9553C9.86492 25.6192 9.56615 25.5819 9.34208 25.5819C8.48312 25.5072 7.77355 25.2084 7.77355 24.3121C7.77355 23.7893 7.99763 23.3785 8.48312 22.5569L11.3214 17.8513H20.8446C20.8819 18.1874 20.8819 18.4862 20.9193 18.8223C21.0313 19.7933 21.4795 23.6773 21.4795 24.3868C21.4795 25.5072 19.5748 25.5819 18.9773 25.5819C18.5665 25.5819 18.1557 25.5819 18.1557 26.2541C18.1557 26.6649 18.4918 26.6649 18.7159 26.6649C19.3508 26.6649 20.0977 26.5902 20.7326 26.5902H22.8613C25.1394 26.5902 26.7826 26.6649 26.8199 26.6649C27.0813 26.6649 27.4921 26.6649 27.4921 25.9553C27.4921 25.5819 27.156 25.5819 26.5958 25.5819C24.5418 25.5819 24.5045 25.2458 24.3924 24.1254L22.1143 0.821608C22.0397 0.0746912 21.8903 0 21.4795 0C21.106 0 20.8819 0.074693 20.5458 0.634881L7.47478 22.5195ZM11.9563 16.7683L19.4628 4.22008L20.7326 16.7683H11.9563Z" fill="black"/>
<path d="M29.6646 41.8463H0V43.3401H29.6646V41.8463Z" fill="black"/>
<path d="M13.6686 54.5794C14.0047 53.1976 14.1541 53.1229 15.6106 53.1229H20.4655C24.6856 53.1229 24.6856 56.7081 24.6856 57.0442C24.6856 60.0692 21.6606 63.9158 16.7309 63.9158H11.3531L13.6686 54.5794ZM19.98 64.2146C24.0507 63.4677 27.748 60.6294 27.748 57.1936C27.748 54.2806 25.1711 52.0398 20.951 52.0398H8.963C8.25343 52.0398 7.91732 52.0398 7.91732 52.7494C7.91732 53.1229 8.25343 53.1229 8.81362 53.1229C11.0917 53.1229 11.0917 53.4216 11.0917 53.8324C11.0917 53.9071 11.0917 54.1312 10.9423 54.6914L5.90064 74.7834C5.56453 76.0905 5.48984 76.464 2.87563 76.464C2.16606 76.464 1.7926 76.464 1.7926 77.1362C1.7926 77.547 2.01668 77.547 2.76359 77.547H15.5732C21.2871 77.547 25.6939 73.2149 25.6939 69.443C25.6939 66.3806 23.005 64.5133 19.98 64.2146ZM14.6769 76.464H9.63523C9.11238 76.464 9.03769 76.464 8.81362 76.4267C8.40281 76.3893 8.36547 76.3146 8.36547 76.0159C8.36547 75.7544 8.44016 75.5304 8.51485 75.1942L11.1291 64.6627H18.1501C22.5569 64.6627 22.5569 68.7708 22.5569 69.0695C22.5569 72.6547 19.3078 76.464 14.6769 76.464Z" fill="black"/>
<path d="M54.2925 41.5475L46.8233 34.1157C46.3751 33.6675 46.3004 33.5928 46.0017 33.5928C45.6282 33.5928 45.2548 33.929 45.2548 34.3398C45.2548 34.6012 45.3295 34.6759 45.7403 35.0867L53.2094 42.5932L45.7403 50.0997C45.3295 50.5105 45.2548 50.5852 45.2548 50.8466C45.2548 51.2574 45.6282 51.5935 46.0017 51.5935C46.3004 51.5935 46.3751 51.5188 46.8233 51.0707L54.2551 43.6389L61.9857 51.3695C62.0604 51.4068 62.3218 51.5935 62.5459 51.5935C62.994 51.5935 63.2928 51.2574 63.2928 50.8466C63.2928 50.7719 63.2928 50.6225 63.1808 50.4358C63.1434 50.3611 57.2054 44.4978 55.3381 42.5932L62.1724 35.7589C62.3592 35.5348 62.9193 35.0493 63.1061 34.8253C63.1434 34.7506 63.2928 34.6012 63.2928 34.3398C63.2928 33.929 62.994 33.5928 62.5459 33.5928C62.2471 33.5928 62.0977 33.7422 61.6869 34.153L54.2925 41.5475Z" fill="black"/>
<path d="M87.0448 28.0657C87.0448 27.2814 87.0074 27.2441 86.4846 27.2441C85.0281 28.9993 82.8247 29.5595 80.7333 29.6342C80.6213 29.6342 80.4346 29.6342 80.3972 29.7089C80.3599 29.7836 80.3599 29.8583 80.3599 30.6425C81.5176 30.6425 83.4596 30.4185 84.9534 29.5222V49.2034C84.9534 50.5105 84.8787 50.9587 81.667 50.9587H80.5466V51.9297C82.3392 51.8923 84.2065 51.855 85.9991 51.855C87.7917 51.855 89.659 51.8923 91.4516 51.9297V50.9587H90.3312C87.1195 50.9587 87.0448 50.5479 87.0448 49.2034V28.0657Z" fill="black"/>
<path d="M109.924 39.9416C109.924 37.6635 109.886 33.7796 108.318 30.7919C106.936 28.1777 104.732 27.2441 102.79 27.2441C100.998 27.2441 98.7198 28.0657 97.3006 30.7546C95.8068 33.5555 95.6574 37.0287 95.6574 39.9416C95.6574 42.0704 95.6948 45.3194 96.8525 48.1577C98.4583 52.0043 101.334 52.5272 102.79 52.5272C104.508 52.5272 107.123 51.8176 108.654 48.2698C109.774 45.6929 109.924 42.6679 109.924 39.9416ZM102.79 51.9297C100.4 51.9297 98.9812 49.8756 98.4583 47.0374C98.0475 44.8339 98.0475 41.6222 98.0475 39.5308C98.0475 36.6552 98.0475 34.2651 98.533 31.987C99.2426 28.8126 101.334 27.8416 102.79 27.8416C104.322 27.8416 106.301 28.8499 107.011 31.9123C107.496 34.041 107.533 36.5432 107.533 39.5308C107.533 41.9583 107.533 44.946 107.085 47.1494C106.301 51.2201 104.098 51.9297 102.79 51.9297Z" fill="black"/>
<path d="M127.051 39.9416C127.051 37.6635 127.014 33.7796 125.445 30.7919C124.063 28.1777 121.86 27.2441 119.918 27.2441C118.125 27.2441 115.847 28.0657 114.428 30.7546C112.934 33.5555 112.785 37.0287 112.785 39.9416C112.785 42.0704 112.822 45.3194 113.98 48.1577C115.586 52.0043 118.461 52.5272 119.918 52.5272C121.636 52.5272 124.25 51.8176 125.781 48.2698C126.902 45.6929 127.051 42.6679 127.051 39.9416ZM119.918 51.9297C117.528 51.9297 116.109 49.8756 115.586 47.0374C115.175 44.8339 115.175 41.6222 115.175 39.5308C115.175 36.6552 115.175 34.2651 115.661 31.987C116.37 28.8126 118.461 27.8416 119.918 27.8416C121.449 27.8416 123.428 28.8499 124.138 31.9123C124.624 34.041 124.661 36.5432 124.661 39.5308C124.661 41.9583 124.661 44.946 124.213 47.1494C123.428 51.2201 121.225 51.9297 119.918 51.9297Z" fill="black"/>
<path d="M155.569 46.4772C155.569 42.1451 153.44 38.9707 150.938 38.9707C148.399 38.9707 145.822 41.921 145.822 46.4772C145.822 51.0334 148.361 53.9837 150.938 53.9837C153.44 53.9837 155.569 50.8466 155.569 46.4772ZM150.975 53.3861C150.004 53.3861 147.577 52.4898 147.577 46.4772C147.577 40.4271 150.004 39.5682 150.975 39.5682C153.029 39.5682 154.897 42.5185 154.897 46.4772C154.897 50.4358 153.029 53.3861 150.975 53.3861ZM152.32 25.2647C152.581 24.8539 152.619 24.8166 152.619 24.6299C152.619 24.1817 152.283 23.9576 151.984 23.9576C151.61 23.9576 151.461 24.2191 151.2 24.5178C149.033 27.6175 146.046 27.9536 144.515 27.9536C140.78 27.9536 138.502 25.7876 137.792 25.1154C137.307 24.6672 136.597 23.9576 135.328 23.9576C132.788 23.9576 130.211 26.908 130.211 31.4641C130.211 36.0203 132.751 38.9707 135.328 38.9707C137.83 38.9707 139.958 35.8336 139.958 31.4641C139.958 28.8873 139.174 27.132 139.062 26.908C141.34 28.3644 143.581 28.5512 144.552 28.5512C146.942 28.5512 148.66 27.6549 149.594 27.02L149.631 27.0573L133.498 52.6019C133.161 53.1247 133.161 53.1994 133.161 53.3115C133.161 53.7223 133.498 53.9837 133.834 53.9837C134.17 53.9837 134.282 53.797 134.543 53.3861L152.32 25.2647ZM135.365 38.3731C134.394 38.3731 131.966 37.4768 131.966 31.4641C131.966 25.4141 134.394 24.5552 135.365 24.5552C137.419 24.5552 139.286 27.5055 139.286 31.4641C139.286 35.4228 137.419 38.3731 135.365 38.3731Z" fill="black"/>
</g>
<defs>
<clipPath id="clip0_2_8">
<rect width="155.569" height="77.547" fill="white"/>
</clipPath>
</defs>
</svg>
