<svg width="271" height="77" viewBox="0 0 271 77" fill="none" xmlns="http://www.w3.org/2000/svg">
<path d="M8.25344 11.988C11.5772 11.988 13.0337 14.8636 13.0337 18.1874C13.0337 22.6689 10.6436 24.3868 8.47751 24.3868C6.49818 24.3868 3.28644 23.4158 2.2781 20.5402C2.46483 20.6149 2.65156 20.6149 2.83829 20.6149C3.73459 20.6149 4.40682 20.0174 4.40682 19.0464C4.40682 17.9633 3.58521 17.4778 2.83829 17.4778C2.20341 17.4778 1.23242 17.7766 1.23242 19.1584C1.23242 22.5942 4.59355 25.2831 8.5522 25.2831C12.6976 25.2831 15.872 22.034 15.872 18.2248C15.872 14.6022 12.8843 11.988 9.33647 11.5772C12.1747 10.9797 14.901 8.44016 14.901 5.04169C14.901 2.12871 11.9507 0 8.58955 0C5.19108 0 2.20341 2.09137 2.20341 5.07903C2.20341 6.38614 3.17441 6.61021 3.6599 6.61021C4.44416 6.61021 5.11639 6.12471 5.11639 5.15372C5.11639 4.18273 4.44416 3.69724 3.6599 3.69724C3.51052 3.69724 3.32379 3.69724 3.17441 3.77193C4.25743 1.3071 7.20775 0.858952 8.51486 0.858952C9.82196 0.858952 12.2868 1.49383 12.2868 5.07903C12.2868 6.12471 12.1374 7.992 10.8676 9.63522C9.74727 11.0917 8.47751 11.1664 7.2451 11.2784C7.05837 11.2784 6.19942 11.3531 6.05003 11.3531C5.78861 11.3905 5.63923 11.4278 5.63923 11.6892C5.63923 11.9507 5.67657 11.988 6.42349 11.988H8.25344Z" fill="black"/>
<path d="M32.8127 12.6976C32.8127 10.4195 32.7754 6.53552 31.2069 3.54785C29.8251 0.933643 27.6217 0 25.6797 0C23.8871 0 21.609 0.821606 20.1898 3.51051C18.696 6.31144 18.5466 9.78461 18.5466 12.6976C18.5466 14.8263 18.584 18.0754 19.7417 20.9137C21.3476 24.7603 24.2232 25.2831 25.6797 25.2831C27.3976 25.2831 30.0118 24.5736 31.543 21.0257C32.6634 18.4488 32.8127 15.4238 32.8127 12.6976ZM25.6797 24.6856C23.2896 24.6856 21.8704 22.6316 21.3476 19.7933C20.9368 17.5899 20.9368 14.3781 20.9368 12.2868C20.9368 9.41115 20.9368 7.02101 21.4223 4.74292C22.1318 1.56852 24.2232 0.597532 25.6797 0.597532C27.2109 0.597532 29.1902 1.60587 29.8998 4.66823C30.3853 6.79694 30.4226 9.29911 30.4226 12.2868C30.4226 14.7143 30.4226 17.7019 29.9745 19.9053C29.1902 23.976 26.9868 24.6856 25.6797 24.6856Z" fill="black"/>
<path d="M34.2549 39.867H0V41.3608H34.2549V39.867Z" fill="black"/>
<path d="M12.5482 51.405C12.5482 50.6207 12.5109 50.5834 11.8387 50.5834L0.746948 68.248V69.2189H10.3822V72.8788C10.3822 74.2233 10.3075 74.5967 7.69327 74.5967H6.9837V75.5677C8.17877 75.493 10.1954 75.493 11.4652 75.493C12.735 75.493 14.7516 75.493 15.9467 75.5677V74.5967H15.2371C12.6229 74.5967 12.5482 74.2233 12.5482 72.8788V69.2189H16.3575V68.248H12.5482V51.405ZM10.4942 53.8698V68.248H1.49386L10.4942 53.8698Z" fill="black"/>
<path d="M32.8127 63.5797C32.8127 61.3016 32.7754 57.4177 31.2069 54.43C29.8251 51.8158 27.6217 50.8821 25.6797 50.8821C23.8871 50.8821 21.609 51.7037 20.1898 54.3926C18.696 57.1936 18.5466 60.6667 18.5466 63.5797C18.5466 65.7084 18.584 68.9575 19.7417 71.7958C21.3476 75.6424 24.2232 76.1653 25.6797 76.1653C27.3976 76.1653 30.0118 75.4557 31.543 71.9078C32.6634 69.331 32.8127 66.306 32.8127 63.5797ZM25.6797 75.5677C23.2896 75.5677 21.8704 73.5137 21.3476 70.6754C20.9368 68.472 20.9368 65.2603 20.9368 63.1689C20.9368 60.2933 20.9368 57.9032 21.4223 55.6251C22.1318 52.4507 24.2232 51.4797 25.6797 51.4797C27.2109 51.4797 29.1902 52.488 29.8998 55.5504C30.3853 57.6791 30.4226 60.1813 30.4226 63.1689C30.4226 65.5964 30.4226 68.5841 29.9745 70.7875C29.1902 74.8582 26.9868 75.5677 25.6797 75.5677Z" fill="black"/>
<path d="M58.8827 39.5682L51.4136 32.1364C50.9654 31.6882 50.8907 31.6135 50.5919 31.6135C50.2185 31.6135 49.845 31.9496 49.845 32.3604C49.845 32.6219 49.9197 32.6966 50.3305 33.1074L57.7997 40.6139L50.3305 48.1204C49.9197 48.5312 49.845 48.6059 49.845 48.8673C49.845 49.2781 50.2185 49.6142 50.5919 49.6142C50.8907 49.6142 50.9654 49.5395 51.4136 49.0914L58.8454 41.6596L66.576 49.3901C66.6507 49.4275 66.9121 49.6142 67.1362 49.6142C67.5843 49.6142 67.8831 49.2781 67.8831 48.8673C67.8831 48.7926 67.8831 48.6432 67.771 48.4565C67.7337 48.3818 61.7957 42.5185 59.9284 40.6139L66.7627 33.7796C66.9494 33.5555 67.5096 33.07 67.6963 32.8459C67.7337 32.7712 67.8831 32.6219 67.8831 32.3604C67.8831 31.9496 67.5843 31.6135 67.1362 31.6135C66.8374 31.6135 66.688 31.7629 66.2772 32.1737L58.8827 39.5682Z" fill="black"/>
<path d="M91.6351 26.0863C91.6351 25.3021 91.5978 25.2647 91.0749 25.2647C89.6184 27.02 87.415 27.5802 85.3237 27.6549C85.2116 27.6549 85.0249 27.6549 84.9875 27.7296C84.9502 27.8043 84.9502 27.8789 84.9502 28.6632C86.1079 28.6632 88.0499 28.4391 89.5437 27.5428V47.2241C89.5437 48.5312 89.469 48.9793 86.2573 48.9793H85.1369V49.9503C86.9295 49.913 88.7968 49.8756 90.5894 49.8756C92.382 49.8756 94.2493 49.913 96.0419 49.9503V48.9793H94.9215C91.7098 48.9793 91.6351 48.5685 91.6351 47.2241V26.0863Z" fill="black"/>
<path d="M114.514 37.9623C114.514 35.6842 114.477 31.8003 112.908 28.8126C111.526 26.1984 109.323 25.2647 107.381 25.2647C105.588 25.2647 103.31 26.0863 101.891 28.7752C100.397 31.5762 100.248 35.0493 100.248 37.9623C100.248 40.091 100.285 43.3401 101.443 46.1784C103.049 50.025 105.924 50.5479 107.381 50.5479C109.099 50.5479 111.713 49.8383 113.244 46.2904C114.364 43.7136 114.514 40.6886 114.514 37.9623ZM107.381 49.9503C104.991 49.9503 103.572 47.8963 103.049 45.058C102.638 42.8546 102.638 39.6429 102.638 37.5515C102.638 34.6759 102.638 32.2858 103.123 30.0077C103.833 26.8333 105.924 25.8623 107.381 25.8623C108.912 25.8623 110.891 26.8706 111.601 29.933C112.086 32.0617 112.124 34.5638 112.124 37.5515C112.124 39.979 112.124 42.9667 111.676 45.1701C110.891 49.2408 108.688 49.9503 107.381 49.9503Z" fill="black"/>
<path d="M131.641 37.9623C131.641 35.6842 131.604 31.8003 130.035 28.8126C128.654 26.1984 126.45 25.2647 124.508 25.2647C122.716 25.2647 120.438 26.0863 119.018 28.7752C117.525 31.5762 117.375 35.0493 117.375 37.9623C117.375 40.091 117.413 43.3401 118.57 46.1784C120.176 50.025 123.052 50.5479 124.508 50.5479C126.226 50.5479 128.84 49.8383 130.372 46.2904C131.492 43.7136 131.641 40.6886 131.641 37.9623ZM124.508 49.9503C122.118 49.9503 120.699 47.8963 120.176 45.058C119.765 42.8546 119.765 39.6429 119.765 37.5515C119.765 34.6759 119.765 32.2858 120.251 30.0077C120.96 26.8333 123.052 25.8623 124.508 25.8623C126.039 25.8623 128.019 26.8706 128.728 29.933C129.214 32.0617 129.251 34.5638 129.251 37.5515C129.251 39.979 129.251 42.9667 128.803 45.1701C128.019 49.2408 125.815 49.9503 124.508 49.9503Z" fill="black"/>
<path d="M160.159 44.4978C160.159 40.1657 158.031 36.9913 155.528 36.9913C152.989 36.9913 150.412 39.9416 150.412 44.4978C150.412 49.054 152.952 52.0043 155.528 52.0043C158.031 52.0043 160.159 48.8673 160.159 44.4978ZM155.566 51.4068C154.595 51.4068 152.167 50.5105 152.167 44.4978C152.167 38.4478 154.595 37.5889 155.566 37.5889C157.62 37.5889 159.487 40.5392 159.487 44.4978C159.487 48.4565 157.62 51.4068 155.566 51.4068ZM156.91 23.2854C157.172 22.8746 157.209 22.8373 157.209 22.6505C157.209 22.2024 156.873 21.9783 156.574 21.9783C156.201 21.9783 156.051 22.2397 155.79 22.5385C153.624 25.6382 150.636 25.9743 149.105 25.9743C145.37 25.9743 143.092 23.8082 142.383 23.136C141.897 22.6879 141.188 21.9783 139.918 21.9783C137.378 21.9783 134.801 24.9286 134.801 29.4848C134.801 34.041 137.341 36.9913 139.918 36.9913C142.42 36.9913 144.549 33.8543 144.549 29.4848C144.549 26.9079 143.764 25.1527 143.652 24.9286C145.931 26.3851 148.171 26.5718 149.142 26.5718C151.532 26.5718 153.25 25.6755 154.184 25.0407L154.221 25.078L138.088 50.6226C137.752 51.1454 137.752 51.2201 137.752 51.3321C137.752 51.7429 138.088 52.0043 138.424 52.0043C138.76 52.0043 138.872 51.8176 139.134 51.4068L156.91 23.2854ZM139.955 36.3938C138.984 36.3938 136.557 35.4975 136.557 29.4848C136.557 23.4348 138.984 22.5758 139.955 22.5758C142.009 22.5758 143.876 25.5262 143.876 29.4848C143.876 33.4435 142.009 36.3938 139.955 36.3938Z" fill="black"/>
<path d="M196.305 37.9623C196.865 37.9623 197.425 37.9623 197.425 37.3274C197.425 36.6552 196.79 36.6552 196.155 36.6552H175.279C174.644 36.6552 174.009 36.6552 174.009 37.3274C174.009 37.9623 174.569 37.9623 175.13 37.9623H196.305ZM196.155 44.6099C196.79 44.6099 197.425 44.6099 197.425 43.9376C197.425 43.3028 196.865 43.3028 196.305 43.3028H175.13C174.569 43.3028 174.009 43.3028 174.009 43.9376C174.009 44.6099 174.644 44.6099 175.279 44.6099H196.155Z" fill="black"/>
<path d="M226.391 26.6839V25.8623H217.615C213.245 25.8623 213.171 25.3768 213.021 24.6672H212.349L211.266 31.6509H211.938C212.05 30.9413 212.312 29.0367 212.76 28.3271C212.984 28.0283 215.747 28.0283 216.382 28.0283H224.598L220.453 34.1904C217.689 38.3358 215.785 43.9377 215.785 48.83C215.785 49.2781 215.785 50.5479 217.129 50.5479C218.474 50.5479 218.474 49.2781 218.474 48.7926V47.0747C218.474 40.95 219.519 36.9166 221.237 34.3398L226.391 26.6839Z" fill="black"/>
<path d="M230.933 28.103C231.306 28.2524 232.838 28.7379 234.406 28.7379C237.879 28.7379 239.784 26.8706 240.867 25.7876C240.867 25.4888 240.867 25.3021 240.643 25.3021C240.605 25.3021 240.531 25.3021 240.232 25.4515C238.925 26.0116 237.394 26.4598 235.526 26.4598C234.406 26.4598 232.726 26.3104 230.896 25.4888C230.485 25.3021 230.41 25.3021 230.373 25.3021C230.186 25.3021 230.149 25.3394 230.149 26.0863V36.9166C230.149 37.5889 230.149 37.7756 230.522 37.7756C230.709 37.7756 230.784 37.7009 230.97 37.4395C232.165 35.7589 233.809 35.0493 235.676 35.0493C236.983 35.0493 239.784 35.8709 239.784 42.2571C239.784 43.4522 239.784 45.6182 238.663 47.3361C237.73 48.8673 236.273 49.6516 234.667 49.6516C232.203 49.6516 229.7 47.9336 229.028 45.058C229.178 45.0954 229.476 45.1701 229.626 45.1701C230.111 45.1701 231.045 44.9086 231.045 43.7509C231.045 42.7426 230.335 42.3318 229.626 42.3318C228.767 42.3318 228.207 42.8546 228.207 43.9003C228.207 47.1494 230.784 50.5479 234.742 50.5479C238.589 50.5479 242.249 47.2241 242.249 42.4065C242.249 37.925 239.336 34.4518 235.713 34.4518C233.809 34.4518 232.203 35.1614 230.933 36.5058V28.103Z" fill="black"/>
<path d="M270.879 44.4978C270.879 40.1657 268.75 36.9913 266.248 36.9913C263.708 36.9913 261.131 39.9416 261.131 44.4978C261.131 49.054 263.671 52.0043 266.248 52.0043C268.75 52.0043 270.879 48.8673 270.879 44.4978ZM266.285 51.4068C265.314 51.4068 262.887 50.5105 262.887 44.4978C262.887 38.4478 265.314 37.5889 266.285 37.5889C268.339 37.5889 270.206 40.5392 270.206 44.4978C270.206 48.4565 268.339 51.4068 266.285 51.4068ZM267.63 23.2854C267.891 22.8746 267.928 22.8373 267.928 22.6505C267.928 22.2024 267.592 21.9783 267.293 21.9783C266.92 21.9783 266.771 22.2397 266.509 22.5385C264.343 25.6382 261.356 25.9743 259.824 25.9743C256.09 25.9743 253.812 23.8082 253.102 23.136C252.617 22.6879 251.907 21.9783 250.637 21.9783C248.098 21.9783 245.521 24.9286 245.521 29.4848C245.521 34.041 248.06 36.9913 250.637 36.9913C253.139 36.9913 255.268 33.8543 255.268 29.4848C255.268 26.9079 254.484 25.1527 254.372 24.9286C256.65 26.3851 258.891 26.5718 259.862 26.5718C262.252 26.5718 263.97 25.6755 264.903 25.0407L264.941 25.078L248.807 50.6226C248.471 51.1454 248.471 51.2201 248.471 51.3321C248.471 51.7429 248.807 52.0043 249.143 52.0043C249.48 52.0043 249.592 51.8176 249.853 51.4068L267.63 23.2854ZM250.675 36.3938C249.704 36.3938 247.276 35.4975 247.276 29.4848C247.276 23.4348 249.704 22.5758 250.675 22.5758C252.729 22.5758 254.596 25.5262 254.596 29.4848C254.596 33.4435 252.729 36.3938 250.675 36.3938Z" fill="black"/>
</svg>
