<svg width="246" height="75" viewBox="0 0 246 75" fill="none" xmlns="http://www.w3.org/2000/svg">
<g clip-path="url(#clip0_1_257)">
<path d="M8.25344 12.2868C11.5772 12.2868 13.0337 15.1624 13.0337 18.4862C13.0337 22.9677 10.6436 24.6856 8.47751 24.6856C6.49818 24.6856 3.28644 23.7146 2.2781 20.839C2.46483 20.9137 2.65156 20.9137 2.83829 20.9137C3.73459 20.9137 4.40682 20.3161 4.40682 19.3451C4.40682 18.2621 3.58521 17.7766 2.83829 17.7766C2.20341 17.7766 1.23242 18.0754 1.23242 19.4572C1.23242 22.893 4.59355 25.5819 8.5522 25.5819C12.6976 25.5819 15.872 22.3328 15.872 18.5235C15.872 14.901 12.8843 12.2868 9.33646 11.876C12.1747 11.2784 14.901 8.73892 14.901 5.34045C14.901 2.42748 11.9507 0.298767 8.58955 0.298767C5.19108 0.298767 2.20341 2.39013 2.20341 5.3778C2.20341 6.6849 3.17441 6.90898 3.6599 6.90898C4.44416 6.90898 5.11639 6.42348 5.11639 5.45249C5.11639 4.4815 4.44416 3.996 3.6599 3.996C3.51052 3.996 3.32379 3.996 3.17441 4.07069C4.25743 1.60587 7.20775 1.15772 8.51486 1.15772C9.82196 1.15772 12.2868 1.7926 12.2868 5.3778C12.2868 6.42348 12.1374 8.29077 10.8676 9.93399C9.74727 11.3905 8.47751 11.4652 7.2451 11.5772C7.05837 11.5772 6.19942 11.6519 6.05003 11.6519C5.78861 11.6892 5.63923 11.7266 5.63923 11.988C5.63923 12.2494 5.67657 12.2868 6.42349 12.2868H8.25344Z" fill="black"/>
<path d="M32.8127 12.9963C32.8127 10.7183 32.7754 6.83428 31.2069 3.84662C29.8251 1.23241 27.6217 0.298767 25.6797 0.298767C23.8871 0.298767 21.609 1.12037 20.1898 3.80927C18.696 6.61021 18.5466 10.0834 18.5466 12.9963C18.5466 15.1251 18.584 18.3741 19.7417 21.2124C21.3476 25.059 24.2232 25.5819 25.6797 25.5819C27.3976 25.5819 30.0118 24.8723 31.543 21.3245C32.6634 18.7476 32.8127 15.7226 32.8127 12.9963ZM25.6797 24.9844C23.2896 24.9844 21.8704 22.9303 21.3476 20.0921C20.9368 17.8887 20.9368 14.6769 20.9368 12.5855C20.9368 9.70991 20.9368 7.31978 21.4223 5.04168C22.1318 1.86729 24.2232 0.896299 25.6797 0.896299C27.2109 0.896299 29.1902 1.90464 29.8998 4.96699C30.3853 7.09571 30.4226 9.59788 30.4226 12.5855C30.4226 15.013 30.4226 18.0007 29.9745 20.2041C29.1902 24.2748 26.9868 24.9844 25.6797 24.9844Z" fill="black"/>
<path d="M49.9402 12.9963C49.9402 10.7183 49.9028 6.83428 48.3343 3.84662C46.9525 1.23241 44.7491 0.298767 42.8071 0.298767C41.0145 0.298767 38.7364 1.12037 37.3173 3.80927C35.8235 6.61021 35.6741 10.0834 35.6741 12.9963C35.6741 15.1251 35.7114 18.3741 36.8691 21.2124C38.475 25.059 41.3506 25.5819 42.8071 25.5819C44.525 25.5819 47.1392 24.8723 48.6704 21.3245C49.7908 18.7476 49.9402 15.7226 49.9402 12.9963ZM42.8071 24.9844C40.417 24.9844 38.9979 22.9303 38.475 20.0921C38.0642 17.8887 38.0642 14.6769 38.0642 12.5855C38.0642 9.70991 38.0642 7.31978 38.5497 5.04168C39.2593 1.86729 41.3506 0.896299 42.8071 0.896299C44.3383 0.896299 46.3176 1.90464 47.0272 4.96699C47.5127 7.09571 47.55 9.59788 47.55 12.5855C47.55 15.013 47.55 18.0007 47.1019 20.2041C46.3176 24.2748 44.1142 24.9844 42.8071 24.9844Z" fill="black"/>
<path d="M74.209 14.6022L66.7399 7.17039C66.2917 6.72224 66.217 6.64755 65.9182 6.64755C65.5448 6.64755 65.1713 6.98366 65.1713 7.39447C65.1713 7.65589 65.246 7.73058 65.6568 8.14139L73.126 15.6479L65.6568 23.1544C65.246 23.5652 65.1713 23.6399 65.1713 23.9013C65.1713 24.3121 65.5448 24.6482 65.9182 24.6482C66.217 24.6482 66.2917 24.5735 66.7399 24.1254L74.1717 16.6936L81.9023 24.4242C81.9769 24.4615 82.2384 24.6482 82.4624 24.6482C82.9106 24.6482 83.2094 24.3121 83.2094 23.9013C83.2094 23.8266 83.2094 23.6772 83.0973 23.4905C83.06 23.4158 77.122 17.5525 75.2547 15.6479L82.089 8.81361C82.2757 8.58954 82.8359 8.10404 83.0226 7.87996C83.06 7.80527 83.2094 7.65589 83.2094 7.39447C83.2094 6.98366 82.9106 6.64755 82.4624 6.64755C82.1637 6.64755 82.0143 6.79693 81.6035 7.20774L74.209 14.6022Z" fill="black"/>
<path d="M112.713 12.9963C112.713 10.7183 112.675 6.83428 111.107 3.84662C109.725 1.23241 107.522 0.298767 105.58 0.298767C103.787 0.298767 101.509 1.12037 100.09 3.80927C98.5959 6.61021 98.4465 10.0834 98.4465 12.9963C98.4465 15.1251 98.4839 18.3741 99.6416 21.2124C101.247 25.059 104.123 25.5819 105.58 25.5819C107.297 25.5819 109.912 24.8723 111.443 21.3245C112.563 18.7476 112.713 15.7226 112.713 12.9963ZM105.58 24.9844C103.189 24.9844 101.77 22.9303 101.247 20.0921C100.837 17.8887 100.837 14.6769 100.837 12.5855C100.837 9.70991 100.837 7.31978 101.322 5.04168C102.032 1.86729 104.123 0.896299 105.58 0.896299C107.111 0.896299 109.09 1.90464 109.8 4.96699C110.285 7.09571 110.323 9.59788 110.323 12.5855C110.323 15.013 110.323 18.0007 109.874 20.2041C109.09 24.2748 106.887 24.9844 105.58 24.9844Z" fill="black"/>
<path d="M121.437 25.1337C121.437 22.9677 120.728 21.3618 119.197 21.3618C118.001 21.3618 117.404 22.3328 117.404 23.1544C117.404 23.976 117.964 24.9844 119.234 24.9844C119.719 24.9844 120.13 24.835 120.466 24.4989C120.541 24.4242 120.578 24.4242 120.616 24.4242C120.69 24.4242 120.69 24.947 120.69 25.1337C120.69 26.3662 120.466 28.7936 118.3 31.2211C117.889 31.6693 117.889 31.744 117.889 31.8186C117.889 32.0054 118.076 32.1921 118.263 32.1921C118.562 32.1921 121.437 29.4285 121.437 25.1337Z" fill="black"/>
<path d="M140.471 1.12037C140.471 0.336111 140.433 0.298767 139.911 0.298767C138.454 2.05402 136.251 2.61421 134.159 2.6889C134.047 2.6889 133.861 2.6889 133.823 2.76359C133.786 2.83828 133.786 2.91297 133.786 3.69724C134.944 3.69724 136.886 3.47316 138.379 2.57686V22.2581C138.379 23.5652 138.305 24.0134 135.093 24.0134H133.973V24.9844C135.765 24.947 137.633 24.9097 139.425 24.9097C141.218 24.9097 143.085 24.947 144.878 24.9844V24.0134H143.757C140.545 24.0134 140.471 23.6026 140.471 22.2581V1.12037Z" fill="black"/>
<path d="M151.922 3.13706C152.295 3.28644 153.826 3.77194 155.395 3.77194C158.868 3.77194 160.773 1.90465 161.856 0.821616C161.856 0.52285 161.856 0.336121 161.632 0.336121C161.594 0.336121 161.52 0.33612 161.221 0.485503C159.914 1.04569 158.383 1.49384 156.515 1.49384C155.395 1.49384 153.714 1.34446 151.884 0.52285C151.474 0.336122 151.399 0.336121 151.361 0.336121C151.175 0.336121 151.137 0.373466 151.137 1.12038V11.9507C151.137 12.6229 151.137 12.8096 151.511 12.8096C151.698 12.8096 151.772 12.7349 151.959 12.4735C153.154 10.793 154.797 10.0834 156.665 10.0834C157.972 10.0834 160.773 10.905 160.773 17.2911C160.773 18.4862 160.773 20.6523 159.652 22.3702C158.719 23.9013 157.262 24.6856 155.656 24.6856C153.191 24.6856 150.689 22.9677 150.017 20.0921C150.166 20.1294 150.465 20.2041 150.615 20.2041C151.1 20.2041 152.034 19.9427 152.034 18.785C152.034 17.7766 151.324 17.3658 150.615 17.3658C149.756 17.3658 149.195 17.8887 149.195 18.9343C149.195 22.1834 151.772 25.5819 155.731 25.5819C159.578 25.5819 163.237 22.2581 163.237 17.4405C163.237 12.959 160.324 9.48585 156.702 9.48585C154.797 9.48585 153.191 10.1954 151.922 11.5399V3.13706Z" fill="black"/>
<path d="M199.179 12.9963C199.739 12.9963 200.299 12.9963 200.299 12.3615C200.299 11.6892 199.664 11.6892 199.03 11.6892H178.153C177.518 11.6892 176.883 11.6892 176.883 12.3615C176.883 12.9963 177.444 12.9963 178.004 12.9963H199.179ZM199.03 19.6439C199.664 19.6439 200.299 19.6439 200.299 18.9717C200.299 18.3368 199.739 18.3368 199.179 18.3368H178.004C177.444 18.3368 176.883 18.3368 176.883 18.9717C176.883 19.6439 177.518 19.6439 178.153 19.6439H199.03Z" fill="black"/>
<path d="M224.97 0.821608C224.97 0.0373454 224.933 0 224.261 0L213.169 17.6646V18.6356H222.804V22.2955C222.804 23.6399 222.73 24.0134 220.116 24.0134H219.406V24.9844C220.601 24.9097 222.618 24.9097 223.887 24.9097C225.157 24.9097 227.174 24.9097 228.369 24.9844V24.0134H227.659C225.045 24.0134 224.97 23.6399 224.97 22.2955V18.6356H228.78V17.6646H224.97V0.821608ZM222.916 3.28643V17.6646H213.916L222.916 3.28643Z" fill="black"/>
<path d="M233.807 3.13706C234.181 3.28644 235.712 3.77194 237.28 3.77194C240.753 3.77194 242.658 1.90465 243.741 0.821616C243.741 0.52285 243.741 0.336121 243.517 0.336121C243.48 0.336121 243.405 0.33612 243.106 0.485503C241.799 1.04569 240.268 1.49384 238.401 1.49384C237.28 1.49384 235.6 1.34446 233.77 0.52285C233.359 0.336122 233.284 0.336121 233.247 0.336121C233.06 0.336121 233.023 0.373466 233.023 1.12038V11.9507C233.023 12.6229 233.023 12.8096 233.396 12.8096C233.583 12.8096 233.658 12.7349 233.844 12.4735C235.039 10.793 236.683 10.0834 238.55 10.0834C239.857 10.0834 242.658 10.905 242.658 17.2911C242.658 18.4862 242.658 20.6523 241.538 22.3702C240.604 23.9013 239.148 24.6856 237.542 24.6856C235.077 24.6856 232.575 22.9677 231.902 20.0921C232.052 20.1294 232.351 20.2041 232.5 20.2041C232.985 20.2041 233.919 19.9427 233.919 18.785C233.919 17.7766 233.21 17.3658 232.5 17.3658C231.641 17.3658 231.081 17.8887 231.081 18.9343C231.081 22.1834 233.658 25.5819 237.616 25.5819C241.463 25.5819 245.123 22.2581 245.123 17.4405C245.123 12.959 242.21 9.48585 238.587 9.48585C236.683 9.48585 235.077 10.1954 233.807 11.5399V3.13706Z" fill="black"/>
</g>
<g clip-path="url(#clip1_1_257)">
<path d="M8.25344 61.2868C11.5772 61.2868 13.0337 64.1624 13.0337 67.4862C13.0337 71.9677 10.6436 73.6856 8.47751 73.6856C6.49818 73.6856 3.28644 72.7146 2.2781 69.839C2.46483 69.9137 2.65156 69.9137 2.83829 69.9137C3.73459 69.9137 4.40682 69.3161 4.40682 68.3451C4.40682 67.2621 3.58521 66.7766 2.83829 66.7766C2.20341 66.7766 1.23242 67.0754 1.23242 68.4572C1.23242 71.893 4.59355 74.5819 8.5522 74.5819C12.6976 74.5819 15.872 71.3328 15.872 67.5235C15.872 63.901 12.8843 61.2868 9.33646 60.876C12.1747 60.2784 14.901 57.7389 14.901 54.3405C14.901 51.4275 11.9507 49.2988 8.58955 49.2988C5.19108 49.2988 2.20341 51.3901 2.20341 54.3778C2.20341 55.6849 3.17441 55.909 3.6599 55.909C4.44416 55.909 5.11639 55.4235 5.11639 54.4525C5.11639 53.4815 4.44416 52.996 3.6599 52.996C3.51052 52.996 3.32379 52.996 3.17441 53.0707C4.25743 50.6059 7.20775 50.1577 8.51486 50.1577C9.82196 50.1577 12.2868 50.7926 12.2868 54.3778C12.2868 55.4235 12.1374 57.2908 10.8676 58.934C9.74727 60.3905 8.47751 60.4652 7.2451 60.5772C7.05837 60.5772 6.19942 60.6519 6.05003 60.6519C5.78861 60.6892 5.63923 60.7266 5.63923 60.988C5.63923 61.2494 5.67657 61.2868 6.42349 61.2868H8.25344Z" fill="black"/>
<path d="M32.8127 61.9963C32.8127 59.7183 32.7754 55.8343 31.2069 52.8466C29.8251 50.2324 27.6217 49.2988 25.6797 49.2988C23.8871 49.2988 21.609 50.1204 20.1898 52.8093C18.696 55.6102 18.5466 59.0834 18.5466 61.9963C18.5466 64.1251 18.584 67.3741 19.7417 70.2124C21.3476 74.059 24.2232 74.5819 25.6797 74.5819C27.3976 74.5819 30.0118 73.8723 31.543 70.3245C32.6634 67.7476 32.8127 64.7226 32.8127 61.9963ZM25.6797 73.9844C23.2896 73.9844 21.8704 71.9303 21.3476 69.0921C20.9368 66.8887 20.9368 63.6769 20.9368 61.5855C20.9368 58.7099 20.9368 56.3198 21.4223 54.0417C22.1318 50.8673 24.2232 49.8963 25.6797 49.8963C27.2109 49.8963 29.1902 50.9046 29.8998 53.967C30.3853 56.0957 30.4226 58.5979 30.4226 61.5855C30.4226 64.013 30.4226 67.0007 29.9745 69.2041C29.1902 73.2748 26.9868 73.9844 25.6797 73.9844Z" fill="black"/>
<path d="M49.9402 61.9963C49.9402 59.7183 49.9028 55.8343 48.3343 52.8466C46.9525 50.2324 44.7491 49.2988 42.8071 49.2988C41.0145 49.2988 38.7364 50.1204 37.3173 52.8093C35.8235 55.6102 35.6741 59.0834 35.6741 61.9963C35.6741 64.1251 35.7114 67.3741 36.8691 70.2124C38.475 74.059 41.3506 74.5819 42.8071 74.5819C44.525 74.5819 47.1392 73.8723 48.6704 70.3245C49.7908 67.7476 49.9402 64.7226 49.9402 61.9963ZM42.8071 73.9844C40.417 73.9844 38.9979 71.9303 38.475 69.0921C38.0642 66.8887 38.0642 63.6769 38.0642 61.5855C38.0642 58.7099 38.0642 56.3198 38.5497 54.0417C39.2593 50.8673 41.3506 49.8963 42.8071 49.8963C44.3383 49.8963 46.3176 50.9046 47.0272 53.967C47.5127 56.0957 47.55 58.5979 47.55 61.5855C47.55 64.013 47.55 67.0007 47.1019 69.2041C46.3176 73.2748 44.1142 73.9844 42.8071 73.9844Z" fill="black"/>
<path d="M84.2924 65.3948C84.9273 65.3948 85.5995 65.3948 85.5995 64.6479C85.5995 63.901 84.9273 63.901 84.2924 63.901H64.0883C63.4534 63.901 62.7812 63.901 62.7812 64.6479C62.7812 65.3948 63.4534 65.3948 64.0883 65.3948H84.2924Z" fill="black"/>
<path d="M109.576 49.8216C109.576 49.0373 109.538 49 108.866 49L97.7743 66.6646V67.6356H107.41V71.2955C107.41 72.6399 107.335 73.0134 104.721 73.0134H104.011V73.9844C105.206 73.9097 107.223 73.9097 108.493 73.9097C109.762 73.9097 111.779 73.9097 112.974 73.9844V73.0134H112.264C109.65 73.0134 109.576 72.6399 109.576 71.2955V67.6356H113.385V66.6646H109.576V49.8216ZM107.522 52.2864V66.6646H98.5212L107.522 52.2864Z" fill="black"/>
<path d="M118.412 52.1371C118.786 52.2864 120.317 52.7719 121.885 52.7719C125.359 52.7719 127.263 50.9046 128.346 49.8216C128.346 49.5228 128.346 49.3361 128.122 49.3361C128.085 49.3361 128.01 49.3361 127.711 49.4855C126.404 50.0457 124.873 50.4938 123.006 50.4938C121.885 50.4938 120.205 50.3445 118.375 49.5229C117.964 49.3361 117.889 49.3361 117.852 49.3361C117.665 49.3361 117.628 49.3735 117.628 50.1204V60.9507C117.628 61.6229 117.628 61.8096 118.001 61.8096C118.188 61.8096 118.263 61.7349 118.45 61.4735C119.645 59.793 121.288 59.0834 123.155 59.0834C124.462 59.0834 127.263 59.905 127.263 66.2911C127.263 67.4862 127.263 69.6523 126.143 71.3702C125.209 72.9013 123.753 73.6856 122.147 73.6856C119.682 73.6856 117.18 71.9677 116.508 69.0921C116.657 69.1294 116.956 69.2041 117.105 69.2041C117.591 69.2041 118.524 68.9427 118.524 67.785C118.524 66.7766 117.815 66.3658 117.105 66.3658C116.246 66.3658 115.686 66.8887 115.686 67.9343C115.686 71.1834 118.263 74.5819 122.222 74.5819C126.068 74.5819 129.728 71.2581 129.728 66.4405C129.728 61.959 126.815 58.4858 123.193 58.4858C121.288 58.4858 119.682 59.1954 118.412 60.5399V52.1371Z" fill="black"/>
<path d="M165.669 61.9963C166.23 61.9963 166.79 61.9963 166.79 61.3615C166.79 60.6892 166.155 60.6892 165.52 60.6892H144.644C144.009 60.6892 143.374 60.6892 143.374 61.3615C143.374 61.9963 143.934 61.9963 144.494 61.9963H165.669ZM165.52 68.6439C166.155 68.6439 166.79 68.6439 166.79 67.9717C166.79 67.3368 166.23 67.3368 165.669 67.3368H144.494C143.934 67.3368 143.374 67.3368 143.374 67.9717C143.374 68.6439 144.009 68.6439 144.644 68.6439H165.52Z" fill="black"/>
<path d="M194.486 68.1958H193.814C193.44 70.8473 193.142 71.2955 192.992 71.5195C192.805 71.8183 190.117 71.8183 189.594 71.8183H182.423C183.768 70.3618 186.382 67.7103 189.556 64.6479C191.834 62.4818 194.486 59.9423 194.486 56.2451C194.486 51.8383 190.975 49.2988 187.054 49.2988C182.946 49.2988 180.444 52.9213 180.444 56.2824C180.444 57.7389 181.527 57.9257 181.975 57.9257C182.349 57.9257 183.469 57.7016 183.469 56.3945C183.469 55.2368 182.498 54.9006 181.975 54.9006C181.751 54.9006 181.527 54.938 181.378 55.0127C182.087 51.8383 184.253 50.2698 186.531 50.2698C189.78 50.2698 191.909 52.8466 191.909 56.2451C191.909 59.4942 190.005 62.2951 187.876 64.7226L180.444 73.1254V73.9844H193.59L194.486 68.1958Z" fill="black"/>
<path d="M200.298 52.1371C200.671 52.2864 202.202 52.7719 203.771 52.7719C207.244 52.7719 209.149 50.9046 210.232 49.8216C210.232 49.5228 210.232 49.3361 210.008 49.3361C209.97 49.3361 209.896 49.3361 209.597 49.4855C208.29 50.0457 206.759 50.4938 204.891 50.4938C203.771 50.4938 202.09 50.3445 200.26 49.5229C199.85 49.3361 199.775 49.3361 199.738 49.3361C199.551 49.3361 199.514 49.3735 199.514 50.1204V60.9507C199.514 61.6229 199.514 61.8096 199.887 61.8096C200.074 61.8096 200.148 61.7349 200.335 61.4735C201.53 59.793 203.173 59.0834 205.041 59.0834C206.348 59.0834 209.149 59.905 209.149 66.2911C209.149 67.4862 209.149 69.6523 208.028 71.3702C207.095 72.9013 205.638 73.6856 204.032 73.6856C201.568 73.6856 199.065 71.9677 198.393 69.0921C198.543 69.1294 198.841 69.2041 198.991 69.2041C199.476 69.2041 200.41 68.9427 200.41 67.785C200.41 66.7766 199.7 66.3658 198.991 66.3658C198.132 66.3658 197.572 66.8887 197.572 67.9343C197.572 71.1834 200.148 74.5819 204.107 74.5819C207.954 74.5819 211.614 71.2581 211.614 66.4405C211.614 61.959 208.701 58.4858 205.078 58.4858C203.173 58.4858 201.568 59.1954 200.298 60.5399V52.1371Z" fill="black"/>
<path d="M217.425 52.1371C217.799 52.2864 219.33 52.7719 220.898 52.7719C224.372 52.7719 226.276 50.9046 227.359 49.8216C227.359 49.5228 227.359 49.3361 227.135 49.3361C227.098 49.3361 227.023 49.3361 226.724 49.4855C225.417 50.0457 223.886 50.4938 222.019 50.4938C220.898 50.4938 219.218 50.3445 217.388 49.5229C216.977 49.3361 216.902 49.3361 216.865 49.3361C216.678 49.3361 216.641 49.3735 216.641 50.1204V60.9507C216.641 61.6229 216.641 61.8096 217.014 61.8096C217.201 61.8096 217.276 61.7349 217.463 61.4735C218.658 59.793 220.301 59.0834 222.168 59.0834C223.475 59.0834 226.276 59.905 226.276 66.2911C226.276 67.4862 226.276 69.6523 225.156 71.3702C224.222 72.9013 222.766 73.6856 221.16 73.6856C218.695 73.6856 216.193 71.9677 215.521 69.0921C215.67 69.1294 215.969 69.2041 216.118 69.2041C216.604 69.2041 217.537 68.9427 217.537 67.785C217.537 66.7766 216.828 66.3658 216.118 66.3658C215.259 66.3658 214.699 66.8887 214.699 67.9343C214.699 71.1834 217.276 74.5819 221.234 74.5819C225.081 74.5819 228.741 71.2581 228.741 66.4405C228.741 61.959 225.828 58.4858 222.205 58.4858C220.301 58.4858 218.695 59.1954 217.425 60.5399V52.1371Z" fill="black"/>
</g>
<defs>
<clipPath id="clip0_1_257">
<rect width="245.123" height="32.1921" fill="white"/>
</clipPath>
<clipPath id="clip1_1_257">
<rect width="228.741" height="25.5819" fill="white" transform="translate(0 49)"/>
</clipPath>
</defs>
</svg>
