<svg width="229" height="78" viewBox="0 0 229 78" fill="none" xmlns="http://www.w3.org/2000/svg">
<path d="M6.34881 22.5195C5.0417 24.7229 3.77194 25.4699 1.97935 25.5819C1.56854 25.6192 1.26978 25.6192 1.26978 26.2915C1.26978 26.5155 1.4565 26.6649 1.71792 26.6649C2.39015 26.6649 4.07071 26.5902 4.74294 26.5902C5.82597 26.5902 7.02103 26.6649 8.06672 26.6649C8.29079 26.6649 8.73894 26.6649 8.73894 25.9553C8.73894 25.6192 8.44017 25.5819 8.2161 25.5819C7.35715 25.5072 6.64757 25.2084 6.64757 24.3121C6.64757 23.7893 6.87165 23.3785 7.35715 22.5569L10.1954 17.8513H19.7186C19.756 18.1874 19.756 18.4862 19.7933 18.8223C19.9053 19.7933 20.3535 23.6773 20.3535 24.3868C20.3535 25.5072 18.4489 25.5819 17.8513 25.5819C17.4405 25.5819 17.0297 25.5819 17.0297 26.2541C17.0297 26.6649 17.3658 26.6649 17.5899 26.6649C18.2248 26.6649 18.9717 26.5902 19.6066 26.5902H21.7353C24.0134 26.5902 25.6566 26.6649 25.6939 26.6649C25.9554 26.6649 26.3662 26.6649 26.3662 25.9553C26.3662 25.5819 26.0301 25.5819 25.4699 25.5819C23.4159 25.5819 23.3785 25.2458 23.2665 24.1254L20.9884 0.821608C20.9137 0.0746912 20.7643 0 20.3535 0C19.98 0 19.756 0.074693 19.4198 0.634881L6.34881 22.5195ZM10.8303 16.7683L18.3368 4.22008L19.6066 16.7683H10.8303Z" fill="black"/>
<path d="M60.3226 18.0754C60.9575 18.0754 61.6297 18.0754 61.6297 17.3285C61.6297 16.5815 60.9575 16.5815 60.3226 16.5815H40.1185C39.4836 16.5815 38.8114 16.5815 38.8114 17.3285C38.8114 18.0754 39.4836 18.0754 40.1185 18.0754H60.3226Z" fill="black"/>
<path d="M86.7262 3.69723C87.0623 2.31544 87.2117 2.24074 88.6682 2.24074H93.5231C97.7432 2.24074 97.7432 5.82594 97.7432 6.16206C97.7432 9.18707 94.7182 13.0337 89.7885 13.0337H84.4108L86.7262 3.69723ZM93.0376 13.3325C97.1083 12.5855 100.806 9.74726 100.806 6.31144C100.806 3.39847 98.2287 1.15771 94.0086 1.15771H82.0206C81.311 1.15771 80.9749 1.15772 80.9749 1.86729C80.9749 2.24074 81.311 2.24074 81.8712 2.24074C84.1493 2.24074 84.1493 2.53951 84.1493 2.95031C84.1493 3.02501 84.1493 3.24908 83.9999 3.80927L78.9583 23.9013C78.6221 25.2084 78.5475 25.5819 75.9332 25.5819C75.2237 25.5819 74.8502 25.5819 74.8502 26.2541C74.8502 26.6649 75.0743 26.6649 75.8212 26.6649H88.6308C94.3447 26.6649 98.7515 22.3328 98.7515 18.5609C98.7515 15.4985 96.0626 13.6312 93.0376 13.3325ZM87.7345 25.5819H82.6928C82.17 25.5819 82.0953 25.5819 81.8712 25.5445C81.4604 25.5072 81.4231 25.4325 81.4231 25.1337C81.4231 24.8723 81.4978 24.6482 81.5725 24.3121L84.1867 13.7806H91.2077C95.6145 13.7806 95.6145 17.8886 95.6145 18.1874C95.6145 21.7726 92.3654 25.5819 87.7345 25.5819Z" fill="black"/>
<path d="M102.722 41.8463H0V43.3401H102.722V41.8463Z" fill="black"/>
<path d="M50.1974 54.5793C50.5335 53.1975 50.6829 53.1229 52.1394 53.1229H56.9943C61.2144 53.1229 61.2144 56.7081 61.2144 57.0442C61.2144 60.0692 58.1894 63.9158 53.2597 63.9158H47.8819L50.1974 54.5793ZM56.5088 64.2146C60.5795 63.4676 64.2768 60.6294 64.2768 57.1936C64.2768 54.2806 61.6999 52.0398 57.4798 52.0398H45.4918C44.7822 52.0398 44.4461 52.0398 44.4461 52.7494C44.4461 53.1229 44.7822 53.1229 45.3424 53.1229C47.6205 53.1229 47.6205 53.4216 47.6205 53.8324C47.6205 53.9071 47.6205 54.1312 47.4711 54.6914L42.4295 74.7834C42.0933 76.0905 42.0186 76.464 39.4044 76.464C38.6949 76.464 38.3214 76.464 38.3214 77.1362C38.3214 77.547 38.5455 77.547 39.2924 77.547H52.102C57.8159 77.547 62.2227 73.2149 62.2227 69.443C62.2227 66.3806 59.5338 64.5133 56.5088 64.2146ZM51.2057 76.464H46.164C45.6412 76.464 45.5665 76.464 45.3424 76.4266C44.9316 76.3893 44.8943 76.3146 44.8943 76.0158C44.8943 75.7544 44.969 75.5303 45.0437 75.1942L47.6579 64.6627H54.6789C59.0857 64.6627 59.0857 68.7708 59.0857 69.0695C59.0857 72.6547 55.8366 76.464 51.2057 76.464Z" fill="black"/>
<path d="M127.35 41.5475L119.881 34.1157C119.433 33.6675 119.358 33.5928 119.059 33.5928C118.686 33.5928 118.312 33.929 118.312 34.3398C118.312 34.6012 118.387 34.6759 118.798 35.0867L126.267 42.5932L118.798 50.0997C118.387 50.5105 118.312 50.5852 118.312 50.8466C118.312 51.2574 118.686 51.5935 119.059 51.5935C119.358 51.5935 119.433 51.5188 119.881 51.0707L127.313 43.6389L135.043 51.3695C135.118 51.4068 135.379 51.5935 135.603 51.5935C136.052 51.5935 136.35 51.2574 136.35 50.8466C136.35 50.7719 136.35 50.6225 136.238 50.4358C136.201 50.3611 130.263 44.4978 128.396 42.5932L135.23 35.7589C135.417 35.5348 135.977 35.0493 136.164 34.8253C136.201 34.7506 136.35 34.6012 136.35 34.3398C136.35 33.929 136.052 33.5928 135.603 33.5928C135.305 33.5928 135.155 33.7422 134.744 34.153L127.35 41.5475Z" fill="black"/>
<path d="M160.102 28.0657C160.102 27.2814 160.065 27.2441 159.542 27.2441C158.086 28.9993 155.882 29.5595 153.791 29.6342C153.679 29.6342 153.492 29.6342 153.455 29.7089C153.417 29.7836 153.417 29.8583 153.417 30.6425C154.575 30.6425 156.517 30.4185 158.011 29.5222V49.2034C158.011 50.5105 157.936 50.9587 154.725 50.9587H153.604V51.9297C155.397 51.8923 157.264 51.855 159.057 51.855C160.849 51.855 162.717 51.8923 164.509 51.9297V50.9587H163.389C160.177 50.9587 160.102 50.5479 160.102 49.2034V28.0657Z" fill="black"/>
<path d="M182.981 39.9416C182.981 37.6635 182.944 33.7796 181.375 30.7919C179.993 28.1777 177.79 27.2441 175.848 27.2441C174.055 27.2441 171.777 28.0657 170.358 30.7546C168.864 33.5555 168.715 37.0287 168.715 39.9416C168.715 42.0704 168.752 45.3194 169.91 48.1577C171.516 52.0043 174.392 52.5272 175.848 52.5272C177.566 52.5272 180.18 51.8176 181.711 48.2698C182.832 45.6929 182.981 42.6679 182.981 39.9416ZM175.848 51.9297C173.458 51.9297 172.039 49.8756 171.516 47.0374C171.105 44.834 171.105 41.6222 171.105 39.5308C171.105 36.6552 171.105 34.2651 171.591 31.987C172.3 28.8126 174.392 27.8416 175.848 27.8416C177.379 27.8416 179.359 28.8499 180.068 31.9123C180.554 34.041 180.591 36.5432 180.591 39.5308C180.591 41.9583 180.591 44.946 180.143 47.1494C179.359 51.2201 177.155 51.9297 175.848 51.9297Z" fill="black"/>
<path d="M200.109 39.9416C200.109 37.6635 200.071 33.7796 198.503 30.7919C197.121 28.1777 194.917 27.2441 192.975 27.2441C191.183 27.2441 188.905 28.0657 187.486 30.7546C185.992 33.5555 185.842 37.0287 185.842 39.9416C185.842 42.0704 185.88 45.3194 187.037 48.1577C188.643 52.0043 191.519 52.5272 192.975 52.5272C194.693 52.5272 197.308 51.8176 198.839 48.2698C199.959 45.6929 200.109 42.6679 200.109 39.9416ZM192.975 51.9297C190.585 51.9297 189.166 49.8756 188.643 47.0374C188.233 44.834 188.233 41.6222 188.233 39.5308C188.233 36.6552 188.233 34.2651 188.718 31.987C189.428 28.8126 191.519 27.8416 192.975 27.8416C194.507 27.8416 196.486 28.8499 197.196 31.9123C197.681 34.041 197.718 36.5432 197.718 39.5308C197.718 41.9583 197.718 44.946 197.27 47.1494C196.486 51.2201 194.283 51.9297 192.975 51.9297Z" fill="black"/>
<path d="M228.626 46.4772C228.626 42.1451 226.498 38.9707 223.996 38.9707C221.456 38.9707 218.879 41.921 218.879 46.4772C218.879 51.0334 221.419 53.9837 223.996 53.9837C226.498 53.9837 228.626 50.8466 228.626 46.4772ZM224.033 53.3862C223.062 53.3862 220.634 52.4899 220.634 46.4772C220.634 40.4272 223.062 39.5682 224.033 39.5682C226.087 39.5682 227.954 42.5185 227.954 46.4772C227.954 50.4358 226.087 53.3862 224.033 53.3862ZM225.377 25.2647C225.639 24.8539 225.676 24.8166 225.676 24.6299C225.676 24.1817 225.34 23.9576 225.041 23.9576C224.668 23.9576 224.518 24.2191 224.257 24.5178C222.091 27.6175 219.103 27.9536 217.572 27.9536C213.838 27.9536 211.559 25.7876 210.85 25.1154C210.364 24.6672 209.655 23.9576 208.385 23.9576C205.846 23.9576 203.269 26.908 203.269 31.4642C203.269 36.0203 205.808 38.9707 208.385 38.9707C210.887 38.9707 213.016 35.8336 213.016 31.4642C213.016 28.8873 212.232 27.132 212.12 26.908C214.398 28.3644 216.638 28.5512 217.609 28.5512C220 28.5512 221.718 27.6549 222.651 27.02L222.689 27.0573L206.555 52.6019C206.219 53.1247 206.219 53.1994 206.219 53.3115C206.219 53.7223 206.555 53.9837 206.891 53.9837C207.227 53.9837 207.339 53.797 207.601 53.3862L225.377 25.2647ZM208.422 38.3731C207.451 38.3731 205.024 37.4768 205.024 31.4642C205.024 25.4141 207.451 24.5552 208.422 24.5552C210.476 24.5552 212.344 27.5055 212.344 31.4642C212.344 35.4228 210.476 38.3731 208.422 38.3731Z" fill="black"/>
</svg>
