<svg width="415" height="77" viewBox="0 0 415 77" fill="none" xmlns="http://www.w3.org/2000/svg">
<g clip-path="url(#clip0_1_334)">
<path d="M15.5733 18.897H14.9011C14.5276 21.5485 14.2288 21.9967 14.0794 22.2208C13.8927 22.5195 11.2038 22.5195 10.681 22.5195H3.51058C4.85503 21.063 7.46924 18.4115 10.6436 15.3491C12.9217 13.1831 15.5733 10.6436 15.5733 6.94632C15.5733 2.53951 12.0628 0 8.14146 0C4.03342 0 1.53125 3.62254 1.53125 6.98367C1.53125 8.44016 2.61428 8.62688 3.06243 8.62688C3.43589 8.62688 4.55626 8.40281 4.55626 7.09571C4.55626 5.93798 3.58527 5.60187 3.06243 5.60187C2.83835 5.60187 2.61428 5.63922 2.4649 5.71391C3.17447 2.53951 5.34053 0.970989 7.61862 0.970989C10.8677 0.970989 12.9964 3.54785 12.9964 6.94632C12.9964 10.1954 11.0918 12.9963 8.96307 15.4238L1.53125 23.8266V24.6856H14.677L15.5733 18.897Z" fill="black"/>
<path d="M32.8127 12.6976C32.8127 10.4195 32.7754 6.53552 31.2069 3.54785C29.8251 0.933643 27.6217 0 25.6797 0C23.8871 0 21.609 0.821606 20.1898 3.51051C18.696 6.31144 18.5466 9.78461 18.5466 12.6976C18.5466 14.8263 18.584 18.0754 19.7417 20.9137C21.3476 24.7603 24.2232 25.2831 25.6797 25.2831C27.3976 25.2831 30.0118 24.5736 31.543 21.0257C32.6634 18.4488 32.8127 15.4238 32.8127 12.6976ZM25.6797 24.6856C23.2896 24.6856 21.8704 22.6316 21.3476 19.7933C20.9368 17.5899 20.9368 14.3781 20.9368 12.2868C20.9368 9.41115 20.9368 7.02101 21.4223 4.74292C22.1318 1.56852 24.2232 0.597532 25.6797 0.597532C27.2109 0.597532 29.1902 1.60587 29.8998 4.66823C30.3853 6.79694 30.4226 9.29911 30.4226 12.2868C30.4226 14.7143 30.4226 17.7019 29.9745 19.9053C29.1902 23.976 26.9868 24.6856 25.6797 24.6856Z" fill="black"/>
<path d="M49.9402 12.6976C49.9402 10.4195 49.9028 6.53552 48.3343 3.54785C46.9525 0.933643 44.7491 0 42.8071 0C41.0145 0 38.7364 0.821606 37.3173 3.51051C35.8235 6.31144 35.6741 9.78461 35.6741 12.6976C35.6741 14.8263 35.7114 18.0754 36.8691 20.9137C38.475 24.7603 41.3506 25.2831 42.8071 25.2831C44.525 25.2831 47.1392 24.5736 48.6704 21.0257C49.7908 18.4488 49.9402 15.4238 49.9402 12.6976ZM42.8071 24.6856C40.417 24.6856 38.9979 22.6316 38.475 19.7933C38.0642 17.5899 38.0642 14.3781 38.0642 12.2868C38.0642 9.41115 38.0642 7.02101 38.5497 4.74292C39.2593 1.56852 41.3506 0.597532 42.8071 0.597532C44.3383 0.597532 46.3176 1.60587 47.0272 4.66823C47.5127 6.79694 47.55 9.29911 47.55 12.2868C47.55 14.7143 47.55 17.7019 47.1019 19.9053C46.3176 23.976 44.1142 24.6856 42.8071 24.6856Z" fill="black"/>
<path d="M84.2924 16.096C84.9273 16.096 85.5996 16.096 85.5996 15.3491C85.5996 14.6022 84.9273 14.6022 84.2924 14.6022H64.0884C63.4535 14.6022 62.7812 14.6022 62.7812 15.3491C62.7812 16.096 63.4535 16.096 64.0884 16.096H84.2924Z" fill="black"/>
<path d="M112.601 18.897H111.928C111.555 21.5485 111.256 21.9967 111.107 22.2208C110.92 22.5195 108.231 22.5195 107.708 22.5195H100.538C101.882 21.063 104.497 18.4115 107.671 15.3491C109.949 13.1831 112.601 10.6436 112.601 6.94632C112.601 2.53951 109.09 0 105.169 0C101.061 0 98.5586 3.62254 98.5586 6.98367C98.5586 8.44016 99.6416 8.62688 100.09 8.62688C100.463 8.62688 101.584 8.40281 101.584 7.09571C101.584 5.93798 100.613 5.60187 100.09 5.60187C99.8657 5.60187 99.6416 5.63922 99.4922 5.71391C100.202 2.53951 102.368 0.970989 104.646 0.970989C107.895 0.970989 110.024 3.54785 110.024 6.94632C110.024 10.1954 108.119 12.9963 105.99 15.4238L98.5586 23.8266V24.6856H111.704L112.601 18.897Z" fill="black"/>
<path d="M118.412 2.83829C118.786 2.98767 120.317 3.47317 121.885 3.47317C125.359 3.47317 127.263 1.60588 128.346 0.522849C128.346 0.224083 128.346 0.0373535 128.122 0.0373535C128.085 0.0373535 128.01 0.0373532 127.711 0.186736C126.404 0.746924 124.873 1.19507 123.006 1.19507C121.885 1.19507 120.205 1.04569 118.375 0.224083C117.964 0.0373546 117.889 0.0373535 117.852 0.0373535C117.665 0.0373535 117.628 0.074699 117.628 0.821615V11.6519C117.628 12.3241 117.628 12.5109 118.001 12.5109C118.188 12.5109 118.263 12.4362 118.45 12.1747C119.645 10.4942 121.288 9.78461 123.155 9.78461C124.462 9.78461 127.263 10.6062 127.263 16.9924C127.263 18.1874 127.263 20.3535 126.143 22.0714C125.209 23.6026 123.753 24.3868 122.147 24.3868C119.682 24.3868 117.18 22.6689 116.508 19.7933C116.657 19.8306 116.956 19.9053 117.105 19.9053C117.591 19.9053 118.524 19.6439 118.524 18.4862C118.524 17.4779 117.815 17.0671 117.105 17.0671C116.246 17.0671 115.686 17.5899 115.686 18.6356C115.686 21.8847 118.263 25.2831 122.222 25.2831C126.068 25.2831 129.728 21.9594 129.728 17.1417C129.728 12.6602 126.815 9.18708 123.193 9.18708C121.288 9.18708 119.682 9.89665 118.412 11.2411V2.83829Z" fill="black"/>
<path d="M146.968 12.6976C146.968 10.4195 146.93 6.53552 145.362 3.54785C143.98 0.933643 141.776 0 139.834 0C138.042 0 135.764 0.821606 134.345 3.51051C132.851 6.31144 132.701 9.78461 132.701 12.6976C132.701 14.8263 132.739 18.0754 133.896 20.9137C135.502 24.7603 138.378 25.2831 139.834 25.2831C141.552 25.2831 144.167 24.5736 145.698 21.0257C146.818 18.4488 146.968 15.4238 146.968 12.6976ZM139.834 24.6856C137.444 24.6856 136.025 22.6316 135.502 19.7933C135.092 17.5899 135.092 14.3781 135.092 12.2868C135.092 9.41115 135.092 7.02101 135.577 4.74292C136.287 1.56852 138.378 0.597532 139.834 0.597532C141.366 0.597532 143.345 1.60587 144.055 4.66823C144.54 6.79694 144.577 9.29911 144.577 12.2868C144.577 14.7143 144.577 17.7019 144.129 19.9053C143.345 23.976 141.142 24.6856 139.834 24.6856Z" fill="black"/>
<path d="M148.41 39.867H0V41.3608H148.41V39.867Z" fill="black"/>
<path d="M64.087 69.7791H63.4147C63.0413 72.4307 62.7425 72.8788 62.5931 73.1029C62.4064 73.4017 59.7175 73.4017 59.1946 73.4017H52.0243C53.3687 71.9452 55.9829 69.2936 59.1573 66.2313C61.4354 64.0652 64.087 61.5257 64.087 57.8285C64.087 53.4217 60.5764 50.8821 56.6551 50.8821C52.5471 50.8821 50.0449 54.5047 50.0449 57.8658C50.0449 59.3223 51.128 59.509 51.5761 59.509C51.9496 59.509 53.0699 59.285 53.0699 57.9778C53.0699 56.8201 52.0989 56.484 51.5761 56.484C51.352 56.484 51.128 56.5214 50.9786 56.5961C51.6881 53.4217 53.8542 51.8531 56.1323 51.8531C59.3814 51.8531 61.5101 54.43 61.5101 57.8285C61.5101 61.0775 59.6055 63.8785 57.4767 66.306L50.0449 74.7088V75.5677H63.1907L64.087 69.7791Z" fill="black"/>
<path d="M69.8986 53.7204C70.2721 53.8698 71.8032 54.3553 73.3718 54.3553C76.8449 54.3553 78.7496 52.488 79.8326 51.405C79.8326 51.1062 79.8326 50.9195 79.6085 50.9195C79.5712 50.9195 79.4965 50.9195 79.1977 51.0688C77.8906 51.629 76.3594 52.0772 74.4921 52.0772C73.3718 52.0772 71.6912 51.9278 69.8613 51.1062C69.4505 50.9195 69.3758 50.9195 69.3384 50.9195C69.1517 50.9195 69.1143 50.9568 69.1143 51.7037V62.534C69.1143 63.2062 69.1143 63.393 69.4878 63.393C69.6745 63.393 69.7492 63.3183 69.936 63.0569C71.131 61.3763 72.7742 60.6667 74.6415 60.6667C75.9486 60.6667 78.7496 61.4883 78.7496 67.8745C78.7496 69.0695 78.7496 71.2356 77.6292 72.9535C76.6955 74.4847 75.2391 75.2689 73.6332 75.2689C71.1684 75.2689 68.6662 73.551 67.994 70.6754C68.1434 70.7128 68.4421 70.7874 68.5915 70.7874C69.077 70.7874 70.0106 70.526 70.0106 69.3683C70.0106 68.36 69.3011 67.9492 68.5915 67.9492C67.7326 67.9492 67.1724 68.472 67.1724 69.5177C67.1724 72.7668 69.7492 76.1652 73.7079 76.1652C77.5545 76.1652 81.2144 72.8415 81.2144 68.0239C81.2144 63.5424 78.3014 60.0692 74.6789 60.0692C72.7742 60.0692 71.1684 60.7788 69.8986 62.1232V53.7204Z" fill="black"/>
<path d="M98.4538 63.5797C98.4538 61.3016 98.4165 57.4177 96.848 54.43C95.4662 51.8158 93.2628 50.8821 91.3208 50.8821C89.5282 50.8821 87.2501 51.7037 85.831 54.3926C84.3371 57.1936 84.1877 60.6667 84.1877 63.5797C84.1877 65.7084 84.2251 68.9575 85.3828 71.7958C86.9887 75.6424 89.8643 76.1653 91.3208 76.1653C93.0387 76.1653 95.6529 75.4557 97.1841 71.9078C98.3045 69.331 98.4538 66.306 98.4538 63.5797ZM91.3208 75.5677C88.9307 75.5677 87.5115 73.5137 86.9887 70.6754C86.5779 68.472 86.5779 65.2603 86.5779 63.1689C86.5779 60.2933 86.5779 57.9032 87.0634 55.6251C87.7729 52.4507 89.8643 51.4797 91.3208 51.4797C92.852 51.4797 94.8313 52.488 95.5409 55.5504C96.0264 57.6791 96.0637 60.1813 96.0637 63.1689C96.0637 65.5964 96.0637 68.5841 95.6156 70.7875C94.8313 74.8582 92.6279 75.5677 91.3208 75.5677Z" fill="black"/>
<path d="M173.037 39.5682L165.568 32.1364C165.12 31.6882 165.045 31.6135 164.747 31.6135C164.373 31.6135 164 31.9496 164 32.3604C164 32.6219 164.074 32.6966 164.485 33.1074L171.954 40.6139L164.485 48.1204C164.074 48.5312 164 48.6059 164 48.8673C164 49.2781 164.373 49.6142 164.747 49.6142C165.045 49.6142 165.12 49.5395 165.568 49.0914L173 41.6596L180.731 49.3901C180.805 49.4275 181.067 49.6142 181.291 49.6142C181.739 49.6142 182.038 49.2781 182.038 48.8673C182.038 48.7926 182.038 48.6432 181.926 48.4565C181.888 48.3818 175.95 42.5185 174.083 40.6139L180.917 33.7796C181.104 33.5555 181.664 33.07 181.851 32.8459C181.888 32.7712 182.038 32.6219 182.038 32.3604C182.038 31.9496 181.739 31.6135 181.291 31.6135C180.992 31.6135 180.843 31.7629 180.432 32.1737L173.037 39.5682Z" fill="black"/>
<path d="M205.79 26.0863C205.79 25.3021 205.753 25.2647 205.23 25.2647C203.773 27.02 201.57 27.5802 199.478 27.6549C199.366 27.6549 199.18 27.6549 199.142 27.7296C199.105 27.8043 199.105 27.8789 199.105 28.6632C200.263 28.6632 202.205 28.4391 203.699 27.5428V47.2241C203.699 48.5312 203.624 48.9793 200.412 48.9793H199.292V49.9503C201.084 49.913 202.952 49.8756 204.744 49.8756C206.537 49.8756 208.404 49.913 210.197 49.9503V48.9793H209.076C205.865 48.9793 205.79 48.5685 205.79 47.2241V26.0863Z" fill="black"/>
<path d="M228.669 37.9623C228.669 35.6842 228.631 31.8003 227.063 28.8126C225.681 26.1984 223.478 25.2647 221.536 25.2647C219.743 25.2647 217.465 26.0863 216.046 28.7752C214.552 31.5762 214.403 35.0493 214.403 37.9623C214.403 40.091 214.44 43.3401 215.598 46.1784C217.204 50.025 220.079 50.5479 221.536 50.5479C223.254 50.5479 225.868 49.8383 227.399 46.2904C228.519 43.7136 228.669 40.6886 228.669 37.9623ZM221.536 49.9503C219.146 49.9503 217.726 47.8963 217.204 45.058C216.793 42.8546 216.793 39.6429 216.793 37.5515C216.793 34.6759 216.793 32.2858 217.278 30.0077C217.988 26.8333 220.079 25.8623 221.536 25.8623C223.067 25.8623 225.046 26.8706 225.756 29.933C226.241 32.0617 226.279 34.5638 226.279 37.5515C226.279 39.979 226.279 42.9667 225.83 45.1701C225.046 49.2408 222.843 49.9503 221.536 49.9503Z" fill="black"/>
<path d="M245.796 37.9623C245.796 35.6842 245.759 31.8003 244.19 28.8126C242.808 26.1984 240.605 25.2647 238.663 25.2647C236.87 25.2647 234.592 26.0863 233.173 28.7752C231.679 31.5762 231.53 35.0493 231.53 37.9623C231.53 40.091 231.567 43.3401 232.725 46.1784C234.331 50.025 237.207 50.5479 238.663 50.5479C240.381 50.5479 242.995 49.8383 244.526 46.2904C245.647 43.7136 245.796 40.6886 245.796 37.9623ZM238.663 49.9503C236.273 49.9503 234.854 47.8963 234.331 45.058C233.92 42.8546 233.92 39.6429 233.92 37.5515C233.92 34.6759 233.92 32.2858 234.406 30.0077C235.115 26.8333 237.207 25.8623 238.663 25.8623C240.194 25.8623 242.174 26.8706 242.883 29.933C243.369 32.0617 243.406 34.5638 243.406 37.5515C243.406 39.979 243.406 42.9667 242.958 45.1701C242.174 49.2408 239.97 49.9503 238.663 49.9503Z" fill="black"/>
<path d="M274.314 44.4978C274.314 40.1657 272.185 36.9913 269.683 36.9913C267.144 36.9913 264.567 39.9416 264.567 44.4978C264.567 49.054 267.106 52.0043 269.683 52.0043C272.185 52.0043 274.314 48.8673 274.314 44.4978ZM269.721 51.4068C268.75 51.4068 266.322 50.5105 266.322 44.4978C266.322 38.4478 268.75 37.5889 269.721 37.5889C271.775 37.5889 273.642 40.5392 273.642 44.4978C273.642 48.4565 271.775 51.4068 269.721 51.4068ZM271.065 23.2854C271.326 22.8746 271.364 22.8373 271.364 22.6505C271.364 22.2024 271.028 21.9783 270.729 21.9783C270.355 21.9783 270.206 22.2397 269.945 22.5385C267.779 25.6382 264.791 25.9743 263.26 25.9743C259.525 25.9743 257.247 23.8082 256.538 23.136C256.052 22.6879 255.342 21.9783 254.073 21.9783C251.533 21.9783 248.956 24.9286 248.956 29.4848C248.956 34.041 251.496 36.9913 254.073 36.9913C256.575 36.9913 258.704 33.8543 258.704 29.4848C258.704 26.9079 257.919 25.1527 257.807 24.9286C260.085 26.3851 262.326 26.5718 263.297 26.5718C265.687 26.5718 267.405 25.6755 268.339 25.0407L268.376 25.078L252.243 50.6226C251.907 51.1454 251.907 51.2201 251.907 51.3321C251.907 51.7429 252.243 52.0043 252.579 52.0043C252.915 52.0043 253.027 51.8176 253.288 51.4068L271.065 23.2854ZM254.11 36.3938C253.139 36.3938 250.712 35.4975 250.712 29.4848C250.712 23.4348 253.139 22.5758 254.11 22.5758C256.164 22.5758 258.031 25.5262 258.031 29.4848C258.031 33.4435 256.164 36.3938 254.11 36.3938Z" fill="black"/>
<path d="M310.46 37.9623C311.02 37.9623 311.58 37.9623 311.58 37.3274C311.58 36.6552 310.945 36.6552 310.31 36.6552H289.434C288.799 36.6552 288.164 36.6552 288.164 37.3274C288.164 37.9623 288.724 37.9623 289.284 37.9623H310.46ZM310.31 44.6099C310.945 44.6099 311.58 44.6099 311.58 43.9376C311.58 43.3028 311.02 43.3028 310.46 43.3028H289.284C288.724 43.3028 288.164 43.3028 288.164 43.9376C288.164 44.6099 288.799 44.6099 289.434 44.6099H310.31Z" fill="black"/>
<path d="M348.314 41.3608C348.949 41.3608 349.621 41.3608 349.621 40.6139C349.621 39.867 348.949 39.867 348.314 39.867H328.11C327.475 39.867 326.802 39.867 326.802 40.6139C326.802 41.3608 327.475 41.3608 328.11 41.3608H348.314Z" fill="black"/>
<path d="M368.323 44.1617H367.651C367.277 46.8133 366.978 47.2614 366.829 47.4855C366.642 47.7843 363.953 47.7843 363.43 47.7843H356.26C357.605 46.3278 360.219 43.6762 363.393 40.6139C365.671 38.4478 368.323 35.9083 368.323 32.2111C368.323 27.8043 364.812 25.2647 360.891 25.2647C356.783 25.2647 354.281 28.8873 354.281 32.2484C354.281 33.7049 355.364 33.8916 355.812 33.8916C356.185 33.8916 357.306 33.6676 357.306 32.3604C357.306 31.2027 356.335 30.8666 355.812 30.8666C355.588 30.8666 355.364 30.904 355.214 30.9787C355.924 27.8043 358.09 26.2357 360.368 26.2357C363.617 26.2357 365.746 28.8126 365.746 32.2111C365.746 35.4601 363.841 38.2611 361.713 40.6886L354.281 49.0914V49.9503H367.426L368.323 44.1617Z" fill="black"/>
<path d="M385.562 37.9623C385.562 35.6842 385.525 31.8003 383.957 28.8126C382.575 26.1984 380.371 25.2647 378.429 25.2647C376.637 25.2647 374.359 26.0863 372.94 28.7752C371.446 31.5762 371.296 35.0493 371.296 37.9623C371.296 40.091 371.334 43.3401 372.491 46.1784C374.097 50.025 376.973 50.5479 378.429 50.5479C380.147 50.5479 382.762 49.8383 384.293 46.2904C385.413 43.7136 385.562 40.6886 385.562 37.9623ZM378.429 49.9503C376.039 49.9503 374.62 47.8963 374.097 45.058C373.687 42.8546 373.687 39.6429 373.687 37.5515C373.687 34.6759 373.687 32.2858 374.172 30.0077C374.882 26.8333 376.973 25.8623 378.429 25.8623C379.961 25.8623 381.94 26.8706 382.65 29.933C383.135 32.0617 383.172 34.5638 383.172 37.5515C383.172 39.979 383.172 42.9667 382.724 45.1701C381.94 49.2408 379.737 49.9503 378.429 49.9503Z" fill="black"/>
<path d="M414.08 44.4978C414.08 40.1657 411.952 36.9913 409.45 36.9913C406.91 36.9913 404.333 39.9416 404.333 44.4978C404.333 49.054 406.873 52.0043 409.45 52.0043C411.952 52.0043 414.08 48.8673 414.08 44.4978ZM409.487 51.4068C408.516 51.4068 406.088 50.5105 406.088 44.4978C406.088 38.4478 408.516 37.5889 409.487 37.5889C411.541 37.5889 413.408 40.5392 413.408 44.4978C413.408 48.4565 411.541 51.4068 409.487 51.4068ZM410.831 23.2854C411.093 22.8746 411.13 22.8373 411.13 22.6505C411.13 22.2024 410.794 21.9783 410.495 21.9783C410.122 21.9783 409.972 22.2397 409.711 22.5385C407.545 25.6382 404.557 25.9743 403.026 25.9743C399.292 25.9743 397.013 23.8082 396.304 23.136C395.818 22.6879 395.109 21.9783 393.839 21.9783C391.3 21.9783 388.723 24.9286 388.723 29.4848C388.723 34.041 391.262 36.9913 393.839 36.9913C396.341 36.9913 398.47 33.8543 398.47 29.4848C398.47 26.9079 397.686 25.1527 397.574 24.9286C399.852 26.3851 402.092 26.5718 403.063 26.5718C405.454 26.5718 407.171 25.6755 408.105 25.0407L408.142 25.078L392.009 50.6226C391.673 51.1454 391.673 51.2201 391.673 51.3321C391.673 51.7429 392.009 52.0043 392.345 52.0043C392.681 52.0043 392.793 51.8176 393.055 51.4068L410.831 23.2854ZM393.876 36.3938C392.905 36.3938 390.478 35.4975 390.478 29.4848C390.478 23.4348 392.905 22.5758 393.876 22.5758C395.93 22.5758 397.798 25.5262 397.798 29.4848C397.798 33.4435 395.93 36.3938 393.876 36.3938Z" fill="black"/>
</g>
<defs>
<clipPath id="clip0_1_334">
<rect width="414.08" height="76.1653" fill="white"/>
</clipPath>
</defs>
</svg>
