<svg width="279" height="75" viewBox="0 0 279 75" fill="none" xmlns="http://www.w3.org/2000/svg">
<g clip-path="url(#clip0_1_157)">
<path d="M13.1457 13.6312C13.1457 21.8473 9.74725 24.3868 6.94631 24.3868C6.08736 24.3868 3.99599 24.2748 3.13704 22.8183C4.10803 22.9677 4.8176 22.4448 4.8176 21.5112C4.8176 20.5029 3.99599 20.1667 3.47315 20.1667C3.13704 20.1667 2.1287 20.3161 2.1287 21.5859C2.1287 24.1254 4.3321 25.2831 7.021 25.2831C11.3158 25.2831 15.6852 20.5776 15.6852 12.3615C15.6852 2.12871 11.5025 0 8.66422 0C4.96698 0 1.41913 3.24908 1.41913 8.25343C1.41913 12.8843 4.44414 16.3201 8.25342 16.3201C11.3905 16.3201 12.7723 13.4072 13.1457 12.1747V13.6312ZM8.32811 15.7226C7.31977 15.7226 5.90063 15.5359 4.74291 13.2951C3.95865 11.8386 3.95865 10.1207 3.95865 8.29077C3.95865 6.08737 3.95865 4.55619 5.00433 2.91297C5.52717 2.12871 6.49816 0.858952 8.66422 0.858952C13.071 0.858952 13.071 7.61855 13.071 9.11238C13.071 11.7639 11.876 15.7226 8.32811 15.7226Z" fill="black"/>
<path d="M32.8127 12.6976C32.8127 10.4195 32.7754 6.53552 31.2068 3.54785C29.825 0.933643 27.6216 0 25.6797 0C23.8871 0 21.609 0.821606 20.1898 3.51051C18.696 6.31144 18.5466 9.78461 18.5466 12.6976C18.5466 14.8263 18.5839 18.0754 19.7417 20.9137C21.3475 24.7603 24.2232 25.2831 25.6797 25.2831C27.3976 25.2831 30.0118 24.5736 31.5429 21.0257C32.6633 18.4488 32.8127 15.4238 32.8127 12.6976ZM25.6797 24.6856C23.2895 24.6856 21.8704 22.6316 21.3475 19.7933C20.9367 17.5899 20.9367 14.3781 20.9367 12.2868C20.9367 9.41115 20.9367 7.02101 21.4222 4.74292C22.1318 1.56852 24.2232 0.597532 25.6797 0.597532C27.2108 0.597532 29.1902 1.60587 29.8997 4.66823C30.3852 6.79694 30.4226 9.29911 30.4226 12.2868C30.4226 14.7143 30.4226 17.7019 29.9744 19.9053C29.1902 23.976 26.9868 24.6856 25.6797 24.6856Z" fill="black"/>
<path d="M49.9402 12.6976C49.9402 10.4195 49.9028 6.53552 48.3343 3.54785C46.9525 0.933643 44.7491 0 42.8071 0C41.0145 0 38.7364 0.821606 37.3173 3.51051C35.8235 6.31144 35.6741 9.78461 35.6741 12.6976C35.6741 14.8263 35.7114 18.0754 36.8691 20.9137C38.475 24.7603 41.3506 25.2831 42.8071 25.2831C44.525 25.2831 47.1392 24.5736 48.6704 21.0257C49.7908 18.4488 49.9402 15.4238 49.9402 12.6976ZM42.8071 24.6856C40.417 24.6856 38.9979 22.6316 38.475 19.7933C38.0642 17.5899 38.0642 14.3781 38.0642 12.2868C38.0642 9.41115 38.0642 7.02101 38.5497 4.74292C39.2593 1.56852 41.3506 0.597532 42.8071 0.597532C44.3383 0.597532 46.3176 1.60587 47.0272 4.66823C47.5127 6.79694 47.55 9.29911 47.55 12.2868C47.55 14.7143 47.55 17.7019 47.1019 19.9053C46.3176 23.976 44.1142 24.6856 42.8071 24.6856Z" fill="black"/>
<path d="M67.0677 12.6976C67.0677 10.4195 67.0303 6.53552 65.4618 3.54785C64.08 0.933643 61.8766 0 59.9346 0C58.142 0 55.8639 0.821606 54.4448 3.51051C52.951 6.31144 52.8016 9.78461 52.8016 12.6976C52.8016 14.8263 52.8389 18.0754 53.9966 20.9137C55.6025 24.7603 58.4781 25.2831 59.9346 25.2831C61.6525 25.2831 64.2667 24.5736 65.7979 21.0257C66.9183 18.4488 67.0677 15.4238 67.0677 12.6976ZM59.9346 24.6856C57.5445 24.6856 56.1254 22.6316 55.6025 19.7933C55.1917 17.5899 55.1917 14.3781 55.1917 12.2868C55.1917 9.41115 55.1917 7.02101 55.6772 4.74292C56.3868 1.56852 58.4781 0.597532 59.9346 0.597532C61.4658 0.597532 63.4451 1.60587 64.1547 4.66823C64.6402 6.79694 64.6775 9.29911 64.6775 12.2868C64.6775 14.7143 64.6775 17.7019 64.2294 19.9053C63.4451 23.976 61.2417 24.6856 59.9346 24.6856Z" fill="black"/>
<path d="M91.3365 14.3034L83.8673 6.87163C83.4191 6.42348 83.3444 6.34879 83.0457 6.34879C82.6722 6.34879 82.2988 6.6849 82.2988 7.0957C82.2988 7.35712 82.3735 7.43181 82.7843 7.84262L90.2534 15.3491L82.7843 22.8556C82.3735 23.2664 82.2988 23.3411 82.2988 23.6026C82.2988 24.0134 82.6722 24.3495 83.0457 24.3495C83.3444 24.3495 83.4191 24.2748 83.8673 23.8266L91.2991 16.3948L99.0297 24.1254C99.1044 24.1627 99.3658 24.3495 99.5899 24.3495C100.038 24.3495 100.337 24.0134 100.337 23.6026C100.337 23.5279 100.337 23.3785 100.225 23.1918C100.187 23.1171 94.2494 17.2538 92.3821 15.3491L99.2164 8.51484C99.4032 8.29077 99.9633 7.80527 100.15 7.5812C100.187 7.5065 100.337 7.35712 100.337 7.0957C100.337 6.6849 100.038 6.34879 99.5899 6.34879C99.2911 6.34879 99.1417 6.49817 98.7309 6.90897L91.3365 14.3034Z" fill="black"/>
<path d="M129.84 12.6976C129.84 10.4195 129.803 6.53552 128.234 3.54785C126.852 0.933643 124.649 0 122.707 0C120.914 0 118.636 0.821606 117.217 3.51051C115.723 6.31144 115.574 9.78461 115.574 12.6976C115.574 14.8263 115.611 18.0754 116.769 20.9137C118.375 24.7603 121.251 25.2831 122.707 25.2831C124.425 25.2831 127.039 24.5736 128.57 21.0257C129.691 18.4488 129.84 15.4238 129.84 12.6976ZM122.707 24.6856C120.317 24.6856 118.898 22.6316 118.375 19.7933C117.964 17.5899 117.964 14.3781 117.964 12.2868C117.964 9.41115 117.964 7.02101 118.45 4.74292C119.159 1.56852 121.251 0.597532 122.707 0.597532C124.238 0.597532 126.218 1.60587 126.927 4.66823C127.413 6.79694 127.45 9.29911 127.45 12.2868C127.45 14.7143 127.45 17.7019 127.002 19.9053C126.218 23.976 124.014 24.6856 122.707 24.6856Z" fill="black"/>
<path d="M138.565 24.835C138.565 22.6689 137.855 21.063 136.324 21.063C135.129 21.063 134.531 22.034 134.531 22.8556C134.531 23.6773 135.092 24.6856 136.361 24.6856C136.847 24.6856 137.258 24.5362 137.594 24.2001C137.668 24.1254 137.706 24.1254 137.743 24.1254C137.818 24.1254 137.818 24.6482 137.818 24.835C137.818 26.0674 137.594 28.4949 135.428 30.9223C135.017 31.3705 135.017 31.4452 135.017 31.5199C135.017 31.7066 135.204 31.8933 135.39 31.8933C135.689 31.8933 138.565 29.1297 138.565 24.835Z" fill="black"/>
<path d="M157.598 0.821606C157.598 0.037344 157.561 0 157.038 0C155.582 1.75525 153.378 2.31544 151.287 2.39013C151.175 2.39013 150.988 2.39013 150.951 2.46482C150.913 2.53951 150.913 2.61421 150.913 3.39847C152.071 3.39847 154.013 3.17439 155.507 2.27809V21.9593C155.507 23.2664 155.432 23.7146 152.22 23.7146H151.1V24.6856C152.893 24.6482 154.76 24.6109 156.553 24.6109C158.345 24.6109 160.212 24.6482 162.005 24.6856V23.7146H160.885C157.673 23.7146 157.598 23.3038 157.598 21.9593V0.821606Z" fill="black"/>
<path d="M199.179 12.6976C199.739 12.6976 200.299 12.6976 200.299 12.0627C200.299 11.3905 199.664 11.3905 199.029 11.3905H178.153C177.518 11.3905 176.883 11.3905 176.883 12.0627C176.883 12.6976 177.444 12.6976 178.004 12.6976H199.179ZM199.029 19.3451C199.664 19.3451 200.299 19.3451 200.299 18.6729C200.299 18.038 199.739 18.038 199.179 18.038H178.004C177.444 18.038 176.883 18.038 176.883 18.6729C176.883 19.3451 177.518 19.3451 178.153 19.3451H199.029Z" fill="black"/>
<path d="M225.568 13.6312C225.568 21.8473 222.169 24.3868 219.369 24.3868C218.51 24.3868 216.418 24.2748 215.559 22.8183C216.53 22.9677 217.24 22.4448 217.24 21.5112C217.24 20.5029 216.418 20.1667 215.895 20.1667C215.559 20.1667 214.551 20.3161 214.551 21.5859C214.551 24.1254 216.754 25.2831 219.443 25.2831C223.738 25.2831 228.107 20.5776 228.107 12.3615C228.107 2.12871 223.925 0 221.086 0C217.389 0 213.841 3.24908 213.841 8.25343C213.841 12.8843 216.866 16.3201 220.676 16.3201C223.813 16.3201 225.194 13.4072 225.568 12.1747V13.6312ZM220.75 15.7226C219.742 15.7226 218.323 15.5359 217.165 13.2951C216.381 11.8386 216.381 10.1207 216.381 8.29077C216.381 6.08737 216.381 4.55619 217.427 2.91297C217.949 2.12871 218.92 0.858952 221.086 0.858952C225.493 0.858952 225.493 7.61855 225.493 9.11238C225.493 11.7639 224.298 15.7226 220.75 15.7226Z" fill="black"/>
<path d="M245.235 12.6976C245.235 10.4195 245.198 6.53552 243.629 3.54785C242.247 0.933643 240.044 0 238.102 0C236.309 0 234.031 0.821606 232.612 3.51051C231.118 6.31144 230.969 9.78461 230.969 12.6976C230.969 14.8263 231.006 18.0754 232.164 20.9137C233.77 24.7603 236.645 25.2831 238.102 25.2831C239.82 25.2831 242.434 24.5736 243.965 21.0257C245.086 18.4488 245.235 15.4238 245.235 12.6976ZM238.102 24.6856C235.712 24.6856 234.293 22.6316 233.77 19.7933C233.359 17.5899 233.359 14.3781 233.359 12.2868C233.359 9.41115 233.359 7.02101 233.844 4.74292C234.554 1.56852 236.645 0.597532 238.102 0.597532C239.633 0.597532 241.612 1.60587 242.322 4.66823C242.807 6.79694 242.845 9.29911 242.845 12.2868C242.845 14.7143 242.845 17.7019 242.397 19.9053C241.612 23.976 239.409 24.6856 238.102 24.6856Z" fill="black"/>
<path d="M262.362 12.6976C262.362 10.4195 262.325 6.53552 260.757 3.54785C259.375 0.933643 257.171 0 255.229 0C253.437 0 251.159 0.821606 249.739 3.51051C248.246 6.31144 248.096 9.78461 248.096 12.6976C248.096 14.8263 248.134 18.0754 249.291 20.9137C250.897 24.7603 253.773 25.2831 255.229 25.2831C256.947 25.2831 259.561 24.5736 261.093 21.0257C262.213 18.4488 262.362 15.4238 262.362 12.6976ZM255.229 24.6856C252.839 24.6856 251.42 22.6316 250.897 19.7933C250.486 17.5899 250.486 14.3781 250.486 12.2868C250.486 9.41115 250.486 7.02101 250.972 4.74292C251.681 1.56852 253.773 0.597532 255.229 0.597532C256.761 0.597532 258.74 1.60587 259.449 4.66823C259.935 6.79694 259.972 9.29911 259.972 12.2868C259.972 14.7143 259.972 17.7019 259.524 19.9053C258.74 23.976 256.536 24.6856 255.229 24.6856Z" fill="black"/>
</g>
<g clip-path="url(#clip1_1_157)">
<path d="M13.1457 60.6312C13.1457 68.8473 9.74725 71.3868 6.94631 71.3868C6.08736 71.3868 3.99599 71.2748 3.13704 69.8183C4.10803 69.9677 4.8176 69.4448 4.8176 68.5112C4.8176 67.5029 3.99599 67.1667 3.47315 67.1667C3.13704 67.1667 2.1287 67.3161 2.1287 68.5859C2.1287 71.1254 4.3321 72.2831 7.021 72.2831C11.3158 72.2831 15.6852 67.5776 15.6852 59.3615C15.6852 49.1287 11.5025 47 8.66422 47C4.96698 47 1.41913 50.2491 1.41913 55.2534C1.41913 59.8843 4.44414 63.3201 8.25342 63.3201C11.3905 63.3201 12.7723 60.4072 13.1457 59.1747V60.6312ZM8.32811 62.7226C7.31977 62.7226 5.90063 62.5359 4.74291 60.2951C3.95865 58.8386 3.95865 57.1207 3.95865 55.2908C3.95865 53.0874 3.95865 51.5562 5.00433 49.913C5.52717 49.1287 6.49816 47.859 8.66422 47.859C13.071 47.859 13.071 54.6185 13.071 56.1124C13.071 58.7639 11.876 62.7226 8.32811 62.7226Z" fill="black"/>
<path d="M32.8127 59.6976C32.8127 57.4195 32.7754 53.5355 31.2068 50.5479C29.825 47.9336 27.6216 47 25.6797 47C23.8871 47 21.609 47.8216 20.1898 50.5105C18.696 53.3114 18.5466 56.7846 18.5466 59.6976C18.5466 61.8263 18.5839 65.0754 19.7417 67.9137C21.3475 71.7603 24.2232 72.2831 25.6797 72.2831C27.3976 72.2831 30.0118 71.5736 31.5429 68.0257C32.6633 65.4488 32.8127 62.4238 32.8127 59.6976ZM25.6797 71.6856C23.2895 71.6856 21.8704 69.6316 21.3475 66.7933C20.9367 64.5899 20.9367 61.3781 20.9367 59.2868C20.9367 56.4111 20.9367 54.021 21.4222 51.7429C22.1318 48.5685 24.2232 47.5975 25.6797 47.5975C27.2108 47.5975 29.1902 48.6059 29.8997 51.6682C30.3852 53.7969 30.4226 56.2991 30.4226 59.2868C30.4226 61.7143 30.4226 64.7019 29.9744 66.9053C29.1902 70.976 26.9868 71.6856 25.6797 71.6856Z" fill="black"/>
<path d="M49.9402 59.6976C49.9402 57.4195 49.9028 53.5355 48.3343 50.5479C46.9525 47.9336 44.7491 47 42.8071 47C41.0145 47 38.7364 47.8216 37.3173 50.5105C35.8235 53.3114 35.6741 56.7846 35.6741 59.6976C35.6741 61.8263 35.7114 65.0754 36.8691 67.9137C38.475 71.7603 41.3506 72.2831 42.8071 72.2831C44.525 72.2831 47.1392 71.5736 48.6704 68.0257C49.7908 65.4488 49.9402 62.4238 49.9402 59.6976ZM42.8071 71.6856C40.417 71.6856 38.9979 69.6316 38.475 66.7933C38.0642 64.5899 38.0642 61.3781 38.0642 59.2868C38.0642 56.4111 38.0642 54.021 38.5497 51.7429C39.2593 48.5685 41.3506 47.5975 42.8071 47.5975C44.3383 47.5975 46.3176 48.6059 47.0272 51.6682C47.5127 53.7969 47.55 56.2991 47.55 59.2868C47.55 61.7143 47.55 64.7019 47.1019 66.9053C46.3176 70.976 44.1142 71.6856 42.8071 71.6856Z" fill="black"/>
<path d="M67.0677 59.6976C67.0677 57.4195 67.0303 53.5355 65.4618 50.5479C64.08 47.9336 61.8766 47 59.9346 47C58.142 47 55.8639 47.8216 54.4448 50.5105C52.951 53.3114 52.8016 56.7846 52.8016 59.6976C52.8016 61.8263 52.8389 65.0754 53.9966 67.9137C55.6025 71.7603 58.4781 72.2831 59.9346 72.2831C61.6525 72.2831 64.2667 71.5736 65.7979 68.0257C66.9183 65.4488 67.0677 62.4238 67.0677 59.6976ZM59.9346 71.6856C57.5445 71.6856 56.1254 69.6316 55.6025 66.7933C55.1917 64.5899 55.1917 61.3781 55.1917 59.2868C55.1917 56.4111 55.1917 54.021 55.6772 51.7429C56.3868 48.5685 58.4781 47.5975 59.9346 47.5975C61.4658 47.5975 63.4451 48.6059 64.1547 51.6682C64.6402 53.7969 64.6775 56.2991 64.6775 59.2868C64.6775 61.7143 64.6775 64.7019 64.2294 66.9053C63.4451 70.976 61.2417 71.6856 59.9346 71.6856Z" fill="black"/>
<path d="M90.8883 63.0214H100.785C101.308 63.0214 101.943 63.0214 101.943 62.3865C101.943 61.7143 101.345 61.7143 100.785 61.7143H90.8883V51.8176C90.8883 51.2948 90.8883 50.6599 90.2534 50.6599C89.5812 50.6599 89.5812 51.2574 89.5812 51.8176V61.7143H79.6846C79.1617 61.7143 78.5269 61.7143 78.5269 62.3491C78.5269 63.0214 79.1244 63.0214 79.6846 63.0214H89.5812V72.918C89.5812 73.4409 89.5812 74.0757 90.2161 74.0757C90.8883 74.0757 90.8883 73.4782 90.8883 72.918V63.0214Z" fill="black"/>
<path d="M125.137 60.6312C125.137 68.8473 121.738 71.3868 118.937 71.3868C118.078 71.3868 115.987 71.2748 115.128 69.8183C116.099 69.9677 116.809 69.4448 116.809 68.5112C116.809 67.5029 115.987 67.1667 115.464 67.1667C115.128 67.1667 114.12 67.3161 114.12 68.5859C114.12 71.1254 116.323 72.2831 119.012 72.2831C123.307 72.2831 127.676 67.5776 127.676 59.3615C127.676 49.1287 123.493 47 120.655 47C116.958 47 113.41 50.2491 113.41 55.2534C113.41 59.8843 116.435 63.3201 120.244 63.3201C123.381 63.3201 124.763 60.4072 125.137 59.1747V60.6312ZM120.319 62.7226C119.311 62.7226 117.892 62.5359 116.734 60.2951C115.95 58.8386 115.95 57.1207 115.95 55.2908C115.95 53.0874 115.95 51.5562 116.995 49.913C117.518 49.1287 118.489 47.859 120.655 47.859C125.062 47.859 125.062 54.6185 125.062 56.1124C125.062 58.7639 123.867 62.7226 120.319 62.7226Z" fill="black"/>
<path d="M144.804 59.6976C144.804 57.4195 144.766 53.5355 143.198 50.5479C141.816 47.9336 139.613 47 137.671 47C135.878 47 133.6 47.8216 132.181 50.5105C130.687 53.3114 130.537 56.7846 130.537 59.6976C130.537 61.8263 130.575 65.0754 131.733 67.9137C133.338 71.7603 136.214 72.2831 137.671 72.2831C139.388 72.2831 142.003 71.5736 143.534 68.0257C144.654 65.4488 144.804 62.4238 144.804 59.6976ZM137.671 71.6856C135.28 71.6856 133.861 69.6316 133.338 66.7933C132.928 64.5899 132.928 61.3781 132.928 59.2868C132.928 56.4111 132.928 54.021 133.413 51.7429C134.123 48.5685 136.214 47.5975 137.671 47.5975C139.202 47.5975 141.181 48.6059 141.891 51.6682C142.376 53.7969 142.413 56.2991 142.413 59.2868C142.413 61.7143 142.413 64.7019 141.965 66.9053C141.181 70.976 138.978 71.6856 137.671 71.6856Z" fill="black"/>
<path d="M161.931 59.6976C161.931 57.4195 161.894 53.5355 160.325 50.5479C158.943 47.9336 156.74 47 154.798 47C153.005 47 150.727 47.8216 149.308 50.5105C147.814 53.3114 147.665 56.7846 147.665 59.6976C147.665 61.8263 147.702 65.0754 148.86 67.9137C150.466 71.7603 153.342 72.2831 154.798 72.2831C156.516 72.2831 159.13 71.5736 160.661 68.0257C161.782 65.4488 161.931 62.4238 161.931 59.6976ZM154.798 71.6856C152.408 71.6856 150.989 69.6316 150.466 66.7933C150.055 64.5899 150.055 61.3781 150.055 59.2868C150.055 56.4111 150.055 54.021 150.541 51.7429C151.25 48.5685 153.342 47.5975 154.798 47.5975C156.329 47.5975 158.309 48.6059 159.018 51.6682C159.504 53.7969 159.541 56.2991 159.541 59.2868C159.541 61.7143 159.541 64.7019 159.093 66.9053C158.309 70.976 156.105 71.6856 154.798 71.6856Z" fill="black"/>
<path d="M197.76 59.6976C198.321 59.6976 198.881 59.6976 198.881 59.0627C198.881 58.3905 198.246 58.3905 197.611 58.3905H176.735C176.1 58.3905 175.465 58.3905 175.465 59.0627C175.465 59.6976 176.025 59.6976 176.585 59.6976H197.76ZM197.611 66.3451C198.246 66.3451 198.881 66.3451 198.881 65.6729C198.881 65.038 198.321 65.038 197.76 65.038H176.585C176.025 65.038 175.465 65.038 175.465 65.6729C175.465 66.3451 176.1 66.3451 176.735 66.3451H197.611Z" fill="black"/>
<path d="M224.15 60.6312C224.15 68.8473 220.751 71.3868 217.95 71.3868C217.091 71.3868 215 71.2748 214.141 69.8183C215.112 69.9677 215.821 69.4448 215.821 68.5112C215.821 67.5029 215 67.1667 214.477 67.1667C214.141 67.1667 213.133 67.3161 213.133 68.5859C213.133 71.1254 215.336 72.2831 218.025 72.2831C222.32 72.2831 226.689 67.5776 226.689 59.3615C226.689 49.1287 222.506 47 219.668 47C215.971 47 212.423 50.2491 212.423 55.2534C212.423 59.8843 215.448 63.3201 219.257 63.3201C222.394 63.3201 223.776 60.4072 224.15 59.1747V60.6312ZM219.332 62.7226C218.324 62.7226 216.905 62.5359 215.747 60.2951C214.963 58.8386 214.963 57.1207 214.963 55.2908C214.963 53.0874 214.963 51.5562 216.008 49.913C216.531 49.1287 217.502 47.859 219.668 47.859C224.075 47.859 224.075 54.6185 224.075 56.1124C224.075 58.7639 222.88 62.7226 219.332 62.7226Z" fill="black"/>
<path d="M241.277 60.6312C241.277 68.8473 237.879 71.3868 235.078 71.3868C234.219 71.3868 232.127 71.2748 231.268 69.8183C232.239 69.9677 232.949 69.4448 232.949 68.5112C232.949 67.5029 232.127 67.1667 231.604 67.1667C231.268 67.1667 230.26 67.3161 230.26 68.5859C230.26 71.1254 232.463 72.2831 235.152 72.2831C239.447 72.2831 243.817 67.5776 243.817 59.3615C243.817 49.1287 239.634 47 236.796 47C233.098 47 229.55 50.2491 229.55 55.2534C229.55 59.8843 232.575 63.3201 236.385 63.3201C239.522 63.3201 240.904 60.4072 241.277 59.1747V60.6312ZM236.459 62.7226C235.451 62.7226 234.032 62.5359 232.874 60.2951C232.09 58.8386 232.09 57.1207 232.09 55.2908C232.09 53.0874 232.09 51.5562 233.136 49.913C233.658 49.1287 234.629 47.859 236.796 47.859C241.202 47.859 241.202 54.6185 241.202 56.1124C241.202 58.7639 240.007 62.7226 236.459 62.7226Z" fill="black"/>
<path d="M260.944 59.6976C260.944 57.4195 260.907 53.5355 259.338 50.5479C257.956 47.9336 255.753 47 253.811 47C252.018 47 249.74 47.8216 248.321 50.5105C246.827 53.3114 246.678 56.7846 246.678 59.6976C246.678 61.8263 246.715 65.0754 247.873 67.9137C249.479 71.7603 252.354 72.2831 253.811 72.2831C255.529 72.2831 258.143 71.5736 259.674 68.0257C260.795 65.4488 260.944 62.4238 260.944 59.6976ZM253.811 71.6856C251.421 71.6856 250.002 69.6316 249.479 66.7933C249.068 64.5899 249.068 61.3781 249.068 59.2868C249.068 56.4111 249.068 54.021 249.554 51.7429C250.263 48.5685 252.354 47.5975 253.811 47.5975C255.342 47.5975 257.321 48.6059 258.031 51.6682C258.517 53.7969 258.554 56.2991 258.554 59.2868C258.554 61.7143 258.554 64.7019 258.106 66.9053C257.321 70.976 255.118 71.6856 253.811 71.6856Z" fill="black"/>
<path d="M278.072 59.6976C278.072 57.4195 278.034 53.5355 276.466 50.5479C275.084 47.9336 272.88 47 270.938 47C269.146 47 266.868 47.8216 265.449 50.5105C263.955 53.3114 263.805 56.7846 263.805 59.6976C263.805 61.8263 263.843 65.0754 265 67.9137C266.606 71.7603 269.482 72.2831 270.938 72.2831C272.656 72.2831 275.271 71.5736 276.802 68.0257C277.922 65.4488 278.072 62.4238 278.072 59.6976ZM270.938 71.6856C268.548 71.6856 267.129 69.6316 266.606 66.7933C266.196 64.5899 266.196 61.3781 266.196 59.2868C266.196 56.4111 266.196 54.021 266.681 51.7429C267.391 48.5685 269.482 47.5975 270.938 47.5975C272.47 47.5975 274.449 48.6059 275.159 51.6682C275.644 53.7969 275.681 56.2991 275.681 59.2868C275.681 61.7143 275.681 64.7019 275.233 66.9053C274.449 70.976 272.246 71.6856 270.938 71.6856Z" fill="black"/>
</g>
<defs>
<clipPath id="clip0_1_157">
<rect width="262.362" height="31.8933" fill="white"/>
</clipPath>
<clipPath id="clip1_1_157">
<rect width="278.072" height="27.0757" fill="white" transform="translate(0 47)"/>
</clipPath>
</defs>
</svg>
