<svg width="246" height="73" viewBox="0 0 246 73" fill="none" xmlns="http://www.w3.org/2000/svg">
<g clip-path="url(#clip0_1_38)">
<path d="M8.25343 58.988C11.5772 58.988 13.0337 61.8636 13.0337 65.1874C13.0337 69.6689 10.6436 71.3868 8.4775 71.3868C6.49817 71.3868 3.28643 70.4158 2.2781 67.5402C2.46483 67.6149 2.65156 67.6149 2.83828 67.6149C3.73458 67.6149 4.40681 67.0174 4.40681 66.0464C4.40681 64.9633 3.5852 64.4778 2.83828 64.4778C2.20341 64.4778 1.23241 64.7766 1.23241 66.1584C1.23241 69.5942 4.59354 72.2831 8.5522 72.2831C12.6976 72.2831 15.872 69.034 15.872 65.2248C15.872 61.6022 12.8843 58.988 9.33646 58.5772C12.1747 57.9797 14.901 55.4402 14.901 52.0417C14.901 49.1287 11.9507 47 8.58954 47C5.19107 47 2.20341 49.0914 2.20341 52.079C2.20341 53.3861 3.1744 53.6102 3.65989 53.6102C4.44415 53.6102 5.11638 53.1247 5.11638 52.1537C5.11638 51.1827 4.44415 50.6972 3.65989 50.6972C3.51051 50.6972 3.32378 50.6972 3.1744 50.7719C4.25743 48.3071 7.20775 47.859 8.51485 47.859C9.82195 47.859 12.2868 48.4938 12.2868 52.079C12.2868 53.1247 12.1374 54.992 10.8676 56.6352C9.74726 58.0917 8.4775 58.1664 7.24509 58.2784C7.05836 58.2784 6.19941 58.3531 6.05003 58.3531C5.7886 58.3905 5.63922 58.4278 5.63922 58.6892C5.63922 58.9507 5.67657 58.988 6.42348 58.988H8.25343Z" fill="black"/>
<path d="M21.3849 49.8383C21.7584 49.9877 23.2895 50.4732 24.8581 50.4732C28.3312 50.4732 30.2359 48.6059 31.3189 47.5228C31.3189 47.2241 31.3189 47.0374 31.0948 47.0374C31.0575 47.0374 30.9828 47.0374 30.684 47.1867C29.3769 47.7469 27.8457 48.1951 25.9784 48.1951C24.8581 48.1951 23.1775 48.0457 21.3476 47.2241C20.9367 47.0374 20.8621 47.0374 20.8247 47.0374C20.638 47.0374 20.6006 47.0747 20.6006 47.8216V58.6519C20.6006 59.3241 20.6006 59.5109 20.9741 59.5109C21.1608 59.5109 21.2355 59.4362 21.4222 59.1747C22.6173 57.4942 24.2605 56.7846 26.1278 56.7846C27.4349 56.7846 30.2359 57.6062 30.2359 63.9924C30.2359 65.1874 30.2359 67.3535 29.1155 69.0714C28.1818 70.6026 26.7254 71.3868 25.1195 71.3868C22.6547 71.3868 20.1525 69.6689 19.4803 66.7933C19.6296 66.8306 19.9284 66.9053 20.0778 66.9053C20.5633 66.9053 21.4969 66.6439 21.4969 65.4862C21.4969 64.4779 20.7874 64.0671 20.0778 64.0671C19.2188 64.0671 18.6587 64.5899 18.6587 65.6356C18.6587 68.8847 21.2355 72.2831 25.1942 72.2831C29.0408 72.2831 32.7007 68.9594 32.7007 64.1417C32.7007 59.6602 29.7877 56.1871 26.1652 56.1871C24.2605 56.1871 22.6547 56.8967 21.3849 58.2411V49.8383Z" fill="black"/>
<path d="M57.0815 61.3034L49.6124 53.8716C49.1642 53.4235 49.0895 53.3488 48.7907 53.3488C48.4173 53.3488 48.0438 53.6849 48.0438 54.0957C48.0438 54.3571 48.1185 54.4318 48.5293 54.8426L55.9985 62.3491L48.5293 69.8556C48.1185 70.2664 48.0438 70.3411 48.0438 70.6026C48.0438 71.0134 48.4173 71.3495 48.7907 71.3495C49.0895 71.3495 49.1642 71.2748 49.6124 70.8266L57.0442 63.3948L64.7748 71.1254C64.8495 71.1627 65.1109 71.3495 65.335 71.3495C65.7831 71.3495 66.0819 71.0134 66.0819 70.6026C66.0819 70.5279 66.0819 70.3785 65.9698 70.1918C65.9325 70.1171 59.9945 64.2538 58.1272 62.3491L64.9615 55.5148C65.1482 55.2908 65.7084 54.8053 65.8951 54.5812C65.9325 54.5065 66.0819 54.3571 66.0819 54.0957C66.0819 53.6849 65.7831 53.3488 65.335 53.3488C65.0362 53.3488 64.8868 53.4982 64.476 53.909L57.0815 61.3034Z" fill="black"/>
<path d="M89.8339 47.8216C89.8339 47.0373 89.7965 47 89.2737 47C87.8172 48.7553 85.6138 49.3154 83.5224 49.3901C83.4104 49.3901 83.2237 49.3901 83.1863 49.4648C83.149 49.5395 83.149 49.6142 83.149 50.3985C84.3067 50.3985 86.2487 50.1744 87.7425 49.2781V68.9593C87.7425 70.2664 87.6678 70.7146 84.4561 70.7146H83.3357V71.6856C85.1283 71.6482 86.9956 71.6109 88.7882 71.6109C90.5808 71.6109 92.4481 71.6482 94.2407 71.6856V70.7146H93.1203C89.9086 70.7146 89.8339 70.3038 89.8339 68.9593V47.8216Z" fill="black"/>
<path d="M101.285 49.8383C101.658 49.9877 103.189 50.4732 104.758 50.4732C108.231 50.4732 110.136 48.6059 111.219 47.5228C111.219 47.2241 111.219 47.0374 110.995 47.0374C110.957 47.0374 110.883 47.0374 110.584 47.1867C109.277 47.7469 107.746 48.1951 105.878 48.1951C104.758 48.1951 103.077 48.0457 101.247 47.2241C100.837 47.0374 100.762 47.0374 100.725 47.0374C100.538 47.0374 100.501 47.0747 100.501 47.8216V58.6519C100.501 59.3241 100.501 59.5109 100.874 59.5109C101.061 59.5109 101.135 59.4362 101.322 59.1747C102.517 57.4942 104.16 56.7846 106.028 56.7846C107.335 56.7846 110.136 57.6062 110.136 63.9924C110.136 65.1874 110.136 67.3535 109.015 69.0714C108.082 70.6026 106.625 71.3868 105.019 71.3868C102.555 71.3868 100.052 69.6689 99.3801 66.7933C99.5295 66.8306 99.8283 66.9053 99.9777 66.9053C100.463 66.9053 101.397 66.6439 101.397 65.4862C101.397 64.4779 100.687 64.0671 99.9777 64.0671C99.1187 64.0671 98.5585 64.5899 98.5585 65.6356C98.5585 68.8847 101.135 72.2831 105.094 72.2831C108.941 72.2831 112.601 68.9594 112.601 64.1417C112.601 59.6602 109.688 56.1871 106.065 56.1871C104.16 56.1871 102.555 56.8967 101.285 58.2411V49.8383Z" fill="black"/>
<path d="M148.542 59.6976C149.102 59.6976 149.662 59.6976 149.662 59.0627C149.662 58.3905 149.028 58.3905 148.393 58.3905H127.516C126.881 58.3905 126.247 58.3905 126.247 59.0627C126.247 59.6976 126.807 59.6976 127.367 59.6976H148.542ZM148.393 66.3451C149.028 66.3451 149.662 66.3451 149.662 65.6729C149.662 65.038 149.102 65.038 148.542 65.038H127.367C126.807 65.038 126.247 65.038 126.247 65.6729C126.247 66.3451 126.881 66.3451 127.516 66.3451H148.393Z" fill="black"/>
<path d="M166.043 49.8383C166.416 49.9877 167.947 50.4732 169.516 50.4732C172.989 50.4732 174.894 48.6059 175.977 47.5228C175.977 47.2241 175.977 47.0374 175.753 47.0374C175.715 47.0374 175.641 47.0374 175.342 47.1867C174.035 47.7469 172.504 48.1951 170.636 48.1951C169.516 48.1951 167.835 48.0457 166.005 47.2241C165.595 47.0374 165.52 47.0374 165.483 47.0374C165.296 47.0374 165.259 47.0747 165.259 47.8216V58.6519C165.259 59.3241 165.259 59.5109 165.632 59.5109C165.819 59.5109 165.893 59.4362 166.08 59.1747C167.275 57.4942 168.918 56.7846 170.786 56.7846C172.093 56.7846 174.894 57.6062 174.894 63.9924C174.894 65.1874 174.894 67.3535 173.773 69.0714C172.84 70.6026 171.383 71.3868 169.777 71.3868C167.313 71.3868 164.81 69.6689 164.138 66.7933C164.288 66.8306 164.586 66.9053 164.736 66.9053C165.221 66.9053 166.155 66.6439 166.155 65.4862C166.155 64.4779 165.445 64.0671 164.736 64.0671C163.877 64.0671 163.317 64.5899 163.317 65.6356C163.317 68.8847 165.893 72.2831 169.852 72.2831C173.699 72.2831 177.359 68.9594 177.359 64.1417C177.359 59.6602 174.446 56.1871 170.823 56.1871C168.918 56.1871 167.313 56.8967 166.043 58.2411V49.8383Z" fill="black"/>
<path d="M194.486 65.897H193.814C193.44 68.5485 193.142 68.9967 192.992 69.2208C192.805 69.5195 190.117 69.5195 189.594 69.5195H182.423C183.768 68.063 186.382 65.4115 189.556 62.3491C191.834 60.1831 194.486 57.6436 194.486 53.9463C194.486 49.5395 190.976 47 187.054 47C182.946 47 180.444 50.6225 180.444 53.9837C180.444 55.4402 181.527 55.6269 181.975 55.6269C182.349 55.6269 183.469 55.4028 183.469 54.0957C183.469 52.938 182.498 52.6019 181.975 52.6019C181.751 52.6019 181.527 52.6392 181.378 52.7139C182.087 49.5395 184.253 47.971 186.531 47.971C189.78 47.971 191.909 50.5479 191.909 53.9463C191.909 57.1954 190.005 59.9963 187.876 62.4238L180.444 70.8266V71.6856H193.59L194.486 65.897Z" fill="black"/>
<path d="M200.298 49.8383C200.671 49.9877 202.202 50.4732 203.771 50.4732C207.244 50.4732 209.149 48.6059 210.232 47.5228C210.232 47.2241 210.232 47.0374 210.008 47.0374C209.97 47.0374 209.896 47.0374 209.597 47.1867C208.29 47.7469 206.759 48.1951 204.891 48.1951C203.771 48.1951 202.09 48.0457 200.26 47.2241C199.85 47.0374 199.775 47.0374 199.738 47.0374C199.551 47.0374 199.513 47.0747 199.513 47.8216V58.6519C199.513 59.3241 199.513 59.5109 199.887 59.5109C200.074 59.5109 200.148 59.4362 200.335 59.1747C201.53 57.4942 203.173 56.7846 205.041 56.7846C206.348 56.7846 209.149 57.6062 209.149 63.9924C209.149 65.1874 209.149 67.3535 208.028 69.0714C207.095 70.6026 205.638 71.3868 204.032 71.3868C201.567 71.3868 199.065 69.6689 198.393 66.7933C198.542 66.8306 198.841 66.9053 198.991 66.9053C199.476 66.9053 200.41 66.6439 200.41 65.4862C200.41 64.4779 199.7 64.0671 198.991 64.0671C198.132 64.0671 197.571 64.5899 197.571 65.6356C197.571 68.8847 200.148 72.2831 204.107 72.2831C207.954 72.2831 211.614 68.9594 211.614 64.1417C211.614 59.6602 208.701 56.1871 205.078 56.1871C203.173 56.1871 201.567 56.8967 200.298 58.2411V49.8383Z" fill="black"/>
</g>
<g clip-path="url(#clip1_1_38)">
<path d="M8.25343 11.988C11.5772 11.988 13.0337 14.8636 13.0337 18.1874C13.0337 22.6689 10.6436 24.3868 8.4775 24.3868C6.49817 24.3868 3.28643 23.4158 2.2781 20.5402C2.46483 20.6149 2.65156 20.6149 2.83828 20.6149C3.73458 20.6149 4.40681 20.0174 4.40681 19.0464C4.40681 17.9633 3.5852 17.4778 2.83828 17.4778C2.20341 17.4778 1.23241 17.7766 1.23241 19.1584C1.23241 22.5942 4.59354 25.2831 8.5522 25.2831C12.6976 25.2831 15.872 22.034 15.872 18.2248C15.872 14.6022 12.8843 11.988 9.33646 11.5772C12.1747 10.9797 14.901 8.44016 14.901 5.04169C14.901 2.12871 11.9507 0 8.58954 0C5.19107 0 2.20341 2.09137 2.20341 5.07903C2.20341 6.38614 3.1744 6.61021 3.65989 6.61021C4.44415 6.61021 5.11638 6.12471 5.11638 5.15372C5.11638 4.18273 4.44415 3.69724 3.65989 3.69724C3.51051 3.69724 3.32378 3.69724 3.1744 3.77193C4.25743 1.3071 7.20775 0.858952 8.51485 0.858952C9.82195 0.858952 12.2868 1.49383 12.2868 5.07903C12.2868 6.12471 12.1374 7.992 10.8676 9.63522C9.74726 11.0917 8.4775 11.1664 7.24509 11.2784C7.05836 11.2784 6.19941 11.3531 6.05003 11.3531C5.7886 11.3905 5.63922 11.4278 5.63922 11.6892C5.63922 11.9507 5.67657 11.988 6.42348 11.988H8.25343Z" fill="black"/>
<path d="M21.3849 2.83829C21.7584 2.98767 23.2895 3.47317 24.8581 3.47317C28.3312 3.47317 30.2359 1.60588 31.3189 0.522849C31.3189 0.224083 31.3189 0.0373535 31.0948 0.0373535C31.0575 0.0373535 30.9828 0.0373532 30.684 0.186736C29.3769 0.746924 27.8457 1.19507 25.9784 1.19507C24.8581 1.19507 23.1775 1.04569 21.3476 0.224083C20.9367 0.0373546 20.8621 0.0373535 20.8247 0.0373535C20.638 0.0373535 20.6006 0.074699 20.6006 0.821615V11.6519C20.6006 12.3241 20.6006 12.5109 20.9741 12.5109C21.1608 12.5109 21.2355 12.4362 21.4222 12.1747C22.6173 10.4942 24.2605 9.78461 26.1278 9.78461C27.4349 9.78461 30.2359 10.6062 30.2359 16.9924C30.2359 18.1874 30.2359 20.3535 29.1155 22.0714C28.1818 23.6026 26.7254 24.3868 25.1195 24.3868C22.6547 24.3868 20.1525 22.6689 19.4803 19.7933C19.6296 19.8306 19.9284 19.9053 20.0778 19.9053C20.5633 19.9053 21.4969 19.6439 21.4969 18.4862C21.4969 17.4779 20.7874 17.0671 20.0778 17.0671C19.2188 17.0671 18.6587 17.5899 18.6587 18.6356C18.6587 21.8847 21.2355 25.2831 25.1942 25.2831C29.0408 25.2831 32.7007 21.9594 32.7007 17.1417C32.7007 12.6602 29.7877 9.18708 26.1652 9.18708C24.2605 9.18708 22.6547 9.89665 21.3849 11.2411V2.83829Z" fill="black"/>
<path d="M49.9402 12.6976C49.9402 10.4195 49.9028 6.53552 48.3343 3.54785C46.9525 0.933643 44.7491 0 42.8071 0C41.0145 0 38.7364 0.821606 37.3173 3.51051C35.8235 6.31144 35.6741 9.78461 35.6741 12.6976C35.6741 14.8263 35.7114 18.0754 36.8692 20.9137C38.475 24.7603 41.3507 25.2831 42.8071 25.2831C44.525 25.2831 47.1393 24.5736 48.6704 21.0257C49.7908 18.4488 49.9402 15.4238 49.9402 12.6976ZM42.8071 24.6856C40.417 24.6856 38.9979 22.6316 38.475 19.7933C38.0642 17.5899 38.0642 14.3781 38.0642 12.2868C38.0642 9.41115 38.0642 7.02101 38.5497 4.74292C39.2593 1.56852 41.3507 0.597532 42.8071 0.597532C44.3383 0.597532 46.3176 1.60587 47.0272 4.66823C47.5127 6.79694 47.5501 9.29911 47.5501 12.2868C47.5501 14.7143 47.5501 17.7019 47.1019 19.9053C46.3176 23.976 44.1142 24.6856 42.8071 24.6856Z" fill="black"/>
<path d="M67.0677 12.6976C67.0677 10.4195 67.0303 6.53552 65.4618 3.54785C64.08 0.933643 61.8766 0 59.9346 0C58.142 0 55.8639 0.821606 54.4448 3.51051C52.9509 6.31144 52.8016 9.78461 52.8016 12.6976C52.8016 14.8263 52.8389 18.0754 53.9966 20.9137C55.6025 24.7603 58.4781 25.2831 59.9346 25.2831C61.6525 25.2831 64.2667 24.5736 65.7979 21.0257C66.9183 18.4488 67.0677 15.4238 67.0677 12.6976ZM59.9346 24.6856C57.5445 24.6856 56.1253 22.6316 55.6025 19.7933C55.1917 17.5899 55.1917 14.3781 55.1917 12.2868C55.1917 9.41115 55.1917 7.02101 55.6772 4.74292C56.3868 1.56852 58.4781 0.597532 59.9346 0.597532C61.4658 0.597532 63.4451 1.60587 64.1547 4.66823C64.6402 6.79694 64.6775 9.29911 64.6775 12.2868C64.6775 14.7143 64.6775 17.7019 64.2294 19.9053C63.4451 23.976 61.2417 24.6856 59.9346 24.6856Z" fill="black"/>
<path d="M93.7266 7.28244C93.7266 6.08738 92.7183 4.92966 91.3365 4.92966C89.9173 4.92966 88.9463 6.08738 88.9463 7.28244C88.9463 8.47751 89.9547 9.63523 91.3365 9.63523C92.7556 9.63523 93.7266 8.47751 93.7266 7.28244ZM93.7266 23.4158C93.7266 22.2208 92.7183 21.0631 91.3365 21.0631C89.9173 21.0631 88.9463 22.2208 88.9463 23.4158C88.9463 24.6109 89.9547 25.7686 91.3365 25.7686C92.7556 25.7686 93.7266 24.6109 93.7266 23.4158ZM80.1701 14.6022C79.5352 14.6022 78.863 14.6022 78.863 15.3491C78.863 16.0961 79.5352 16.0961 80.1701 16.0961H102.503C103.138 16.0961 103.81 16.0961 103.81 15.3491C103.81 14.6022 103.138 14.6022 102.503 14.6022H80.1701Z" fill="black"/>
<path d="M124.089 0.821606C124.089 0.037344 124.051 0 123.529 0C122.072 1.75525 119.869 2.31544 117.777 2.39013C117.665 2.39013 117.479 2.39013 117.441 2.46482C117.404 2.53951 117.404 2.61421 117.404 3.39847C118.562 3.39847 120.504 3.17439 121.997 2.27809V21.9593C121.997 23.2664 121.923 23.7146 118.711 23.7146H117.591V24.6856C119.383 24.6482 121.251 24.6109 123.043 24.6109C124.836 24.6109 126.703 24.6482 128.496 24.6856V23.7146H127.375C124.164 23.7146 124.089 23.3038 124.089 21.9593V0.821606Z" fill="black"/>
<path d="M146.968 12.6976C146.968 10.4195 146.93 6.53552 145.362 3.54785C143.98 0.933643 141.777 0 139.835 0C138.042 0 135.764 0.821606 134.345 3.51051C132.851 6.31144 132.701 9.78461 132.701 12.6976C132.701 14.8263 132.739 18.0754 133.897 20.9137C135.502 24.7603 138.378 25.2831 139.835 25.2831C141.552 25.2831 144.167 24.5736 145.698 21.0257C146.818 18.4488 146.968 15.4238 146.968 12.6976ZM139.835 24.6856C137.444 24.6856 136.025 22.6316 135.502 19.7933C135.092 17.5899 135.092 14.3781 135.092 12.2868C135.092 9.41115 135.092 7.02101 135.577 4.74292C136.287 1.56852 138.378 0.597532 139.835 0.597532C141.366 0.597532 143.345 1.60587 144.055 4.66823C144.54 6.79694 144.577 9.29911 144.577 12.2868C144.577 14.7143 144.577 17.7019 144.129 19.9053C143.345 23.976 141.142 24.6856 139.835 24.6856Z" fill="black"/>
<path d="M164.095 12.6976C164.095 10.4195 164.058 6.53552 162.489 3.54785C161.107 0.933643 158.904 0 156.962 0C155.169 0 152.891 0.821606 151.472 3.51051C149.978 6.31144 149.829 9.78461 149.829 12.6976C149.829 14.8263 149.866 18.0754 151.024 20.9137C152.63 24.7603 155.506 25.2831 156.962 25.2831C158.68 25.2831 161.294 24.5736 162.825 21.0257C163.946 18.4488 164.095 15.4238 164.095 12.6976ZM156.962 24.6856C154.572 24.6856 153.153 22.6316 152.63 19.7933C152.219 17.5899 152.219 14.3781 152.219 12.2868C152.219 9.41115 152.219 7.02101 152.705 4.74292C153.414 1.56852 155.506 0.597532 156.962 0.597532C158.493 0.597532 160.473 1.60587 161.182 4.66823C161.668 6.79694 161.705 9.29911 161.705 12.2868C161.705 14.7143 161.705 17.7019 161.257 19.9053C160.473 23.976 158.269 24.6856 156.962 24.6856Z" fill="black"/>
<path d="M199.924 12.6976C200.485 12.6976 201.045 12.6976 201.045 12.0627C201.045 11.3905 200.41 11.3905 199.775 11.3905H178.899C178.264 11.3905 177.629 11.3905 177.629 12.0627C177.629 12.6976 178.189 12.6976 178.749 12.6976H199.924ZM199.775 19.3451C200.41 19.3451 201.045 19.3451 201.045 18.6729C201.045 18.038 200.485 18.038 199.924 18.038H178.749C178.189 18.038 177.629 18.038 177.629 18.6729C177.629 19.3451 178.264 19.3451 178.899 19.3451H199.775Z" fill="black"/>
<path d="M221.421 11.988C224.745 11.988 226.201 14.8636 226.201 18.1874C226.201 22.6689 223.811 24.3868 221.645 24.3868C219.666 24.3868 216.454 23.4158 215.446 20.5402C215.633 20.6149 215.819 20.6149 216.006 20.6149C216.902 20.6149 217.575 20.0174 217.575 19.0464C217.575 17.9633 216.753 17.4778 216.006 17.4778C215.371 17.4778 214.4 17.7766 214.4 19.1584C214.4 22.5942 217.761 25.2831 221.72 25.2831C225.865 25.2831 229.04 22.034 229.04 18.2248C229.04 14.6022 226.052 11.988 222.504 11.5772C225.343 10.9797 228.069 8.44016 228.069 5.04169C228.069 2.12871 225.118 0 221.757 0C218.359 0 215.371 2.09137 215.371 5.07903C215.371 6.38614 216.342 6.61021 216.828 6.61021C217.612 6.61021 218.284 6.12471 218.284 5.15372C218.284 4.18273 217.612 3.69724 216.828 3.69724C216.678 3.69724 216.492 3.69724 216.342 3.77193C217.425 1.3071 220.376 0.858952 221.683 0.858952C222.99 0.858952 225.455 1.49383 225.455 5.07903C225.455 6.12471 225.305 7.992 224.035 9.63522C222.915 11.0917 221.645 11.1664 220.413 11.2784C220.226 11.2784 219.367 11.3531 219.218 11.3531C218.956 11.3905 218.807 11.4278 218.807 11.6892C218.807 11.9507 218.844 11.988 219.591 11.988H221.421Z" fill="black"/>
<path d="M234.553 2.83829C234.926 2.98767 236.457 3.47317 238.026 3.47317C241.499 3.47317 243.404 1.60588 244.487 0.522849C244.487 0.224083 244.487 0.0373535 244.263 0.0373535C244.225 0.0373535 244.151 0.0373532 243.852 0.186736C242.545 0.746924 241.013 1.19507 239.146 1.19507C238.026 1.19507 236.345 1.04569 234.515 0.224083C234.105 0.0373546 234.03 0.0373535 233.992 0.0373535C233.806 0.0373535 233.768 0.074699 233.768 0.821615V11.6519C233.768 12.3241 233.768 12.5109 234.142 12.5109C234.329 12.5109 234.403 12.4362 234.59 12.1747C235.785 10.4942 237.428 9.78461 239.296 9.78461C240.603 9.78461 243.404 10.6062 243.404 16.9924C243.404 18.1874 243.404 20.3535 242.283 22.0714C241.35 23.6026 239.893 24.3868 238.287 24.3868C235.822 24.3868 233.32 22.6689 232.648 19.7933C232.797 19.8306 233.096 19.9053 233.246 19.9053C233.731 19.9053 234.665 19.6439 234.665 18.4862C234.665 17.4779 233.955 17.0671 233.246 17.0671C232.387 17.0671 231.826 17.5899 231.826 18.6356C231.826 21.8847 234.403 25.2831 238.362 25.2831C242.209 25.2831 245.868 21.9594 245.868 17.1417C245.868 12.6602 242.955 9.18708 239.333 9.18708C237.428 9.18708 235.822 9.89665 234.553 11.2411V2.83829Z" fill="black"/>
</g>
<defs>
<clipPath id="clip0_1_38">
<rect width="211.614" height="25.2831" fill="white" transform="translate(0 47)"/>
</clipPath>
<clipPath id="clip1_1_38">
<rect width="245.868" height="25.7686" fill="white"/>
</clipPath>
</defs>
</svg>
