<svg width="386" height="77" viewBox="0 0 386 77" fill="none" xmlns="http://www.w3.org/2000/svg">
<path d="M15.5732 18.897H14.9009C14.5275 21.5485 14.2287 21.9967 14.0793 22.2208C13.8926 22.5195 11.2037 22.5195 10.6809 22.5195H3.51046C4.85491 21.063 7.46912 18.4115 10.6435 15.3491C12.9216 13.1831 15.5732 10.6436 15.5732 6.94632C15.5732 2.53951 12.0627 0 8.14134 0C4.0333 0 1.53113 3.62254 1.53113 6.98367C1.53113 8.44016 2.61416 8.62688 3.06231 8.62688C3.43577 8.62688 4.55614 8.40281 4.55614 7.09571C4.55614 5.93798 3.58515 5.60187 3.06231 5.60187C2.83823 5.60187 2.61416 5.63922 2.46477 5.71391C3.17435 2.53951 5.3404 0.970989 7.6185 0.970989C10.8676 0.970989 12.9963 3.54785 12.9963 6.94632C12.9963 10.1954 11.0917 12.9963 8.96295 15.4238L1.53113 23.8266V24.6856H14.6769L15.5732 18.897Z" fill="black"/>
<path d="M21.3849 2.83829C21.7584 2.98767 23.2896 3.47317 24.8581 3.47317C28.3313 3.47317 30.2359 1.60588 31.3189 0.522849C31.3189 0.224083 31.3189 0.0373535 31.0949 0.0373535C31.0575 0.0373535 30.9828 0.0373532 30.684 0.186736C29.3769 0.746924 27.8458 1.19507 25.9785 1.19507C24.8581 1.19507 23.1775 1.04569 21.3476 0.224083C20.9368 0.0373546 20.8621 0.0373535 20.8247 0.0373535C20.638 0.0373535 20.6007 0.074699 20.6007 0.821615V11.6519C20.6007 12.3241 20.6007 12.5109 20.9741 12.5109C21.1609 12.5109 21.2356 12.4362 21.4223 12.1747C22.6173 10.4942 24.2606 9.78461 26.1279 9.78461C27.435 9.78461 30.2359 10.6062 30.2359 16.9924C30.2359 18.1874 30.2359 20.3535 29.1155 22.0714C28.1819 23.6026 26.7254 24.3868 25.1195 24.3868C22.6547 24.3868 20.1525 22.6689 19.4803 19.7933C19.6297 19.8306 19.9284 19.9053 20.0778 19.9053C20.5633 19.9053 21.497 19.6439 21.497 18.4862C21.497 17.4779 20.7874 17.0671 20.0778 17.0671C19.2189 17.0671 18.6587 17.5899 18.6587 18.6356C18.6587 21.8847 21.2356 25.2831 25.1942 25.2831C29.0408 25.2831 32.7007 21.9594 32.7007 17.1417C32.7007 12.6602 29.7877 9.18708 26.1652 9.18708C24.2606 9.18708 22.6547 9.89665 21.3849 11.2411V2.83829Z" fill="black"/>
<path d="M49.9402 12.6976C49.9402 10.4195 49.9028 6.53552 48.3343 3.54785C46.9525 0.933643 44.7491 0 42.8071 0C41.0145 0 38.7364 0.821606 37.3173 3.51051C35.8235 6.31144 35.6741 9.78461 35.6741 12.6976C35.6741 14.8263 35.7114 18.0754 36.8691 20.9137C38.475 24.7603 41.3506 25.2831 42.8071 25.2831C44.525 25.2831 47.1392 24.5736 48.6704 21.0257C49.7908 18.4488 49.9402 15.4238 49.9402 12.6976ZM42.8071 24.6856C40.417 24.6856 38.9979 22.6316 38.475 19.7933C38.0642 17.5899 38.0642 14.3781 38.0642 12.2868C38.0642 9.41115 38.0642 7.02101 38.5497 4.74292C39.2593 1.56852 41.3506 0.597532 42.8071 0.597532C44.3383 0.597532 46.3176 1.60587 47.0272 4.66823C47.5127 6.79694 47.55 9.29911 47.55 12.2868C47.55 14.7143 47.55 17.7019 47.1019 19.9053C46.3176 23.976 44.1142 24.6856 42.8071 24.6856Z" fill="black"/>
<path d="M84.2923 16.096C84.9272 16.096 85.5994 16.096 85.5994 15.3491C85.5994 14.6022 84.9272 14.6022 84.2923 14.6022H64.0882C63.4534 14.6022 62.7811 14.6022 62.7811 15.3491C62.7811 16.096 63.4534 16.096 64.0882 16.096H84.2923Z" fill="black"/>
<path d="M112.601 18.897H111.928C111.555 21.5485 111.256 21.9967 111.107 22.2208C110.92 22.5195 108.231 22.5195 107.708 22.5195H100.538C101.882 21.063 104.497 18.4115 107.671 15.3491C109.949 13.1831 112.601 10.6436 112.601 6.94632C112.601 2.53951 109.09 0 105.169 0C101.061 0 98.5586 3.62254 98.5586 6.98367C98.5586 8.44016 99.6416 8.62688 100.09 8.62688C100.463 8.62688 101.584 8.40281 101.584 7.09571C101.584 5.93798 100.613 5.60187 100.09 5.60187C99.8657 5.60187 99.6416 5.63922 99.4922 5.71391C100.202 2.53951 102.368 0.970989 104.646 0.970989C107.895 0.970989 110.024 3.54785 110.024 6.94632C110.024 10.1954 108.119 12.9963 105.99 15.4238L98.5586 23.8266V24.6856H111.704L112.601 18.897Z" fill="black"/>
<path d="M129.84 12.6976C129.84 10.4195 129.803 6.53552 128.234 3.54785C126.852 0.933643 124.649 0 122.707 0C120.914 0 118.636 0.821606 117.217 3.51051C115.723 6.31144 115.574 9.78461 115.574 12.6976C115.574 14.8263 115.611 18.0754 116.769 20.9137C118.375 24.7603 121.251 25.2831 122.707 25.2831C124.425 25.2831 127.039 24.5736 128.57 21.0257C129.691 18.4488 129.84 15.4238 129.84 12.6976ZM122.707 24.6856C120.317 24.6856 118.898 22.6316 118.375 19.7933C117.964 17.5899 117.964 14.3781 117.964 12.2868C117.964 9.41115 117.964 7.02101 118.45 4.74292C119.159 1.56852 121.251 0.597532 122.707 0.597532C124.238 0.597532 126.218 1.60587 126.927 4.66823C127.413 6.79694 127.45 9.29911 127.45 12.2868C127.45 14.7143 127.45 17.7019 127.002 19.9053C126.218 23.976 124.014 24.6856 122.707 24.6856Z" fill="black"/>
<path d="M146.968 12.6976C146.968 10.4195 146.93 6.53552 145.362 3.54785C143.98 0.933643 141.776 0 139.834 0C138.042 0 135.764 0.821606 134.345 3.51051C132.851 6.31144 132.701 9.78461 132.701 12.6976C132.701 14.8263 132.739 18.0754 133.896 20.9137C135.502 24.7603 138.378 25.2831 139.834 25.2831C141.552 25.2831 144.167 24.5736 145.698 21.0257C146.818 18.4488 146.968 15.4238 146.968 12.6976ZM139.834 24.6856C137.444 24.6856 136.025 22.6316 135.502 19.7933C135.092 17.5899 135.092 14.3781 135.092 12.2868C135.092 9.41115 135.092 7.02101 135.577 4.74292C136.287 1.56852 138.378 0.597532 139.834 0.597532C141.366 0.597532 143.345 1.60587 144.055 4.66823C144.54 6.79694 144.577 9.29911 144.577 12.2868C144.577 14.7143 144.577 17.7019 144.129 19.9053C143.345 23.976 141.142 24.6856 139.834 24.6856Z" fill="black"/>
<path d="M148.41 39.867H0V41.3608H148.41V39.867Z" fill="black"/>
<path d="M64.0868 69.7791H63.4146C63.0411 72.4307 62.7424 72.8788 62.593 73.1029C62.4063 73.4017 59.7174 73.4017 59.1945 73.4017H52.0241C53.3686 71.9452 55.9828 69.2936 59.1572 66.2313C61.4353 64.0652 64.0868 61.5257 64.0868 57.8285C64.0868 53.4217 60.5763 50.8821 56.655 50.8821C52.547 50.8821 50.0448 54.5047 50.0448 57.8658C50.0448 59.3223 51.1278 59.509 51.576 59.509C51.9494 59.509 53.0698 59.285 53.0698 57.9778C53.0698 56.8201 52.0988 56.484 51.576 56.484C51.3519 56.484 51.1278 56.5214 50.9784 56.5961C51.688 53.4217 53.8541 51.8531 56.1322 51.8531C59.3813 51.8531 61.51 54.43 61.51 57.8285C61.51 61.0775 59.6053 63.8785 57.4766 66.306L50.0448 74.7088V75.5677H63.1905L64.0868 69.7791Z" fill="black"/>
<path d="M81.3264 63.5797C81.3264 61.3016 81.2891 57.4177 79.7205 54.43C78.3387 51.8158 76.1353 50.8821 74.1934 50.8821C72.4008 50.8821 70.1227 51.7037 68.7035 54.3926C67.2097 57.1936 67.0603 60.6667 67.0603 63.5797C67.0603 65.7084 67.0976 68.9575 68.2554 71.7958C69.8612 75.6424 72.7369 76.1653 74.1934 76.1653C75.9113 76.1653 78.5255 75.4557 80.0567 71.9078C81.177 69.331 81.3264 66.306 81.3264 63.5797ZM74.1934 75.5677C71.8032 75.5677 70.3841 73.5137 69.8612 70.6754C69.4504 68.472 69.4504 65.2603 69.4504 63.1689C69.4504 60.2933 69.4504 57.9032 69.9359 55.6251C70.6455 52.4507 72.7369 51.4797 74.1934 51.4797C75.7245 51.4797 77.7039 52.488 78.4134 55.5504C78.8989 57.6791 78.9363 60.1813 78.9363 63.1689C78.9363 65.5964 78.9363 68.5841 78.4881 70.7875C77.7039 74.8582 75.5005 75.5677 74.1934 75.5677Z" fill="black"/>
<path d="M98.4538 63.5797C98.4538 61.3016 98.4165 57.4177 96.848 54.43C95.4662 51.8158 93.2628 50.8821 91.3208 50.8821C89.5282 50.8821 87.2501 51.7037 85.831 54.3926C84.3371 57.1936 84.1877 60.6667 84.1877 63.5797C84.1877 65.7084 84.2251 68.9575 85.3828 71.7958C86.9887 75.6424 89.8643 76.1653 91.3208 76.1653C93.0387 76.1653 95.6529 75.4557 97.1841 71.9078C98.3045 69.331 98.4538 66.306 98.4538 63.5797ZM91.3208 75.5677C88.9307 75.5677 87.5115 73.5137 86.9887 70.6754C86.5779 68.472 86.5779 65.2603 86.5779 63.1689C86.5779 60.2933 86.5779 57.9032 87.0634 55.6251C87.7729 52.4507 89.8643 51.4797 91.3208 51.4797C92.852 51.4797 94.8313 52.488 95.5409 55.5504C96.0264 57.6791 96.0637 60.1813 96.0637 63.1689C96.0637 65.5964 96.0637 68.5841 95.6156 70.7875C94.8313 74.8582 92.6279 75.5677 91.3208 75.5677Z" fill="black"/>
<path d="M173.038 39.5682L165.568 32.1364C165.12 31.6882 165.046 31.6135 164.747 31.6135C164.373 31.6135 164 31.9496 164 32.3604C164 32.6219 164.075 32.6966 164.485 33.1074L171.955 40.6139L164.485 48.1204C164.075 48.5312 164 48.6059 164 48.8673C164 49.2781 164.373 49.6142 164.747 49.6142C165.046 49.6142 165.12 49.5395 165.568 49.0914L173 41.6596L180.731 49.3901C180.806 49.4275 181.067 49.6142 181.291 49.6142C181.739 49.6142 182.038 49.2781 182.038 48.8673C182.038 48.7926 182.038 48.6432 181.926 48.4565C181.889 48.3818 175.951 42.5185 174.083 40.6139L180.918 33.7796C181.104 33.5555 181.664 33.07 181.851 32.8459C181.889 32.7712 182.038 32.6219 182.038 32.3604C182.038 31.9496 181.739 31.6135 181.291 31.6135C180.992 31.6135 180.843 31.7629 180.432 32.1737L173.038 39.5682Z" fill="black"/>
<path d="M205.79 26.0863C205.79 25.3021 205.753 25.2647 205.23 25.2647C203.773 27.02 201.57 27.5802 199.478 27.6549C199.366 27.6549 199.18 27.6549 199.142 27.7296C199.105 27.8043 199.105 27.8789 199.105 28.6632C200.263 28.6632 202.205 28.4391 203.699 27.5428V47.2241C203.699 48.5312 203.624 48.9793 200.412 48.9793H199.292V49.9503C201.084 49.913 202.952 49.8756 204.744 49.8756C206.537 49.8756 208.404 49.913 210.197 49.9503V48.9793H209.076C205.865 48.9793 205.79 48.5685 205.79 47.2241V26.0863Z" fill="black"/>
<path d="M228.669 37.9623C228.669 35.6842 228.631 31.8003 227.063 28.8126C225.681 26.1984 223.478 25.2647 221.536 25.2647C219.743 25.2647 217.465 26.0863 216.046 28.7752C214.552 31.5762 214.403 35.0493 214.403 37.9623C214.403 40.091 214.44 43.3401 215.598 46.1784C217.204 50.025 220.079 50.5479 221.536 50.5479C223.254 50.5479 225.868 49.8383 227.399 46.2904C228.519 43.7136 228.669 40.6886 228.669 37.9623ZM221.536 49.9503C219.146 49.9503 217.726 47.8963 217.204 45.058C216.793 42.8546 216.793 39.6429 216.793 37.5515C216.793 34.6759 216.793 32.2858 217.278 30.0077C217.988 26.8333 220.079 25.8623 221.536 25.8623C223.067 25.8623 225.046 26.8706 225.756 29.933C226.241 32.0617 226.279 34.5638 226.279 37.5515C226.279 39.979 226.279 42.9667 225.83 45.1701C225.046 49.2408 222.843 49.9503 221.536 49.9503Z" fill="black"/>
<path d="M245.796 37.9623C245.796 35.6842 245.759 31.8003 244.19 28.8126C242.808 26.1984 240.605 25.2647 238.663 25.2647C236.87 25.2647 234.592 26.0863 233.173 28.7752C231.679 31.5762 231.53 35.0493 231.53 37.9623C231.53 40.091 231.567 43.3401 232.725 46.1784C234.331 50.025 237.207 50.5479 238.663 50.5479C240.381 50.5479 242.995 49.8383 244.526 46.2904C245.647 43.7136 245.796 40.6886 245.796 37.9623ZM238.663 49.9503C236.273 49.9503 234.854 47.8963 234.331 45.058C233.92 42.8546 233.92 39.6429 233.92 37.5515C233.92 34.6759 233.92 32.2858 234.406 30.0077C235.115 26.8333 237.207 25.8623 238.663 25.8623C240.194 25.8623 242.174 26.8706 242.883 29.933C243.369 32.0617 243.406 34.5638 243.406 37.5515C243.406 39.979 243.406 42.9667 242.958 45.1701C242.174 49.2408 239.97 49.9503 238.663 49.9503Z" fill="black"/>
<path d="M274.314 44.4978C274.314 40.1657 272.185 36.9913 269.683 36.9913C267.144 36.9913 264.567 39.9416 264.567 44.4978C264.567 49.054 267.106 52.0043 269.683 52.0043C272.185 52.0043 274.314 48.8673 274.314 44.4978ZM269.721 51.4068C268.75 51.4068 266.322 50.5105 266.322 44.4978C266.322 38.4478 268.75 37.5889 269.721 37.5889C271.775 37.5889 273.642 40.5392 273.642 44.4978C273.642 48.4565 271.775 51.4068 269.721 51.4068ZM271.065 23.2854C271.326 22.8746 271.364 22.8373 271.364 22.6505C271.364 22.2024 271.028 21.9783 270.729 21.9783C270.355 21.9783 270.206 22.2397 269.945 22.5385C267.779 25.6382 264.791 25.9743 263.26 25.9743C259.525 25.9743 257.247 23.8082 256.538 23.136C256.052 22.6879 255.342 21.9783 254.073 21.9783C251.533 21.9783 248.956 24.9286 248.956 29.4848C248.956 34.041 251.496 36.9913 254.073 36.9913C256.575 36.9913 258.704 33.8543 258.704 29.4848C258.704 26.9079 257.919 25.1527 257.807 24.9286C260.085 26.3851 262.326 26.5718 263.297 26.5718C265.687 26.5718 267.405 25.6755 268.339 25.0407L268.376 25.078L252.243 50.6226C251.907 51.1454 251.907 51.2201 251.907 51.3321C251.907 51.7429 252.243 52.0043 252.579 52.0043C252.915 52.0043 253.027 51.8176 253.288 51.4068L271.065 23.2854ZM254.11 36.3938C253.139 36.3938 250.712 35.4975 250.712 29.4848C250.712 23.4348 253.139 22.5758 254.11 22.5758C256.164 22.5758 258.031 25.5262 258.031 29.4848C258.031 33.4435 256.164 36.3938 254.11 36.3938Z" fill="black"/>
<path d="M310.46 37.9623C311.02 37.9623 311.58 37.9623 311.58 37.3274C311.58 36.6552 310.945 36.6552 310.31 36.6552H289.434C288.799 36.6552 288.164 36.6552 288.164 37.3274C288.164 37.9623 288.724 37.9623 289.284 37.9623H310.46ZM310.31 44.6099C310.945 44.6099 311.58 44.6099 311.58 43.9376C311.58 43.3028 311.02 43.3028 310.46 43.3028H289.284C288.724 43.3028 288.164 43.3028 288.164 43.9376C288.164 44.6099 288.799 44.6099 289.434 44.6099H310.31Z" fill="black"/>
<path d="M339.276 44.1617H338.604C338.23 46.8133 337.932 47.2614 337.782 47.4855C337.595 47.7843 334.907 47.7843 334.384 47.7843H327.213C328.558 46.3278 331.172 43.6762 334.346 40.6139C336.624 38.4478 339.276 35.9083 339.276 32.2111C339.276 27.8043 335.766 25.2647 331.844 25.2647C327.736 25.2647 325.234 28.8873 325.234 32.2484C325.234 33.7049 326.317 33.8916 326.765 33.8916C327.139 33.8916 328.259 33.6676 328.259 32.3604C328.259 31.2027 327.288 30.8666 326.765 30.8666C326.541 30.8666 326.317 30.904 326.168 30.9787C326.877 27.8043 329.043 26.2357 331.321 26.2357C334.57 26.2357 336.699 28.8126 336.699 32.2111C336.699 35.4601 334.795 38.2611 332.666 40.6886L325.234 49.0914V49.9503H338.38L339.276 44.1617Z" fill="black"/>
<path d="M345.088 28.103C345.461 28.2524 346.992 28.7379 348.561 28.7379C352.034 28.7379 353.939 26.8706 355.022 25.7876C355.022 25.4888 355.022 25.3021 354.798 25.3021C354.76 25.3021 354.686 25.3021 354.387 25.4515C353.08 26.0116 351.549 26.4598 349.681 26.4598C348.561 26.4598 346.88 26.3104 345.05 25.4888C344.64 25.3021 344.565 25.3021 344.528 25.3021C344.341 25.3021 344.303 25.3394 344.303 26.0863V36.9166C344.303 37.5889 344.303 37.7756 344.677 37.7756C344.864 37.7756 344.938 37.7009 345.125 37.4395C346.32 35.7589 347.963 35.0493 349.831 35.0493C351.138 35.0493 353.939 35.8709 353.939 42.2571C353.939 43.4522 353.939 45.6182 352.818 47.3361C351.885 48.8673 350.428 49.6516 348.822 49.6516C346.357 49.6516 343.855 47.9336 343.183 45.058C343.332 45.0954 343.631 45.1701 343.781 45.1701C344.266 45.1701 345.2 44.9086 345.2 43.7509C345.2 42.7426 344.49 42.3318 343.781 42.3318C342.922 42.3318 342.361 42.8546 342.361 43.9003C342.361 47.1494 344.938 50.5479 348.897 50.5479C352.744 50.5479 356.403 47.2241 356.403 42.4065C356.403 37.925 353.491 34.4518 349.868 34.4518C347.963 34.4518 346.357 35.1614 345.088 36.5058V28.103Z" fill="black"/>
<path d="M385.033 44.4978C385.033 40.1657 382.905 36.9913 380.403 36.9913C377.863 36.9913 375.286 39.9416 375.286 44.4978C375.286 49.054 377.826 52.0043 380.403 52.0043C382.905 52.0043 385.033 48.8673 385.033 44.4978ZM380.44 51.4068C379.469 51.4068 377.041 50.5105 377.041 44.4978C377.041 38.4478 379.469 37.5889 380.44 37.5889C382.494 37.5889 384.361 40.5392 384.361 44.4978C384.361 48.4565 382.494 51.4068 380.44 51.4068ZM381.784 23.2854C382.046 22.8746 382.083 22.8373 382.083 22.6505C382.083 22.2024 381.747 21.9783 381.448 21.9783C381.075 21.9783 380.925 22.2397 380.664 22.5385C378.498 25.6382 375.51 25.9743 373.979 25.9743C370.245 25.9743 367.966 23.8082 367.257 23.136C366.771 22.6879 366.062 21.9783 364.792 21.9783C362.253 21.9783 359.676 24.9286 359.676 29.4848C359.676 34.041 362.215 36.9913 364.792 36.9913C367.294 36.9913 369.423 33.8543 369.423 29.4848C369.423 26.9079 368.639 25.1527 368.527 24.9286C370.805 26.3851 373.045 26.5718 374.016 26.5718C376.407 26.5718 378.124 25.6755 379.058 25.0407L379.095 25.078L362.962 50.6226C362.626 51.1454 362.626 51.2201 362.626 51.3321C362.626 51.7429 362.962 52.0043 363.298 52.0043C363.634 52.0043 363.746 51.8176 364.008 51.4068L381.784 23.2854ZM364.829 36.3938C363.858 36.3938 361.431 35.4975 361.431 29.4848C361.431 23.4348 363.858 22.5758 364.829 22.5758C366.883 22.5758 368.751 25.5262 368.751 29.4848C368.751 33.4435 366.883 36.3938 364.829 36.3938Z" fill="black"/>
</svg>
