<svg width="228" height="80" viewBox="0 0 228 80" fill="none" xmlns="http://www.w3.org/2000/svg">
<g clip-path="url(#clip0_1_89)">
<path d="M15.5732 18.897H14.901C14.5275 21.5485 14.2287 21.9967 14.0794 22.2208C13.8926 22.5195 11.2037 22.5195 10.6809 22.5195H3.51049C4.85494 21.063 7.46915 18.4115 10.6435 15.3491C12.9216 13.1831 15.5732 10.6436 15.5732 6.94632C15.5732 2.53951 12.0627 0 8.14137 0C4.03333 0 1.53116 3.62254 1.53116 6.98367C1.53116 8.44016 2.61419 8.62688 3.06234 8.62688C3.4358 8.62688 4.55617 8.40281 4.55617 7.09571C4.55617 5.93798 3.58518 5.60187 3.06234 5.60187C2.83826 5.60187 2.61419 5.63922 2.46481 5.71391C3.17438 2.53951 5.34043 0.970989 7.61853 0.970989C10.8676 0.970989 12.9963 3.54785 12.9963 6.94632C12.9963 10.1954 11.0917 12.9963 8.96298 15.4238L1.53116 23.8266V24.6856H14.6769L15.5732 18.897Z" fill="black"/>
<path d="M32.8127 12.6976C32.8127 10.4195 32.7754 6.53552 31.2068 3.54785C29.825 0.933643 27.6216 0 25.6797 0C23.8871 0 21.609 0.821606 20.1898 3.51051C18.696 6.31144 18.5466 9.78461 18.5466 12.6976C18.5466 14.8263 18.5839 18.0754 19.7417 20.9137C21.3475 24.7603 24.2232 25.2831 25.6797 25.2831C27.3976 25.2831 30.0118 24.5736 31.5429 21.0257C32.6633 18.4488 32.8127 15.4238 32.8127 12.6976ZM25.6797 24.6856C23.2895 24.6856 21.8704 22.6316 21.3475 19.7933C20.9367 17.5899 20.9367 14.3781 20.9367 12.2868C20.9367 9.41115 20.9367 7.02101 21.4222 4.74292C22.1318 1.56852 24.2232 0.597532 25.6797 0.597532C27.2108 0.597532 29.1902 1.60587 29.8997 4.66823C30.3852 6.79694 30.4226 9.29911 30.4226 12.2868C30.4226 14.7143 30.4226 17.7019 29.9744 19.9053C29.1902 23.976 26.9868 24.6856 25.6797 24.6856Z" fill="black"/>
<path d="M59.4716 7.28244C59.4716 6.08738 58.4633 4.92966 57.0815 4.92966C55.6624 4.92966 54.6914 6.08738 54.6914 7.28244C54.6914 8.47751 55.6997 9.63523 57.0815 9.63523C58.5007 9.63523 59.4716 8.47751 59.4716 7.28244ZM59.4716 23.4158C59.4716 22.2208 58.4633 21.0631 57.0815 21.0631C55.6624 21.0631 54.6914 22.2208 54.6914 23.4158C54.6914 24.6109 55.6997 25.7686 57.0815 25.7686C58.5007 25.7686 59.4716 24.6109 59.4716 23.4158ZM45.9151 14.6022C45.2802 14.6022 44.608 14.6022 44.608 15.3491C44.608 16.0961 45.2802 16.0961 45.9151 16.0961H68.2479C68.8828 16.0961 69.555 16.0961 69.555 15.3491C69.555 14.6022 68.8828 14.6022 68.2479 14.6022H45.9151Z" fill="black"/>
<path d="M89.8339 0.821606C89.8339 0.037344 89.7965 0 89.2737 0C87.8172 1.75525 85.6138 2.31544 83.5224 2.39013C83.4104 2.39013 83.2236 2.39013 83.1863 2.46482C83.149 2.53951 83.149 2.61421 83.149 3.39847C84.3067 3.39847 86.2487 3.17439 87.7425 2.27809V21.9593C87.7425 23.2664 87.6678 23.7146 84.4561 23.7146H83.3357V24.6856C85.1283 24.6482 86.9956 24.6109 88.7882 24.6109C90.5808 24.6109 92.4481 24.6482 94.2407 24.6856V23.7146H93.1203C89.9086 23.7146 89.8339 23.3038 89.8339 21.9593V0.821606Z" fill="black"/>
<path d="M112.713 12.6976C112.713 10.4195 112.675 6.53552 111.107 3.54785C109.725 0.933643 107.522 0 105.58 0C103.787 0 101.509 0.821606 100.09 3.51051C98.5959 6.31144 98.4465 9.78461 98.4465 12.6976C98.4465 14.8263 98.4838 18.0754 99.6416 20.9137C101.247 24.7603 104.123 25.2831 105.58 25.2831C107.297 25.2831 109.912 24.5736 111.443 21.0257C112.563 18.4488 112.713 15.4238 112.713 12.6976ZM105.58 24.6856C103.189 24.6856 101.77 22.6316 101.247 19.7933C100.837 17.5899 100.837 14.3781 100.837 12.2868C100.837 9.41115 100.837 7.02101 101.322 4.74292C102.032 1.56852 104.123 0.597532 105.58 0.597532C107.111 0.597532 109.09 1.60587 109.8 4.66823C110.285 6.79694 110.322 9.29911 110.322 12.2868C110.322 14.7143 110.322 17.7019 109.874 19.9053C109.09 23.976 106.887 24.6856 105.58 24.6856Z" fill="black"/>
<path d="M129.84 12.6976C129.84 10.4195 129.803 6.53552 128.234 3.54785C126.852 0.933643 124.649 0 122.707 0C120.914 0 118.636 0.821606 117.217 3.51051C115.723 6.31144 115.574 9.78461 115.574 12.6976C115.574 14.8263 115.611 18.0754 116.769 20.9137C118.375 24.7603 121.251 25.2831 122.707 25.2831C124.425 25.2831 127.039 24.5736 128.57 21.0257C129.691 18.4488 129.84 15.4238 129.84 12.6976ZM122.707 24.6856C120.317 24.6856 118.898 22.6316 118.375 19.7933C117.964 17.5899 117.964 14.3781 117.964 12.2868C117.964 9.41115 117.964 7.02101 118.45 4.74292C119.159 1.56852 121.251 0.597532 122.707 0.597532C124.238 0.597532 126.218 1.60587 126.927 4.66823C127.413 6.79694 127.45 9.29911 127.45 12.2868C127.45 14.7143 127.45 17.7019 127.002 19.9053C126.218 23.976 124.014 24.6856 122.707 24.6856Z" fill="black"/>
<path d="M165.669 12.6976C166.23 12.6976 166.79 12.6976 166.79 12.0627C166.79 11.3905 166.155 11.3905 165.52 11.3905H144.644C144.009 11.3905 143.374 11.3905 143.374 12.0627C143.374 12.6976 143.934 12.6976 144.494 12.6976H165.669ZM165.52 19.3451C166.155 19.3451 166.79 19.3451 166.79 18.6729C166.79 18.038 166.23 18.038 165.669 18.038H144.494C143.934 18.038 143.374 18.038 143.374 18.6729C143.374 19.3451 144.009 19.3451 144.644 19.3451H165.52Z" fill="black"/>
<path d="M194.598 12.6976C194.598 10.4195 194.561 6.53552 192.992 3.54785C191.61 0.933643 189.407 0 187.465 0C185.672 0 183.394 0.821606 181.975 3.51051C180.481 6.31144 180.332 9.78461 180.332 12.6976C180.332 14.8263 180.369 18.0754 181.527 20.9137C183.133 24.7603 186.009 25.2831 187.465 25.2831C189.183 25.2831 191.797 24.5736 193.328 21.0257C194.449 18.4488 194.598 15.4238 194.598 12.6976ZM187.465 24.6856C185.075 24.6856 183.656 22.6316 183.133 19.7933C182.722 17.5899 182.722 14.3781 182.722 12.2868C182.722 9.41115 182.722 7.02101 183.208 4.74292C183.917 1.56852 186.009 0.597532 187.465 0.597532C188.996 0.597532 190.976 1.60587 191.685 4.66823C192.171 6.79694 192.208 9.29911 192.208 12.2868C192.208 14.7143 192.208 17.7019 191.76 19.9053C190.976 23.976 188.772 24.6856 187.465 24.6856Z" fill="black"/>
<path d="M203.323 24.835C203.323 22.6689 202.613 21.063 201.082 21.063C199.887 21.063 199.289 22.034 199.289 22.8556C199.289 23.6773 199.85 24.6856 201.119 24.6856C201.605 24.6856 202.016 24.5362 202.352 24.2001C202.426 24.1254 202.464 24.1254 202.501 24.1254C202.576 24.1254 202.576 24.6482 202.576 24.835C202.576 26.0674 202.352 28.4949 200.186 30.9223C199.775 31.3705 199.775 31.4452 199.775 31.5199C199.775 31.7066 199.962 31.8933 200.148 31.8933C200.447 31.8933 203.323 29.1297 203.323 24.835Z" fill="black"/>
<path d="M227.995 18.897H227.323C226.95 21.5485 226.651 21.9967 226.502 22.2208C226.315 22.5195 223.626 22.5195 223.103 22.5195H215.933C217.277 21.063 219.891 18.4115 223.066 15.3491C225.344 13.1831 227.995 10.6436 227.995 6.94632C227.995 2.53951 224.485 0 220.564 0C216.456 0 213.953 3.62254 213.953 6.98367C213.953 8.44016 215.036 8.62688 215.485 8.62688C215.858 8.62688 216.978 8.40281 216.978 7.09571C216.978 5.93798 216.007 5.60187 215.485 5.60187C215.26 5.60187 215.036 5.63922 214.887 5.71391C215.597 2.53951 217.763 0.970989 220.041 0.970989C223.29 0.970989 225.419 3.54785 225.419 6.94632C225.419 10.1954 223.514 12.9963 221.385 15.4238L213.953 23.8266V24.6856H227.099L227.995 18.897Z" fill="black"/>
</g>
<g clip-path="url(#clip1_1_89)">
<path d="M15.6852 60.2951C15.6852 58.017 15.6479 54.1331 14.0794 51.1454C12.6976 48.5312 10.4942 47.5975 8.55218 47.5975C6.75958 47.5975 4.48149 48.4191 3.06234 51.108C1.56851 53.909 1.41913 57.3821 1.41913 60.2951C1.41913 62.4238 1.45647 65.6729 2.6142 68.5112C4.22007 72.3578 7.09569 72.8807 8.55218 72.8807C10.2701 72.8807 12.8843 72.1711 14.4155 68.6232C15.5359 66.0464 15.6852 63.0214 15.6852 60.2951ZM8.55218 72.2831C6.16205 72.2831 4.74291 70.2291 4.22007 67.3908C3.80926 65.1874 3.80926 61.9757 3.80926 59.8843C3.80926 57.0087 3.80926 54.6185 4.29476 52.3405C5.00433 49.1661 7.09569 48.1951 8.55218 48.1951C10.0834 48.1951 12.0627 49.2034 12.7723 52.2658C13.2578 54.3945 13.2951 56.8966 13.2951 59.8843C13.2951 62.3118 13.2951 65.2995 12.847 67.5029C12.0627 71.5736 9.85929 72.2831 8.55218 72.2831Z" fill="black"/>
<path d="M24.4099 72.4325C24.4099 70.2665 23.7003 68.6606 22.1692 68.6606C20.9741 68.6606 20.3766 69.6316 20.3766 70.4532C20.3766 71.2748 20.9367 72.2831 22.2065 72.2831C22.692 72.2831 23.1028 72.1337 23.4389 71.7976C23.5136 71.7229 23.551 71.7229 23.5883 71.7229C23.663 71.7229 23.663 72.2458 23.663 72.4325C23.663 73.6649 23.4389 76.0924 21.2729 78.5199C20.8621 78.968 20.8621 79.0427 20.8621 79.1174C20.8621 79.3041 21.0488 79.4909 21.2355 79.4909C21.5343 79.4909 24.4099 76.7273 24.4099 72.4325Z" fill="black"/>
<path d="M49.0826 66.4945H48.4103C48.0369 69.1461 47.7381 69.5942 47.5887 69.8183C47.402 70.1171 44.7131 70.1171 44.1903 70.1171H37.0199C38.3643 68.6606 40.9785 66.009 44.1529 62.9467C46.431 60.7806 49.0826 58.2411 49.0826 54.5439C49.0826 50.137 45.5721 47.5975 41.6507 47.5975C37.5427 47.5975 35.0405 51.2201 35.0405 54.5812C35.0405 56.0377 36.1236 56.2244 36.5717 56.2244C36.9452 56.2244 38.0655 56.0003 38.0655 54.6932C38.0655 53.5355 37.0945 53.1994 36.5717 53.1994C36.3476 53.1994 36.1236 53.2368 35.9742 53.3114C36.6837 50.137 38.8498 48.5685 41.1279 48.5685C44.377 48.5685 46.5057 51.1454 46.5057 54.5439C46.5057 57.7929 44.6011 60.5939 42.4723 63.0214L35.0405 71.4242V72.2831H48.1863L49.0826 66.4945Z" fill="black"/>
<path d="M73.4634 61.901L65.9942 54.4692C65.5461 54.021 65.4714 53.9463 65.1726 53.9463C64.7992 53.9463 64.4257 54.2824 64.4257 54.6932C64.4257 54.9547 64.5004 55.0293 64.9112 55.4402L72.3804 62.9467L64.9112 70.4532C64.5004 70.864 64.4257 70.9387 64.4257 71.2001C64.4257 71.6109 64.7992 71.947 65.1726 71.947C65.4714 71.947 65.5461 71.8723 65.9942 71.4242L73.4261 63.9923L81.1567 71.7229C81.2313 71.7603 81.4928 71.947 81.7168 71.947C82.165 71.947 82.4638 71.6109 82.4638 71.2001C82.4638 71.1254 82.4638 70.976 82.3517 70.7893C82.3144 70.7146 76.3764 64.8513 74.5091 62.9467L81.3434 56.1124C81.5301 55.8883 82.0903 55.4028 82.277 55.1787C82.3144 55.104 82.4638 54.9547 82.4638 54.6932C82.4638 54.2824 82.165 53.9463 81.7168 53.9463C81.4181 53.9463 81.2687 54.0957 80.8579 54.5065L73.4634 61.901Z" fill="black"/>
<path d="M104.535 59.5855C107.859 59.5855 109.315 62.4612 109.315 65.785C109.315 70.2665 106.925 71.9844 104.759 71.9844C102.78 71.9844 99.5682 71.0134 98.5599 68.1377C98.7466 68.2124 98.9333 68.2124 99.1201 68.2124C100.016 68.2124 100.689 67.6149 100.689 66.6439C100.689 65.5609 99.867 65.0754 99.1201 65.0754C98.4852 65.0754 97.5142 65.3741 97.5142 66.7559C97.5142 70.1918 100.875 72.8807 104.834 72.8807C108.979 72.8807 112.154 69.6316 112.154 65.8223C112.154 62.1998 109.166 59.5855 105.618 59.1747C108.457 58.5772 111.183 56.0377 111.183 52.6392C111.183 49.7262 108.232 47.5975 104.871 47.5975C101.473 47.5975 98.4852 49.6889 98.4852 52.6766C98.4852 53.9837 99.4562 54.2077 99.9417 54.2077C100.726 54.2077 101.398 53.7222 101.398 52.7513C101.398 51.7803 100.726 51.2948 99.9417 51.2948C99.7923 51.2948 99.6056 51.2948 99.4562 51.3695C100.539 48.9046 103.49 48.4565 104.797 48.4565C106.104 48.4565 108.569 49.0914 108.569 52.6766C108.569 53.7222 108.419 55.5895 107.149 57.2328C106.029 58.6892 104.759 58.7639 103.527 58.876C103.34 58.876 102.481 58.9507 102.332 58.9507C102.07 58.988 101.921 59.0254 101.921 59.2868C101.921 59.5482 101.958 59.5855 102.705 59.5855H104.535Z" fill="black"/>
<path d="M117.667 50.4358C118.04 50.5852 119.571 51.0707 121.14 51.0707C124.613 51.0707 126.518 49.2034 127.601 48.1204C127.601 47.8216 127.601 47.6349 127.377 47.6349C127.339 47.6349 127.265 47.6349 126.966 47.7843C125.659 48.3445 124.128 48.7926 122.26 48.7926C121.14 48.7926 119.459 48.6432 117.629 47.8216C117.219 47.6349 117.144 47.6349 117.106 47.6349C116.92 47.6349 116.882 47.6722 116.882 48.4191V59.2494C116.882 59.9217 116.882 60.1084 117.256 60.1084C117.443 60.1084 117.517 60.0337 117.704 59.7723C118.899 58.0917 120.542 57.3821 122.41 57.3821C123.717 57.3821 126.518 58.2038 126.518 64.5899C126.518 65.785 126.518 67.951 125.397 69.6689C124.464 71.2001 123.007 71.9844 121.401 71.9844C118.936 71.9844 116.434 70.2665 115.762 67.3908C115.911 67.4282 116.21 67.5029 116.36 67.5029C116.845 67.5029 117.779 67.2414 117.779 66.0837C117.779 65.0754 117.069 64.6646 116.36 64.6646C115.501 64.6646 114.94 65.1874 114.94 66.2331C114.94 69.4822 117.517 72.8807 121.476 72.8807C125.323 72.8807 128.982 69.5569 128.982 64.7393C128.982 60.2578 126.069 56.7846 122.447 56.7846C120.542 56.7846 118.936 57.4942 117.667 58.8386V50.4358Z" fill="black"/>
<path d="M164.924 60.2951C165.484 60.2951 166.044 60.2951 166.044 59.6602C166.044 58.988 165.409 58.988 164.775 58.988H143.898C143.263 58.988 142.628 58.988 142.628 59.6602C142.628 60.2951 143.189 60.2951 143.749 60.2951H164.924ZM164.775 66.9427C165.409 66.9427 166.044 66.9427 166.044 66.2704C166.044 65.6356 165.484 65.6356 164.924 65.6356H143.749C143.189 65.6356 142.628 65.6356 142.628 66.2704C142.628 66.9427 143.263 66.9427 143.898 66.9427H164.775Z" fill="black"/>
<path d="M195.01 49.0167V48.1951H186.234C181.864 48.1951 181.79 47.7096 181.64 47H180.968L179.885 53.9837H180.557C180.669 53.2741 180.931 51.3695 181.379 50.6599C181.603 50.3611 184.367 50.3611 185.002 50.3611H193.218L189.072 56.5232C186.309 60.6686 184.404 66.2704 184.404 71.1627C184.404 71.6109 184.404 72.8807 185.748 72.8807C187.093 72.8807 187.093 71.6109 187.093 71.1254V69.4075C187.093 63.2828 188.139 59.2494 189.856 56.6726L195.01 49.0167Z" fill="black"/>
</g>
<defs>
<clipPath id="clip0_1_89">
<rect width="227.995" height="31.8933" fill="white"/>
</clipPath>
<clipPath id="clip1_1_89">
<rect width="195.01" height="32.4909" fill="white" transform="translate(0 47)"/>
</clipPath>
</defs>
</svg>
