<svg width="280" height="126" viewBox="0 0 280 126" fill="none" xmlns="http://www.w3.org/2000/svg">
<g clip-path="url(#clip0_1_216)">
<path d="M15.5732 18.897H14.901C14.5275 21.5485 14.2288 21.9967 14.0794 22.2208C13.8927 22.5195 11.2038 22.5195 10.6809 22.5195H3.51052C4.85497 21.063 7.46918 18.4115 10.6436 15.3491C12.9217 13.1831 15.5732 10.6436 15.5732 6.94632C15.5732 2.53951 12.0627 0 8.1414 0C4.03336 0 1.53119 3.62254 1.53119 6.98367C1.53119 8.44016 2.61422 8.62688 3.06237 8.62688C3.43583 8.62688 4.5562 8.40281 4.5562 7.09571C4.5562 5.93798 3.58521 5.60187 3.06237 5.60187C2.83829 5.60187 2.61422 5.63922 2.46484 5.71391C3.17441 2.53951 5.34046 0.970989 7.61856 0.970989C10.8676 0.970989 12.9964 3.54785 12.9964 6.94632C12.9964 10.1954 11.0917 12.9963 8.96301 15.4238L1.53119 23.8266V24.6856H14.6769L15.5732 18.897Z" fill="black"/>
<path d="M32.8127 12.6976C32.8127 10.4195 32.7754 6.53552 31.2069 3.54785C29.8251 0.933643 27.6217 0 25.6797 0C23.8871 0 21.609 0.821606 20.1898 3.51051C18.696 6.31144 18.5466 9.78461 18.5466 12.6976C18.5466 14.8263 18.584 18.0754 19.7417 20.9137C21.3476 24.7603 24.2232 25.2831 25.6797 25.2831C27.3976 25.2831 30.0118 24.5736 31.543 21.0257C32.6634 18.4488 32.8127 15.4238 32.8127 12.6976ZM25.6797 24.6856C23.2896 24.6856 21.8704 22.6316 21.3476 19.7933C20.9368 17.5899 20.9368 14.3781 20.9368 12.2868C20.9368 9.41115 20.9368 7.02101 21.4223 4.74292C22.1318 1.56852 24.2232 0.597532 25.6797 0.597532C27.2109 0.597532 29.1902 1.60587 29.8998 4.66823C30.3853 6.79694 30.4226 9.29911 30.4226 12.2868C30.4226 14.7143 30.4226 17.7019 29.9745 19.9053C29.1902 23.976 26.9868 24.6856 25.6797 24.6856Z" fill="black"/>
<path d="M59.4717 7.28244C59.4717 6.08738 58.4633 4.92966 57.0815 4.92966C55.6624 4.92966 54.6914 6.08738 54.6914 7.28244C54.6914 8.47751 55.6997 9.63523 57.0815 9.63523C58.5007 9.63523 59.4717 8.47751 59.4717 7.28244ZM59.4717 23.4158C59.4717 22.2208 58.4633 21.0631 57.0815 21.0631C55.6624 21.0631 54.6914 22.2208 54.6914 23.4158C54.6914 24.6109 55.6997 25.7686 57.0815 25.7686C58.5007 25.7686 59.4717 24.6109 59.4717 23.4158ZM45.9151 14.6022C45.2803 14.6022 44.608 14.6022 44.608 15.3491C44.608 16.0961 45.2803 16.0961 45.9151 16.0961H68.2479C68.8828 16.0961 69.555 16.0961 69.555 15.3491C69.555 14.6022 68.8828 14.6022 68.2479 14.6022H45.9151Z" fill="black"/>
<path d="M89.8339 0.821606C89.8339 0.037344 89.7965 0 89.2737 0C87.8172 1.75525 85.6138 2.31544 83.5224 2.39013C83.4104 2.39013 83.2237 2.39013 83.1863 2.46482C83.149 2.53951 83.149 2.61421 83.149 3.39847C84.3067 3.39847 86.2487 3.17439 87.7425 2.27809V21.9593C87.7425 23.2664 87.6678 23.7146 84.4561 23.7146H83.3357V24.6856C85.1283 24.6482 86.9956 24.6109 88.7882 24.6109C90.5808 24.6109 92.4481 24.6482 94.2407 24.6856V23.7146H93.1203C89.9086 23.7146 89.8339 23.3038 89.8339 21.9593V0.821606Z" fill="black"/>
<path d="M112.713 12.6976C112.713 10.4195 112.675 6.53552 111.107 3.54785C109.725 0.933643 107.522 0 105.58 0C103.787 0 101.509 0.821606 100.09 3.51051C98.5959 6.31144 98.4465 9.78461 98.4465 12.6976C98.4465 14.8263 98.4839 18.0754 99.6416 20.9137C101.247 24.7603 104.123 25.2831 105.58 25.2831C107.297 25.2831 109.912 24.5736 111.443 21.0257C112.563 18.4488 112.713 15.4238 112.713 12.6976ZM105.58 24.6856C103.189 24.6856 101.77 22.6316 101.247 19.7933C100.837 17.5899 100.837 14.3781 100.837 12.2868C100.837 9.41115 100.837 7.02101 101.322 4.74292C102.032 1.56852 104.123 0.597532 105.58 0.597532C107.111 0.597532 109.09 1.60587 109.8 4.66823C110.285 6.79694 110.323 9.29911 110.323 12.2868C110.323 14.7143 110.323 17.7019 109.874 19.9053C109.09 23.976 106.887 24.6856 105.58 24.6856Z" fill="black"/>
<path d="M129.84 12.6976C129.84 10.4195 129.803 6.53552 128.234 3.54785C126.852 0.933643 124.649 0 122.707 0C120.914 0 118.636 0.821606 117.217 3.51051C115.723 6.31144 115.574 9.78461 115.574 12.6976C115.574 14.8263 115.611 18.0754 116.769 20.9137C118.375 24.7603 121.251 25.2831 122.707 25.2831C124.425 25.2831 127.039 24.5736 128.57 21.0257C129.691 18.4488 129.84 15.4238 129.84 12.6976ZM122.707 24.6856C120.317 24.6856 118.898 22.6316 118.375 19.7933C117.964 17.5899 117.964 14.3781 117.964 12.2868C117.964 9.41115 117.964 7.02101 118.45 4.74292C119.159 1.56852 121.251 0.597532 122.707 0.597532C124.238 0.597532 126.218 1.60587 126.927 4.66823C127.413 6.79694 127.45 9.29911 127.45 12.2868C127.45 14.7143 127.45 17.7019 127.002 19.9053C126.218 23.976 124.014 24.6856 122.707 24.6856Z" fill="black"/>
<path d="M165.669 12.6976C166.23 12.6976 166.79 12.6976 166.79 12.0627C166.79 11.3905 166.155 11.3905 165.52 11.3905H144.644C144.009 11.3905 143.374 11.3905 143.374 12.0627C143.374 12.6976 143.934 12.6976 144.494 12.6976H165.669ZM165.52 19.3451C166.155 19.3451 166.79 19.3451 166.79 18.6729C166.79 18.038 166.23 18.038 165.669 18.038H144.494C143.934 18.038 143.374 18.038 143.374 18.6729C143.374 19.3451 144.009 19.3451 144.644 19.3451H165.52Z" fill="black"/>
<path d="M194.598 12.6976C194.598 10.4195 194.561 6.53552 192.992 3.54785C191.61 0.933643 189.407 0 187.465 0C185.672 0 183.394 0.821606 181.975 3.51051C180.481 6.31144 180.332 9.78461 180.332 12.6976C180.332 14.8263 180.369 18.0754 181.527 20.9137C183.133 24.7603 186.009 25.2831 187.465 25.2831C189.183 25.2831 191.797 24.5736 193.328 21.0257C194.449 18.4488 194.598 15.4238 194.598 12.6976ZM187.465 24.6856C185.075 24.6856 183.656 22.6316 183.133 19.7933C182.722 17.5899 182.722 14.3781 182.722 12.2868C182.722 9.41115 182.722 7.02101 183.208 4.74292C183.917 1.56852 186.009 0.597532 187.465 0.597532C188.996 0.597532 190.976 1.60587 191.685 4.66823C192.171 6.79694 192.208 9.29911 192.208 12.2868C192.208 14.7143 192.208 17.7019 191.76 19.9053C190.976 23.976 188.772 24.6856 187.465 24.6856Z" fill="black"/>
<path d="M203.323 24.835C203.323 22.6689 202.613 21.063 201.082 21.063C199.887 21.063 199.289 22.034 199.289 22.8556C199.289 23.6773 199.85 24.6856 201.119 24.6856C201.605 24.6856 202.016 24.5362 202.352 24.2001C202.426 24.1254 202.464 24.1254 202.501 24.1254C202.576 24.1254 202.576 24.6482 202.576 24.835C202.576 26.0674 202.352 28.4949 200.186 30.9223C199.775 31.3705 199.775 31.4452 199.775 31.5199C199.775 31.7066 199.962 31.8933 200.148 31.8933C200.447 31.8933 203.323 29.1297 203.323 24.835Z" fill="black"/>
<path d="M227.995 18.897H227.323C226.95 21.5485 226.651 21.9967 226.502 22.2208C226.315 22.5195 223.626 22.5195 223.103 22.5195H215.933C217.277 21.063 219.891 18.4115 223.066 15.3491C225.344 13.1831 227.995 10.6436 227.995 6.94632C227.995 2.53951 224.485 0 220.564 0C216.456 0 213.953 3.62254 213.953 6.98367C213.953 8.44016 215.036 8.62688 215.485 8.62688C215.858 8.62688 216.978 8.40281 216.978 7.09571C216.978 5.93798 216.007 5.60187 215.485 5.60187C215.26 5.60187 215.036 5.63922 214.887 5.71391C215.597 2.53951 217.763 0.970989 220.041 0.970989C223.29 0.970989 225.419 3.54785 225.419 6.94632C225.419 10.1954 223.514 12.9963 221.385 15.4238L213.953 23.8266V24.6856H227.099L227.995 18.897Z" fill="black"/>
</g>
<g clip-path="url(#clip1_1_216)">
<path d="M15.6852 59.6976C15.6852 57.4195 15.6479 53.5355 14.0794 50.5479C12.6976 47.9336 10.4942 47 8.55218 47C6.75958 47 4.48149 47.8216 3.06234 50.5105C1.56851 53.3114 1.41913 56.7846 1.41913 59.6976C1.41913 61.8263 1.45647 65.0754 2.6142 67.9137C4.22007 71.7603 7.09569 72.2831 8.55218 72.2831C10.2701 72.2831 12.8843 71.5736 14.4155 68.0257C15.5359 65.4488 15.6852 62.4238 15.6852 59.6976ZM8.55218 71.6856C6.16205 71.6856 4.74291 69.6316 4.22007 66.7933C3.80926 64.5899 3.80926 61.3781 3.80926 59.2868C3.80926 56.4111 3.80926 54.021 4.29476 51.7429C5.00433 48.5685 7.09569 47.5975 8.55218 47.5975C10.0834 47.5975 12.0627 48.6059 12.7723 51.6682C13.2578 53.7969 13.2951 56.2991 13.2951 59.2868C13.2951 61.7143 13.2951 64.7019 12.847 66.9053C12.0627 70.976 9.85929 71.6856 8.55218 71.6856Z" fill="black"/>
<path d="M24.4099 71.835C24.4099 69.6689 23.7003 68.063 22.1691 68.063C20.9741 68.063 20.3765 69.034 20.3765 69.8556C20.3765 70.6773 20.9367 71.6856 22.2065 71.6856C22.692 71.6856 23.1028 71.5362 23.4389 71.2001C23.5136 71.1254 23.5509 71.1254 23.5883 71.1254C23.663 71.1254 23.663 71.6482 23.663 71.835C23.663 73.0674 23.4389 75.4949 21.2728 77.9223C20.862 78.3705 20.862 78.4452 20.862 78.5199C20.862 78.7066 21.0488 78.8933 21.2355 78.8933C21.5342 78.8933 24.4099 76.1297 24.4099 71.835Z" fill="black"/>
<path d="M49.0826 65.897H48.4103C48.0369 68.5485 47.7381 68.9967 47.5887 69.2208C47.402 69.5195 44.7131 69.5195 44.1903 69.5195H37.0199C38.3643 68.063 40.9785 65.4115 44.1529 62.3491C46.431 60.1831 49.0826 57.6436 49.0826 53.9463C49.0826 49.5395 45.5721 47 41.6507 47C37.5427 47 35.0405 50.6225 35.0405 53.9837C35.0405 55.4402 36.1236 55.6269 36.5717 55.6269C36.9452 55.6269 38.0655 55.4028 38.0655 54.0957C38.0655 52.938 37.0945 52.6019 36.5717 52.6019C36.3476 52.6019 36.1236 52.6392 35.9742 52.7139C36.6837 49.5395 38.8498 47.971 41.1279 47.971C44.377 47.971 46.5057 50.5479 46.5057 53.9463C46.5057 57.1954 44.6011 59.9963 42.4723 62.4238L35.0405 70.8266V71.6856H48.1863L49.0826 65.897Z" fill="black"/>
<path d="M73.0153 63.0214H82.9119C83.4348 63.0214 84.0696 63.0214 84.0696 62.3865C84.0696 61.7143 83.4721 61.7143 82.9119 61.7143H73.0153V51.8176C73.0153 51.2948 73.0153 50.6599 72.3804 50.6599C71.7082 50.6599 71.7082 51.2574 71.7082 51.8176V61.7143H61.8115C61.2887 61.7143 60.6538 61.7143 60.6538 62.3491C60.6538 63.0214 61.2513 63.0214 61.8115 63.0214H71.7082V72.918C71.7082 73.4409 71.7082 74.0757 72.3431 74.0757C73.0153 74.0757 73.0153 73.4782 73.0153 72.918V63.0214Z" fill="black"/>
<path d="M104.052 47.8216C104.052 47.0373 104.015 47 103.492 47C102.035 48.7553 99.8318 49.3154 97.7404 49.3901C97.6284 49.3901 97.4416 49.3901 97.4043 49.4648C97.3669 49.5395 97.3669 49.6142 97.3669 50.3985C98.5247 50.3985 100.467 50.1744 101.96 49.2781V68.9593C101.96 70.2664 101.886 70.7146 98.674 70.7146H97.5537V71.6856C99.3463 71.6482 101.214 71.6109 103.006 71.6109C104.799 71.6109 106.666 71.6482 108.459 71.6856V70.7146H107.338C104.127 70.7146 104.052 70.3038 104.052 68.9593V47.8216Z" fill="black"/>
<path d="M145.632 59.6976C146.193 59.6976 146.753 59.6976 146.753 59.0627C146.753 58.3905 146.118 58.3905 145.483 58.3905H124.607C123.972 58.3905 123.337 58.3905 123.337 59.0627C123.337 59.6976 123.897 59.6976 124.457 59.6976H145.632ZM145.483 66.3451C146.118 66.3451 146.753 66.3451 146.753 65.6729C146.753 65.038 146.193 65.038 145.632 65.038H124.457C123.897 65.038 123.337 65.038 123.337 65.6729C123.337 66.3451 123.972 66.3451 124.607 66.3451H145.483Z" fill="black"/>
<path d="M168.81 47.8216C168.81 47.0373 168.772 47 168.25 47C166.793 48.7553 164.59 49.3154 162.498 49.3901C162.386 49.3901 162.2 49.3901 162.162 49.4648C162.125 49.5395 162.125 49.6142 162.125 50.3985C163.283 50.3985 165.225 50.1744 166.718 49.2781V68.9593C166.718 70.2664 166.644 70.7146 163.432 70.7146H162.312V71.6856C164.104 71.6482 165.972 71.6109 167.764 71.6109C169.557 71.6109 171.424 71.6482 173.217 71.6856V70.7146H172.096C168.885 70.7146 168.81 70.3038 168.81 68.9593V47.8216Z" fill="black"/>
<path d="M183.286 71.835C183.286 69.6689 182.576 68.063 181.045 68.063C179.85 68.063 179.252 69.034 179.252 69.8556C179.252 70.6773 179.813 71.6856 181.082 71.6856C181.568 71.6856 181.979 71.5362 182.315 71.2001C182.389 71.1254 182.427 71.1254 182.464 71.1254C182.539 71.1254 182.539 71.6482 182.539 71.835C182.539 73.0674 182.315 75.4949 180.149 77.9223C179.738 78.3705 179.738 78.4452 179.738 78.5199C179.738 78.7066 179.925 78.8933 180.111 78.8933C180.41 78.8933 183.286 76.1297 183.286 71.835Z" fill="black"/>
<path d="M207.958 65.897H207.286C206.913 68.5485 206.614 68.9967 206.465 69.2208C206.278 69.5195 203.589 69.5195 203.066 69.5195H195.896C197.24 68.063 199.854 65.4115 203.029 62.3491C205.307 60.1831 207.958 57.6436 207.958 53.9463C207.958 49.5395 204.448 47 200.527 47C196.419 47 193.916 50.6225 193.916 53.9837C193.916 55.4402 194.999 55.6269 195.448 55.6269C195.821 55.6269 196.941 55.4028 196.941 54.0957C196.941 52.938 195.97 52.6019 195.448 52.6019C195.223 52.6019 194.999 52.6392 194.85 52.7139C195.56 49.5395 197.726 47.971 200.004 47.971C203.253 47.971 205.382 50.5479 205.382 53.9463C205.382 57.1954 203.477 59.9963 201.348 62.4238L193.916 70.8266V71.6856H207.062L207.958 65.897Z" fill="black"/>
</g>
<g clip-path="url(#clip2_1_216)">
<path d="M4.25743 96.8383C4.63089 96.9877 6.16207 97.4732 7.7306 97.4732C11.2038 97.4732 13.1084 95.6059 14.1914 94.5228C14.1914 94.2241 14.1914 94.0374 13.9674 94.0374C13.93 94.0374 13.8553 94.0374 13.5565 94.1867C12.2494 94.7469 10.7183 95.1951 8.85097 95.1951C7.7306 95.1951 6.05003 95.0457 4.22009 94.2241C3.80928 94.0374 3.73459 94.0374 3.69725 94.0374C3.51052 94.0374 3.47317 94.0747 3.47317 94.8216V105.652C3.47317 106.324 3.47317 106.511 3.84663 106.511C4.03336 106.511 4.10805 106.436 4.29478 106.175C5.48985 104.494 7.13306 103.785 9.00035 103.785C10.3075 103.785 13.1084 104.606 13.1084 110.992C13.1084 112.187 13.1084 114.353 11.988 116.071C11.0544 117.603 9.59789 118.387 7.99202 118.387C5.52719 118.387 3.02502 116.669 2.3528 113.793C2.50218 113.831 2.80095 113.905 2.95033 113.905C3.43583 113.905 4.36947 113.644 4.36947 112.486C4.36947 111.478 3.6599 111.067 2.95033 111.067C2.09138 111.067 1.53119 111.59 1.53119 112.636C1.53119 115.885 4.10805 119.283 8.06671 119.283C11.9133 119.283 15.5732 115.959 15.5732 111.142C15.5732 106.66 12.6602 103.187 9.0377 103.187C7.13306 103.187 5.52719 103.897 4.25743 105.241V96.8383Z" fill="black"/>
<path d="M32.8127 106.698C32.8127 104.419 32.7754 100.536 31.2069 97.5479C29.8251 94.9336 27.6217 94 25.6797 94C23.8871 94 21.609 94.8216 20.1898 97.5105C18.696 100.311 18.5466 103.785 18.5466 106.698C18.5466 108.826 18.584 112.075 19.7417 114.914C21.3476 118.76 24.2232 119.283 25.6797 119.283C27.3976 119.283 30.0118 118.574 31.543 115.026C32.6634 112.449 32.8127 109.424 32.8127 106.698ZM25.6797 118.686C23.2896 118.686 21.8704 116.632 21.3476 113.793C20.9368 111.59 20.9368 108.378 20.9368 106.287C20.9368 103.411 20.9368 101.021 21.4223 98.7429C22.1318 95.5685 24.2232 94.5975 25.6797 94.5975C27.2109 94.5975 29.1902 95.6059 29.8998 98.6682C30.3853 100.797 30.4226 103.299 30.4226 106.287C30.4226 108.714 30.4226 111.702 29.9745 113.905C29.1902 117.976 26.9868 118.686 25.6797 118.686Z" fill="black"/>
<path d="M49.9402 106.698C49.9402 104.419 49.9028 100.536 48.3343 97.5479C46.9525 94.9336 44.7491 94 42.8071 94C41.0145 94 38.7364 94.8216 37.3173 97.5105C35.8235 100.311 35.6741 103.785 35.6741 106.698C35.6741 108.826 35.7114 112.075 36.8691 114.914C38.475 118.76 41.3506 119.283 42.8071 119.283C44.525 119.283 47.1392 118.574 48.6704 115.026C49.7908 112.449 49.9402 109.424 49.9402 106.698ZM42.8071 118.686C40.417 118.686 38.9979 116.632 38.475 113.793C38.0642 111.59 38.0642 108.378 38.0642 106.287C38.0642 103.411 38.0642 101.021 38.5497 98.7429C39.2593 95.5685 41.3506 94.5975 42.8071 94.5975C44.3383 94.5975 46.3176 95.6059 47.0272 98.6682C47.5127 100.797 47.55 103.299 47.55 106.287C47.55 108.714 47.55 111.702 47.1019 113.905C46.3176 117.976 44.1142 118.686 42.8071 118.686Z" fill="black"/>
<path d="M67.0677 106.698C67.0677 104.419 67.0303 100.536 65.4618 97.5479C64.08 94.9336 61.8766 94 59.9346 94C58.142 94 55.8639 94.8216 54.4448 97.5105C52.951 100.311 52.8016 103.785 52.8016 106.698C52.8016 108.826 52.8389 112.075 53.9966 114.914C55.6025 118.76 58.4781 119.283 59.9346 119.283C61.6525 119.283 64.2667 118.574 65.7979 115.026C66.9183 112.449 67.0677 109.424 67.0677 106.698ZM59.9346 118.686C57.5445 118.686 56.1254 116.632 55.6025 113.793C55.1917 111.59 55.1917 108.378 55.1917 106.287C55.1917 103.411 55.1917 101.021 55.6772 98.7429C56.3868 95.5685 58.4781 94.5975 59.9346 94.5975C61.4658 94.5975 63.4451 95.6059 64.1547 98.6682C64.6402 100.797 64.6775 103.299 64.6775 106.287C64.6775 108.714 64.6775 111.702 64.2294 113.905C63.4451 117.976 61.2417 118.686 59.9346 118.686Z" fill="black"/>
<path d="M91.3365 108.303L83.8674 100.872C83.4192 100.423 83.3445 100.349 83.0457 100.349C82.6723 100.349 82.2988 100.685 82.2988 101.096C82.2988 101.357 82.3735 101.432 82.7843 101.843L90.2535 109.349L82.7843 116.856C82.3735 117.266 82.2988 117.341 82.2988 117.603C82.2988 118.013 82.6723 118.349 83.0457 118.349C83.3445 118.349 83.4192 118.275 83.8674 117.827L91.2992 110.395L99.0298 118.125C99.1045 118.163 99.3659 118.349 99.5899 118.349C100.038 118.349 100.337 118.013 100.337 117.603C100.337 117.528 100.337 117.378 100.225 117.192C100.187 117.117 94.2495 111.254 92.3822 109.349L99.2165 102.515C99.4032 102.291 99.9634 101.805 100.15 101.581C100.187 101.507 100.337 101.357 100.337 101.096C100.337 100.685 100.038 100.349 99.5899 100.349C99.2912 100.349 99.1418 100.498 98.731 100.909L91.3365 108.303Z" fill="black"/>
<path d="M124.089 94.8216C124.089 94.0373 124.051 94 123.529 94C122.072 95.7553 119.869 96.3154 117.777 96.3901C117.665 96.3901 117.479 96.3901 117.441 96.4648C117.404 96.5395 117.404 96.6142 117.404 97.3985C118.562 97.3985 120.504 97.1744 121.997 96.2781V115.959C121.997 117.266 121.923 117.715 118.711 117.715H117.591V118.686C119.383 118.648 121.251 118.611 123.043 118.611C124.836 118.611 126.703 118.648 128.496 118.686V117.715H127.375C124.164 117.715 124.089 117.304 124.089 115.959V94.8216Z" fill="black"/>
<path d="M138.565 118.835C138.565 116.669 137.855 115.063 136.324 115.063C135.129 115.063 134.531 116.034 134.531 116.856C134.531 117.677 135.092 118.686 136.361 118.686C136.847 118.686 137.258 118.536 137.594 118.2C137.668 118.125 137.706 118.125 137.743 118.125C137.818 118.125 137.818 118.648 137.818 118.835C137.818 120.067 137.594 122.495 135.428 124.922C135.017 125.37 135.017 125.445 135.017 125.52C135.017 125.707 135.204 125.893 135.39 125.893C135.689 125.893 138.565 123.13 138.565 118.835Z" fill="black"/>
<path d="M163.237 112.897H162.565C162.192 115.549 161.893 115.997 161.744 116.221C161.557 116.52 158.868 116.52 158.345 116.52H151.175C152.519 115.063 155.133 112.411 158.308 109.349C160.586 107.183 163.237 104.644 163.237 100.946C163.237 96.5395 159.727 94 155.806 94C151.698 94 149.195 97.6225 149.195 100.984C149.195 102.44 150.278 102.627 150.727 102.627C151.1 102.627 152.22 102.403 152.22 101.096C152.22 99.938 151.249 99.6019 150.727 99.6019C150.503 99.6019 150.278 99.6392 150.129 99.7139C150.839 96.5395 153.005 94.971 155.283 94.971C158.532 94.971 160.661 97.5479 160.661 100.946C160.661 104.195 158.756 106.996 156.627 109.424L149.195 117.827V118.686H162.341L163.237 112.897Z" fill="black"/>
<path d="M199.179 106.698C199.739 106.698 200.299 106.698 200.299 106.063C200.299 105.39 199.664 105.39 199.03 105.39H178.153C177.518 105.39 176.883 105.39 176.883 106.063C176.883 106.698 177.444 106.698 178.004 106.698H199.179ZM199.03 113.345C199.664 113.345 200.299 113.345 200.299 112.673C200.299 112.038 199.739 112.038 199.179 112.038H178.004C177.444 112.038 176.883 112.038 176.883 112.673C176.883 113.345 177.518 113.345 178.153 113.345H199.03Z" fill="black"/>
<path d="M216.381 105.801C216.381 96.8756 220.564 94.859 222.991 94.859C223.775 94.859 225.68 95.0083 226.427 96.4648C225.829 96.4648 224.709 96.4648 224.709 97.7719C224.709 98.7803 225.531 99.1164 226.053 99.1164C226.39 99.1164 227.398 98.967 227.398 97.6972C227.398 95.3444 225.531 94 222.954 94C218.51 94 213.841 98.6309 213.841 106.884C213.841 117.042 218.061 119.283 221.049 119.283C224.672 119.283 228.107 116.034 228.107 111.03C228.107 106.361 225.082 102.963 221.273 102.963C218.995 102.963 217.315 104.457 216.381 107.071V105.801ZM221.049 118.387C216.456 118.387 216.456 111.515 216.456 110.133C216.456 107.444 217.725 103.561 221.198 103.561C221.833 103.561 223.663 103.561 224.896 106.137C225.568 107.594 225.568 109.125 225.568 110.992C225.568 113.009 225.568 114.503 224.784 115.997C223.962 117.528 222.767 118.387 221.049 118.387Z" fill="black"/>
<path d="M245.235 106.698C245.235 104.419 245.198 100.536 243.629 97.5479C242.247 94.9336 240.044 94 238.102 94C236.309 94 234.031 94.8216 232.612 97.5105C231.118 100.311 230.969 103.785 230.969 106.698C230.969 108.826 231.006 112.075 232.164 114.914C233.77 118.76 236.645 119.283 238.102 119.283C239.82 119.283 242.434 118.574 243.965 115.026C245.086 112.449 245.235 109.424 245.235 106.698ZM238.102 118.686C235.712 118.686 234.293 116.632 233.77 113.793C233.359 111.59 233.359 108.378 233.359 106.287C233.359 103.411 233.359 101.021 233.845 98.7429C234.554 95.5685 236.645 94.5975 238.102 94.5975C239.633 94.5975 241.612 95.6059 242.322 98.6682C242.807 100.797 242.845 103.299 242.845 106.287C242.845 108.714 242.845 111.702 242.397 113.905C241.612 117.976 239.409 118.686 238.102 118.686Z" fill="black"/>
<path d="M262.362 106.698C262.362 104.419 262.325 100.536 260.757 97.5479C259.375 94.9336 257.171 94 255.229 94C253.437 94 251.159 94.8216 249.74 97.5105C248.246 100.311 248.096 103.785 248.096 106.698C248.096 108.826 248.134 112.075 249.291 114.914C250.897 118.76 253.773 119.283 255.229 119.283C256.947 119.283 259.561 118.574 261.093 115.026C262.213 112.449 262.362 109.424 262.362 106.698ZM255.229 118.686C252.839 118.686 251.42 116.632 250.897 113.793C250.486 111.59 250.486 108.378 250.486 106.287C250.486 103.411 250.486 101.021 250.972 98.7429C251.682 95.5685 253.773 94.5975 255.229 94.5975C256.761 94.5975 258.74 95.6059 259.449 98.6682C259.935 100.797 259.972 103.299 259.972 106.287C259.972 108.714 259.972 111.702 259.524 113.905C258.74 117.976 256.536 118.686 255.229 118.686Z" fill="black"/>
<path d="M279.49 106.698C279.49 104.419 279.453 100.536 277.884 97.5479C276.502 94.9336 274.299 94 272.357 94C270.564 94 268.286 94.8216 266.867 97.5105C265.373 100.311 265.224 103.785 265.224 106.698C265.224 108.826 265.261 112.075 266.419 114.914C268.025 118.76 270.9 119.283 272.357 119.283C274.075 119.283 276.689 118.574 278.22 115.026C279.341 112.449 279.49 109.424 279.49 106.698ZM272.357 118.686C269.967 118.686 268.548 116.632 268.025 113.793C267.614 111.59 267.614 108.378 267.614 106.287C267.614 103.411 267.614 101.021 268.099 98.7429C268.809 95.5685 270.9 94.5975 272.357 94.5975C273.888 94.5975 275.867 95.6059 276.577 98.6682C277.062 100.797 277.1 103.299 277.1 106.287C277.1 108.714 277.1 111.702 276.652 113.905C275.867 117.976 273.664 118.686 272.357 118.686Z" fill="black"/>
</g>
<defs>
<clipPath id="clip0_1_216">
<rect width="227.995" height="31.8933" fill="white"/>
</clipPath>
<clipPath id="clip1_1_216">
<rect width="207.958" height="31.8933" fill="white" transform="translate(0 47)"/>
</clipPath>
<clipPath id="clip2_1_216">
<rect width="279.49" height="31.8933" fill="white" transform="translate(0 94)"/>
</clipPath>
</defs>
</svg>
