<svg width="229" height="78" viewBox="0 0 229 78" fill="none" xmlns="http://www.w3.org/2000/svg">
<g clip-path="url(#clip0_1_314)">
<path d="M13.6686 3.69723C14.0047 2.31544 14.1541 2.24074 15.6106 2.24074H20.4655C24.6856 2.24074 24.6856 5.82594 24.6856 6.16206C24.6856 9.18707 21.6606 13.0337 16.7309 13.0337H11.3531L13.6686 3.69723ZM19.98 13.3325C24.0507 12.5855 27.748 9.74726 27.748 6.31144C27.748 3.39847 25.1711 1.15771 20.951 1.15771H8.963C8.25343 1.15771 7.91732 1.15772 7.91732 1.86729C7.91732 2.24074 8.25343 2.24074 8.81362 2.24074C11.0917 2.24074 11.0917 2.53951 11.0917 2.95031C11.0917 3.02501 11.0917 3.24908 10.9423 3.80927L5.90064 23.9013C5.56453 25.2084 5.48984 25.5819 2.87563 25.5819C2.16606 25.5819 1.7926 25.5819 1.7926 26.2541C1.7926 26.6649 2.01668 26.6649 2.76359 26.6649H15.5732C21.2871 26.6649 25.6939 22.3328 25.6939 18.5609C25.6939 15.4985 23.005 13.6312 19.98 13.3325ZM14.6769 25.5819H9.63523C9.11238 25.5819 9.03769 25.5819 8.81362 25.5445C8.40281 25.5072 8.36547 25.4325 8.36547 25.1337C8.36547 24.8723 8.44016 24.6482 8.51485 24.3121L11.1291 13.7806H18.1501C22.5569 13.7806 22.5569 17.8886 22.5569 18.1874C22.5569 21.7726 19.3078 25.5819 14.6769 25.5819Z" fill="black"/>
<path d="M62.5746 18.0754C63.2094 18.0754 63.8817 18.0754 63.8817 17.3285C63.8817 16.5815 63.2094 16.5815 62.5746 16.5815H42.3705C41.7356 16.5815 41.0634 16.5815 41.0634 17.3285C41.0634 18.0754 41.7356 18.0754 42.3705 18.0754H62.5746Z" fill="black"/>
<path d="M81.6584 22.5195C80.3513 24.7229 79.0815 25.4699 77.2889 25.5819C76.8781 25.6192 76.5793 25.6192 76.5793 26.2915C76.5793 26.5155 76.7661 26.6649 77.0275 26.6649C77.6997 26.6649 79.3803 26.5902 80.0525 26.5902C81.1355 26.5902 82.3306 26.6649 83.3763 26.6649C83.6004 26.6649 84.0485 26.6649 84.0485 25.9553C84.0485 25.6192 83.7497 25.5819 83.5257 25.5819C82.6667 25.5072 81.9571 25.2084 81.9571 24.3121C81.9571 23.7893 82.1812 23.3785 82.6667 22.5569L85.505 17.8513H95.0282C95.0655 18.1874 95.0655 18.4862 95.1029 18.8223C95.2149 19.7933 95.6631 23.6773 95.6631 24.3868C95.6631 25.5072 93.7584 25.5819 93.1609 25.5819C92.7501 25.5819 92.3393 25.5819 92.3393 26.2541C92.3393 26.6649 92.6754 26.6649 92.8995 26.6649C93.5343 26.6649 94.2813 26.5902 94.9161 26.5902H97.0449C99.323 26.5902 100.966 26.6649 101.004 26.6649C101.265 26.6649 101.676 26.6649 101.676 25.9553C101.676 25.5819 101.34 25.5819 100.779 25.5819C98.7254 25.5819 98.6881 25.2458 98.576 24.1254L96.2979 0.821608C96.2232 0.0746912 96.0739 0 95.6631 0C95.2896 0 95.0655 0.074693 94.7294 0.634881L81.6584 22.5195ZM86.1399 16.7683L93.6464 4.22008L94.9161 16.7683H86.1399Z" fill="black"/>
<path d="M102.722 41.8463H0V43.3401H102.722V41.8463Z" fill="black"/>
<path d="M44.0036 73.4016C42.6965 75.605 41.4267 76.352 39.6341 76.464C39.2233 76.5014 38.9246 76.5013 38.9246 77.1736C38.9246 77.3976 39.1113 77.547 39.3727 77.547C40.0449 77.547 41.7255 77.4723 42.3977 77.4723C43.4808 77.4723 44.6758 77.547 45.7215 77.547C45.9456 77.547 46.3937 77.547 46.3937 76.8375C46.3937 76.5013 46.095 76.464 45.8709 76.464C45.0119 76.3893 44.3024 76.0905 44.3024 75.1942C44.3024 74.6714 44.5264 74.2606 45.0119 73.439L47.8502 68.7334H57.3734C57.4107 69.0695 57.4107 69.3683 57.4481 69.7044C57.5601 70.6754 58.0083 74.5594 58.0083 75.2689C58.0083 76.3893 56.1036 76.464 55.5061 76.464C55.0953 76.464 54.6845 76.464 54.6845 77.1362C54.6845 77.547 55.0206 77.547 55.2447 77.547C55.8796 77.547 56.6265 77.4723 57.2614 77.4723H59.3901C61.6682 77.4723 63.3114 77.547 63.3487 77.547C63.6102 77.547 64.021 77.547 64.021 76.8375C64.021 76.464 63.6848 76.464 63.1247 76.464C61.0706 76.464 61.0333 76.1279 60.9213 75.0075L58.6432 51.7037C58.5685 50.9568 58.4191 50.8821 58.0083 50.8821C57.6348 50.8821 57.4107 50.9568 57.0746 51.517L44.0036 73.4016ZM48.4851 67.6504L55.9916 55.1022L57.2614 67.6504H48.4851Z" fill="black"/>
<path d="M127.35 41.5475L119.881 34.1157C119.433 33.6675 119.358 33.5928 119.059 33.5928C118.686 33.5928 118.312 33.929 118.312 34.3398C118.312 34.6012 118.387 34.6759 118.798 35.0867L126.267 42.5932L118.798 50.0997C118.387 50.5105 118.312 50.5852 118.312 50.8466C118.312 51.2574 118.686 51.5935 119.059 51.5935C119.358 51.5935 119.433 51.5188 119.881 51.0707L127.313 43.6389L135.043 51.3695C135.118 51.4068 135.379 51.5935 135.603 51.5935C136.052 51.5935 136.35 51.2574 136.35 50.8466C136.35 50.7719 136.35 50.6225 136.238 50.4358C136.201 50.3611 130.263 44.4978 128.396 42.5932L135.23 35.7589C135.417 35.5348 135.977 35.0493 136.164 34.8253C136.201 34.7506 136.35 34.6012 136.35 34.3398C136.35 33.929 136.052 33.5928 135.603 33.5928C135.305 33.5928 135.155 33.7422 134.744 34.153L127.35 41.5475Z" fill="black"/>
<path d="M160.102 28.0657C160.102 27.2814 160.065 27.2441 159.542 27.2441C158.086 28.9993 155.882 29.5595 153.791 29.6342C153.679 29.6342 153.492 29.6342 153.455 29.7089C153.417 29.7836 153.417 29.8583 153.417 30.6425C154.575 30.6425 156.517 30.4185 158.011 29.5222V49.2034C158.011 50.5105 157.936 50.9587 154.725 50.9587H153.604V51.9297C155.397 51.8923 157.264 51.855 159.057 51.855C160.849 51.855 162.717 51.8923 164.509 51.9297V50.9587H163.389C160.177 50.9587 160.102 50.5479 160.102 49.2034V28.0657Z" fill="black"/>
<path d="M182.981 39.9416C182.981 37.6635 182.944 33.7796 181.375 30.7919C179.993 28.1777 177.79 27.2441 175.848 27.2441C174.055 27.2441 171.777 28.0657 170.358 30.7546C168.864 33.5555 168.715 37.0287 168.715 39.9416C168.715 42.0704 168.752 45.3194 169.91 48.1577C171.516 52.0043 174.391 52.5272 175.848 52.5272C177.566 52.5272 180.18 51.8176 181.711 48.2698C182.832 45.6929 182.981 42.6679 182.981 39.9416ZM175.848 51.9297C173.458 51.9297 172.039 49.8756 171.516 47.0374C171.105 44.834 171.105 41.6222 171.105 39.5308C171.105 36.6552 171.105 34.2651 171.59 31.987C172.3 28.8126 174.391 27.8416 175.848 27.8416C177.379 27.8416 179.358 28.8499 180.068 31.9123C180.553 34.041 180.591 36.5432 180.591 39.5308C180.591 41.9583 180.591 44.946 180.143 47.1494C179.358 51.2201 177.155 51.9297 175.848 51.9297Z" fill="black"/>
<path d="M200.109 39.9416C200.109 37.6635 200.071 33.7796 198.503 30.7919C197.121 28.1777 194.918 27.2441 192.976 27.2441C191.183 27.2441 188.905 28.0657 187.486 30.7546C185.992 33.5555 185.843 37.0287 185.843 39.9416C185.843 42.0704 185.88 45.3194 187.038 48.1577C188.643 52.0043 191.519 52.5272 192.976 52.5272C194.693 52.5272 197.308 51.8176 198.839 48.2698C199.959 45.6929 200.109 42.6679 200.109 39.9416ZM192.976 51.9297C190.585 51.9297 189.166 49.8756 188.643 47.0374C188.233 44.834 188.233 41.6222 188.233 39.5308C188.233 36.6552 188.233 34.2651 188.718 31.987C189.428 28.8126 191.519 27.8416 192.976 27.8416C194.507 27.8416 196.486 28.8499 197.196 31.9123C197.681 34.041 197.719 36.5432 197.719 39.5308C197.719 41.9583 197.719 44.946 197.27 47.1494C196.486 51.2201 194.283 51.9297 192.976 51.9297Z" fill="black"/>
<path d="M228.626 46.4772C228.626 42.1451 226.498 38.9707 223.995 38.9707C221.456 38.9707 218.879 41.921 218.879 46.4772C218.879 51.0334 221.419 53.9837 223.995 53.9837C226.498 53.9837 228.626 50.8466 228.626 46.4772ZM224.033 53.3862C223.062 53.3862 220.634 52.4899 220.634 46.4772C220.634 40.4272 223.062 39.5682 224.033 39.5682C226.087 39.5682 227.954 42.5185 227.954 46.4772C227.954 50.4358 226.087 53.3862 224.033 53.3862ZM225.377 25.2647C225.639 24.8539 225.676 24.8166 225.676 24.6299C225.676 24.1817 225.34 23.9576 225.041 23.9576C224.668 23.9576 224.518 24.2191 224.257 24.5178C222.091 27.6175 219.103 27.9536 217.572 27.9536C213.837 27.9536 211.559 25.7876 210.85 25.1154C210.364 24.6672 209.655 23.9576 208.385 23.9576C205.845 23.9576 203.269 26.908 203.269 31.4642C203.269 36.0203 205.808 38.9707 208.385 38.9707C210.887 38.9707 213.016 35.8336 213.016 31.4642C213.016 28.8873 212.232 27.132 212.12 26.908C214.398 28.3644 216.638 28.5512 217.609 28.5512C219.999 28.5512 221.717 27.6549 222.651 27.02L222.688 27.0573L206.555 52.6019C206.219 53.1247 206.219 53.1994 206.219 53.3115C206.219 53.7223 206.555 53.9837 206.891 53.9837C207.227 53.9837 207.339 53.797 207.601 53.3862L225.377 25.2647ZM208.422 38.3731C207.451 38.3731 205.024 37.4768 205.024 31.4642C205.024 25.4141 207.451 24.5552 208.422 24.5552C210.476 24.5552 212.344 27.5055 212.344 31.4642C212.344 35.4228 210.476 38.3731 208.422 38.3731Z" fill="black"/>
</g>
<defs>
<clipPath id="clip0_1_314">
<rect width="228.626" height="77.547" fill="white"/>
</clipPath>
</defs>
</svg>
