<?xml version="1.0" standalone="no"?>
<!DOCTYPE svg PUBLIC "-//W3C//DTD SVG 20010904//EN"
 "http://www.w3.org/TR/2001/REC-SVG-20010904/DTD/svg10.dtd">
<svg version="1.0" xmlns="http://www.w3.org/2000/svg"
 width="261.000000pt" height="261.000000pt" viewBox="0 0 261.000000 261.000000"
 preserveAspectRatio="xMidYMid meet">
<metadata>
Created by potrace 1.14, written by Peter Selinger 2001-2017
</metadata>
<g transform="translate(0.000000,261.000000) scale(0.100000,-0.100000)"
fill="#000000" stroke="none">
<path d="M1539 2600 c-5 -3 -10 -427 -11 -965 l-3 -960 -27 -55 c-51 -103
-136 -165 -235 -169 -107 -4 -192 45 -245 143 -31 59 -33 66 -38 201 l-5 140
-223 3 -223 2 4 -157 c5 -172 21 -256 67 -360 117 -260 376 -424 660 -417 191
4 327 60 471 192 107 99 181 223 221 371 21 74 21 96 20 1049 0 536 -3 976 -6
980 -8 7 -415 9 -427 2z"/>
</g>
</svg>
